<?xml version="1.0" standalone="no"?>
<!DOCTYPE svg PUBLIC "-//W3C//DTD SVG 20010904//EN"
 "http://www.w3.org/TR/2001/REC-SVG-20010904/DTD/svg10.dtd">
<svg version="1.0" xmlns="http://www.w3.org/2000/svg"
 width="1896.000000pt" height="1640.000000pt" viewBox="0 0 1896.000000 1640.000000"
 preserveAspectRatio="xMidYMid meet">

<g transform="translate(0.000000,1640.000000) scale(0.100000,-0.100000)"
fill="#000000" stroke="none">
<path d="M9070 15829 c-2375 -123 -4559 -1357 -5912 -3339 -526 -771 -945
-1735 -1127 -2595 -18 -82 -39 -179 -47 -215 -20 -91 -19 -93 32 -114 49 -20
66 -16 42 11 -9 10 -18 32 -20 48 -1 17 -11 36 -20 43 -24 17 -23 34 3 50 15
10 41 11 97 6 73 -7 79 -9 112 -47 l34 -39 -18 -46 c-9 -26 -23 -68 -30 -94
-8 -25 -17 -51 -20 -57 -10 -16 -79 -13 -102 4 -10 8 -26 15 -34 15 -9 0 -34
18 -55 40 -30 30 -41 37 -47 26 -11 -20 -65 -405 -83 -596 -46 -497 -46 -966
0 -1460 193 -2026 1184 -3883 2770 -5185 1355 -1113 3070 -1725 4835 -1725
1434 0 2829 400 4045 1158 697 435 1337 998 1870 1647 903 1098 1484 2452
1664 3873 45 351 55 528 55 962 0 432 -10 613 -54 958 -196 1542 -840 2957
-1879 4127 -224 253 -569 585 -839 808 -94 78 -125 97 -83 53 27 -28 24 -63
-8 -139 -23 -52 -53 -74 -118 -82 -48 -7 -48 -7 -97 45 -43 46 -48 55 -43 86
4 24 0 45 -14 68 l-19 33 26 49 c31 56 71 96 88 88 34 -17 -79 70 -214 165
-1387 977 -3074 1459 -4790 1370z m-2666 -2038 c35 -36 38 -42 32 -78 -13 -76
-30 -78 -84 -10 -27 33 -32 47 -28 71 6 29 23 56 35 56 4 0 24 -18 45 -39z
m4988 -708 c40 -41 68 -98 68 -137 0 -38 -62 -81 -117 -81 -37 0 -48 6 -83 40
-32 32 -43 53 -52 99 -12 56 -12 59 11 77 13 10 35 19 50 20 14 0 35 4 46 9
33 14 39 12 77 -27z m-4429 -518 c23 -28 27 -40 22 -69 -9 -47 -24 -58 -65
-46 -20 6 -39 6 -50 0 -13 -7 -25 -1 -54 29 -42 43 -41 45 44 94 57 34 69 33
103 -8z m-2805 -130 c52 -59 112 -164 112 -196 0 -27 -40 -79 -60 -79 -6 0
-26 11 -45 25 -23 18 -40 24 -57 20 -16 -4 -29 -1 -37 9 -8 9 -17 16 -22 16
-5 0 7 -21 26 -46 48 -63 47 -98 -2 -121 -27 -13 -39 -26 -41 -43 -5 -34 -19
-47 -34 -32 -16 16 -43 15 -58 -3 -7 -8 -35 -27 -63 -41 l-50 -25 -34 33 c-19
18 -50 54 -69 79 -50 69 -47 114 15 199 26 36 60 71 76 79 17 8 58 34 93 58
35 23 71 43 81 43 21 0 41 19 41 39 0 8 7 22 16 32 22 25 65 8 112 -46z m5202
-125 c39 -28 137 -180 152 -235 11 -41 10 -46 -12 -70 -13 -14 -31 -25 -41
-25 -10 0 -20 -4 -23 -8 -6 -10 -44 -7 -101 7 -51 13 -104 75 -127 148 -14 47
-14 60 -3 105 16 57 18 61 60 82 40 21 61 20 95 -4z m2320 -546 c0 -17 -10
-44 -22 -60 -12 -16 -23 -30 -23 -32 -5 -8 -63 23 -87 46 -36 33 -35 56 2 84
17 12 30 27 30 33 0 6 5 16 12 23 20 20 88 -53 88 -94z m-8073 -258 c33 -22
44 -24 72 -16 30 8 35 6 64 -27 44 -49 55 -83 33 -99 -15 -10 -24 -9 -54 9
-20 12 -55 27 -77 33 -22 6 -49 15 -59 19 -16 7 -18 5 -13 -17 5 -20 2 -27
-19 -36 -40 -19 -56 -14 -96 25 -45 44 -47 63 -11 107 24 31 30 33 74 30 30
-2 62 -12 86 -28z m11760 -28 c61 -65 78 -126 47 -173 -14 -22 -14 -26 0 -47
25 -35 20 -73 -11 -93 -25 -17 -39 -17 -182 -6 -86 6 -173 10 -195 9 -37 -3
-41 0 -87 60 -63 82 -66 119 -12 174 20 21 42 38 48 38 6 0 27 14 45 30 40 36
47 36 112 8 l51 -22 71 26 c39 14 73 26 77 27 3 0 19 -14 36 -31z m-11010
-190 c58 -57 64 -79 31 -102 -42 -30 -82 -21 -126 29 -41 47 -62 97 -43 103 6
2 9 8 5 13 -3 5 14 9 38 9 38 0 48 -6 95 -52z m9153 -214 c162 -129 304 -244
314 -254 18 -18 21 -77 57 -1102 21 -595 37 -1083 36 -1084 -1 -1 -546 -117
-1212 -258 -665 -142 -1219 -260 -1231 -262 -20 -5 -21 -1 -26 111 -3 63 -8
118 -10 121 -3 2 -55 -7 -116 -20 -62 -13 -112 -23 -112 -22 -6 17 -87 2553
-82 2557 4 3 238 54 519 114 348 73 517 105 525 98 7 -5 51 -40 97 -77 46 -37
87 -65 92 -64 4 2 48 55 97 118 l90 115 328 71 c181 39 331 72 334 73 3 0 138
-105 300 -235z m-9450 -325 c0 -15 -8 -37 -18 -49 -24 -30 -49 -21 -101 35
-40 44 -53 82 -28 89 6 2 26 8 42 13 27 9 34 6 68 -26 25 -23 37 -44 37 -62z
m6720 -85 c0 -93 3 -114 15 -114 8 0 60 10 115 21 55 12 102 20 104 18 2 -2
11 -206 21 -453 11 -310 13 -451 6 -455 -6 -4 -64 -18 -131 -31 l-120 -24 0
-61 c0 -190 14 -425 25 -425 13 0 25 -91 25 -186 l0 -52 108 24 c59 13 112 23
118 24 11 0 46 -899 35 -911 -3 -4 -297 -69 -652 -144 l-647 -137 -303 242
c-167 134 -308 246 -313 251 -5 4 -15 164 -22 355 l-12 346 89 117 c49 64 89
119 89 123 0 3 -42 40 -94 81 l-94 76 -6 68 c-3 37 -8 165 -11 283 -3 118 -8
244 -11 280 l-5 65 171 220 c94 121 177 226 184 233 14 14 1294 292 1309 285
4 -2 7 -56 7 -119z m3894 -143 c38 -39 39 -41 32 -92 -9 -67 -14 -74 -37 -53
-27 24 -31 14 -19 -41 12 -52 5 -65 -34 -65 -40 0 -127 126 -126 183 0 12 7
30 14 39 12 17 15 16 40 -7 35 -33 40 -32 21 6 -9 17 -14 34 -10 37 5 5 59 27
75 31 3 0 23 -17 44 -38z m-5987 -490 l311 -250 6 -113 c4 -62 18 -437 31
-833 14 -396 26 -748 28 -782 l3 -63 -181 -232 -180 -232 -645 -138 c-355 -75
-648 -137 -651 -138 -3 0 -9 52 -11 115 -3 64 -8 118 -10 121 -3 2 -55 -7
-116 -20 -62 -13 -112 -23 -112 -22 -4 12 -87 2552 -84 2556 4 4 1256 275
1289 279 6 0 150 -111 322 -248z m-3509 30 c32 -16 74 -47 93 -68 30 -33 35
-45 31 -75 -3 -30 -10 -38 -43 -52 -29 -13 -47 -15 -67 -9 -15 5 -43 6 -62 2
-32 -7 -39 -4 -72 29 -35 34 -37 40 -29 74 7 30 74 128 87 128 3 0 31 -13 62
-29z m9657 -96 c85 -74 115 -114 115 -153 0 -27 -6 -34 -44 -50 -24 -11 -58
-36 -76 -56 -18 -20 -38 -36 -43 -36 -6 0 -21 -10 -34 -21 -13 -13 -44 -25
-74 -30 -48 -8 -55 -6 -94 22 -63 45 -113 111 -121 157 -6 38 -4 41 32 66 21
14 44 26 51 26 6 0 14 12 18 28 7 32 60 92 95 108 48 21 104 2 175 -61z
m-8105 -161 c0 -93 3 -114 15 -114 8 0 60 10 115 21 55 12 102 20 104 18 2 -2
11 -206 21 -453 11 -310 13 -451 6 -455 -6 -4 -64 -18 -131 -31 l-120 -24 0
-61 c0 -190 14 -425 25 -425 13 0 25 -91 25 -186 l0 -52 108 24 c59 13 112 23
118 24 11 0 46 -899 35 -911 -3 -4 -297 -69 -652 -144 l-647 -137 -308 247
c-285 228 -309 250 -315 283 -4 21 -10 143 -13 272 -4 129 -9 269 -12 311 l-6
77 91 119 c50 65 91 121 91 125 0 3 -42 40 -94 81 l-94 76 -6 68 c-3 37 -8
165 -11 283 -3 118 -8 244 -11 280 l-5 65 171 220 c94 121 177 226 185 233 13
14 1293 292 1308 285 4 -2 7 -56 7 -119z m6123 -1690 l207 -166 0 -41 c0 -23
9 -278 20 -567 11 -289 20 -538 20 -555 0 -23 -27 -65 -116 -180 -64 -82 -118
-152 -120 -154 -2 -3 -199 -46 -437 -96 l-432 -91 -3 73 c-2 48 -7 76 -16 79
-6 2 -41 -2 -76 -10 -35 -8 -66 -13 -68 -11 -5 5 -63 1697 -59 1702 5 5 829
181 852 182 12 1 105 -67 228 -165z m-7807 -91 c17 -21 33 -46 37 -56 7 -19
-11 -67 -25 -67 -5 0 -28 -18 -50 -40 -23 -22 -49 -40 -58 -40 -8 0 -32 -12
-53 -26 -21 -14 -53 -28 -71 -31 -29 -5 -36 0 -72 43 -22 27 -48 60 -57 74
-18 26 -23 70 -8 70 4 0 23 10 42 23 42 28 117 57 149 57 14 0 34 7 44 15 11
8 36 15 56 15 30 0 42 -6 66 -37z m5974 -164 c0 -72 2 -80 18 -75 42 12 134
27 138 23 3 -2 12 -211 21 -463 9 -253 16 -460 17 -461 1 -1 82 16 181 37 98
21 183 37 187 34 4 -3 8 -39 8 -80 0 -41 2 -74 4 -74 3 0 37 7 77 15 40 9 73
14 74 13 4 -5 24 -602 20 -606 -2 -2 -253 -57 -557 -121 l-553 -117 -3 73 c-2
48 -7 76 -16 79 -6 2 -41 -2 -76 -10 -35 -8 -66 -13 -68 -11 -5 5 -63 1697
-59 1702 5 4 548 121 570 122 15 1 17 -9 17 -80z m-859 -314 l206 -165 7 -177
c3 -98 9 -243 12 -323 l6 -145 -61 -80 -62 -80 42 -35 c99 -81 88 -42 99 -340
5 -145 7 -266 5 -268 -2 -2 -253 -57 -557 -121 l-553 -117 -3 73 c-2 48 -7 76
-16 79 -6 2 -41 -2 -76 -10 -35 -8 -66 -13 -68 -11 -5 4 -63 1697 -59 1702 5
5 829 181 852 182 12 1 105 -67 226 -164z m-1348 -291 l207 -166 0 -41 c0 -23
9 -278 20 -567 11 -289 20 -538 20 -555 -1 -28 -35 -77 -220 -313 -17 -21 -53
-31 -321 -88 -165 -35 -306 -64 -314 -64 -7 0 -105 74 -219 165 -156 126 -206
171 -206 188 0 12 -9 258 -20 547 -11 289 -20 548 -20 575 0 52 9 65 217 329
20 25 42 32 315 91 161 35 302 64 313 64 12 1 106 -68 228 -165z m6375 -91
c38 -49 55 -125 42 -194 -12 -60 -69 -159 -106 -184 -26 -17 -27 -16 -65 21
l-39 38 0 89 c0 69 5 98 21 135 26 55 86 132 104 132 7 0 27 -17 43 -37z
m-7688 -59 c0 -83 -5 -80 88 -60 47 10 64 11 67 2 2 -6 15 -332 29 -724 l25
-713 -120 -155 c-67 -84 -121 -154 -122 -154 -1 0 -96 -20 -210 -45 -115 -25
-216 -45 -225 -45 -10 0 -45 23 -79 50 l-62 50 -57 -72 c-31 -40 -60 -76 -63
-80 -6 -7 -419 -98 -445 -98 -23 0 -426 329 -426 348 0 9 -11 334 -25 721 -14
387 -24 706 -22 707 7 7 1632 351 1640 347 4 -2 7 -38 7 -79z m-3060 -120 c0
-42 -16 -84 -32 -84 -22 0 -78 77 -78 105 0 15 8 43 17 63 l17 35 38 -43 c28
-31 38 -52 38 -76z m-1416 -439 c90 -6 119 -19 169 -74 41 -45 58 -77 76 -141
7 -25 19 -60 27 -78 20 -47 19 -230 -1 -251 -20 -20 -61 -83 -93 -141 -14 -25
-33 -53 -43 -63 -11 -10 -19 -22 -19 -28 0 -5 -9 -13 -20 -17 -18 -7 -17 -11
21 -61 36 -48 40 -57 29 -75 -7 -11 -18 -40 -24 -65 -9 -38 -16 -47 -43 -54
-48 -14 -80 -1 -140 56 -51 48 -55 54 -50 89 4 31 0 44 -24 75 -36 45 -55 58
-94 62 -42 4 -101 64 -119 120 -35 108 -44 293 -17 376 5 17 15 55 22 85 6 30
17 62 24 70 7 8 17 29 22 45 6 18 18 31 29 33 11 2 24 13 29 25 7 16 21 24 52
28 24 3 46 8 49 12 4 3 19 0 34 -8 15 -8 62 -16 104 -20z m11868 -132 c25 -24
38 -46 38 -63 -1 -26 -21 -60 -36 -60 -13 0 -94 83 -94 96 0 13 38 64 48 64 3
0 23 -17 44 -37z m-1668 -542 c3 -4 16 -6 30 -4 33 7 116 -68 116 -104 0 -20
-4 -24 -20 -20 -24 6 -24 4 -3 -36 19 -35 43 -97 43 -111 0 -19 -63 50 -85 94
-13 25 -35 56 -50 70 -27 25 -65 89 -65 110 0 12 27 14 34 1z m-213 -35 c37
-30 44 -33 54 -19 6 8 30 18 52 23 39 7 44 5 78 -30 21 -21 33 -43 30 -51 -3
-9 20 -43 59 -87 77 -85 89 -105 74 -120 -15 -15 -71 15 -136 73 l-51 46 -7
-25 c-3 -14 -10 -24 -14 -21 -5 3 -16 -2 -24 -11 -11 -11 -25 -14 -45 -9 -27
6 -30 4 -33 -22 -2 -22 -10 -29 -38 -35 -53 -13 -54 -13 -68 -22 -9 -5 -24 -1
-40 11 -38 28 -94 113 -87 133 3 9 -1 33 -10 53 -12 29 -13 41 -3 62 6 14 16
25 21 25 5 0 15 7 22 16 9 13 81 39 116 43 3 1 26 -14 50 -33z m-1778 -61 c21
-8 59 -37 83 -63 43 -45 45 -49 40 -95 -7 -65 -11 -69 -51 -53 -49 21 -105 5
-97 -27 5 -21 4 -21 -27 6 -18 15 -36 27 -39 27 -17 -1 -40 -28 -39 -46 3 -35
-35 -28 -76 14 -31 32 -37 44 -32 65 4 16 13 26 24 25 56 -4 67 18 29 59 -22
24 -12 33 11 11 11 -11 11 -9 1 8 -19 31 -6 52 41 72 48 21 79 20 132 -3z
m-8036 -618 c38 -21 89 -90 103 -139 11 -42 10 -51 -4 -73 -9 -13 -28 -32 -42
-41 -24 -16 -26 -16 -55 12 -35 33 -109 176 -109 210 0 40 60 57 107 31z
m5233 -346 c14 -12 31 -21 37 -21 20 0 78 -68 129 -148 l46 -72 -25 -43 c-14
-23 -39 -59 -56 -81 -17 -21 -31 -46 -31 -56 0 -9 -13 -29 -29 -44 -35 -33
-62 -29 -120 20 -37 32 -41 33 -53 17 -7 -10 -35 -33 -62 -52 l-48 -34 -34 39
c-18 21 -31 45 -29 52 3 8 5 23 5 34 0 11 14 33 31 49 31 28 31 30 20 75 -11
43 -10 49 26 124 31 67 42 80 61 80 21 0 23 4 18 24 -7 27 8 76 27 88 10 6 28
-4 87 -51z m4608 -381 c46 -24 107 -86 118 -120 11 -35 6 -151 -8 -167 -6 -7
-27 -13 -46 -13 -31 0 -44 9 -93 58 -73 75 -83 121 -45 206 14 31 27 56 30 56
3 0 23 -9 44 -20z m-2718 -586 c0 -35 -18 -74 -34 -74 -8 0 -28 17 -45 37 -35
42 -40 86 -14 115 16 18 18 17 55 -19 22 -21 38 -47 38 -59z m1719 31 c45 -52
42 -84 -16 -151 -60 -71 -78 -81 -105 -57 -34 30 -78 95 -78 115 0 29 86 136
113 140 30 5 49 -5 86 -47z m1441 -129 c0 -14 -41 -56 -55 -56 -6 0 -28 17
-48 38 -35 36 -37 39 -20 54 44 38 56 39 91 5 17 -17 32 -35 32 -41z m653
-742 c61 -21 117 -86 157 -181 38 -90 39 -145 5 -196 -15 -22 -34 -37 -45 -37
-24 0 -54 -16 -90 -48 -43 -38 -58 -38 -100 3 -35 34 -39 45 -53 129 -9 50
-16 139 -15 198 0 91 3 109 19 127 24 25 59 27 122 5z m-8228 -205 c25 -23 51
-60 61 -85 9 -24 27 -65 40 -91 38 -74 26 -117 -21 -73 -16 15 -30 20 -44 15
-12 -3 -19 -11 -16 -16 4 -5 1 -9 -6 -9 -7 0 -6 -8 5 -25 9 -13 16 -27 16 -29
0 -10 -95 -53 -130 -60 -32 -5 -38 -2 -64 31 -34 42 -114 201 -122 242 -3 16
-1 31 4 35 15 9 80 -50 102 -93 10 -20 32 -52 49 -71 29 -34 30 -34 31 -11 0
31 -42 93 -75 111 -24 13 -42 46 -31 57 3 3 17 -2 31 -11 14 -9 25 -13 25 -9
0 3 11 -4 25 -17 13 -12 22 -26 20 -31 -3 -4 6 -21 20 -38 28 -33 69 -39 62
-9 -3 10 -1 18 5 18 6 0 8 7 5 14 -4 11 -1 13 11 9 9 -4 -9 21 -40 54 -58 61
-64 83 -35 121 15 19 24 15 72 -29z m-60 -92 c29 -58 10 -64 -41 -13 -38 38
-42 53 -16 58 22 6 38 -7 57 -45z m4546 -238 c37 -58 37 -84 -4 -134 -65 -82
-74 -89 -100 -78 -21 10 -85 80 -84 93 0 3 -10 24 -22 47 -25 50 -27 76 -5 94
13 10 20 10 45 -5 32 -19 38 -8 14 28 -15 22 -14 25 16 50 l32 27 39 -38 c21
-21 52 -59 69 -84z m-661 -292 c48 -54 79 -125 90 -212 6 -47 21 -100 35 -128
36 -70 29 -137 -13 -137 -10 0 -25 -9 -35 -20 -9 -11 -26 -20 -36 -20 -11 0
-32 -5 -46 -12 -23 -10 -29 -8 -66 28 -32 32 -39 43 -34 65 4 19 -4 51 -26
101 -33 78 -41 160 -25 258 10 59 24 77 72 94 53 20 50 20 84 -17z m2942 -29
c47 -58 52 -77 38 -161 -13 -77 -34 -107 -74 -107 -12 0 -27 -5 -33 -11 -8 -8
-22 0 -53 27 -54 49 -70 82 -70 142 0 98 44 151 126 152 25 0 39 -9 66 -42z
m-620 -645 c39 -41 68 -100 68 -139 0 -28 -12 -31 -31 -8 -12 14 -14 14 -20
-3 -3 -10 -2 -26 3 -37 7 -12 6 -22 -1 -29 -23 -23 -140 87 -141 135 0 24 3
26 34 24 18 -2 38 -6 45 -10 16 -10 14 0 -11 45 -20 34 -21 41 -8 49 22 14 22
14 62 -27z"/>
<path d="M12885 11051 l-259 -56 -124 -160 c-68 -88 -128 -161 -133 -163 -5
-2 -68 45 -140 103 l-131 108 -394 -84 -394 -83 0 -51 c0 -85 72 -2130 75
-2134 4 -4 503 102 514 109 4 3 -5 361 -21 795 -15 435 -27 803 -25 820 2 29
2 29 130 56 91 19 129 24 132 15 2 -6 16 -373 31 -816 15 -443 29 -807 31
-809 4 -6 506 100 515 108 4 3 -6 372 -23 820 -16 448 -27 816 -24 819 2 3 62
17 133 32 l129 27 6 -141 c3 -77 16 -442 28 -809 13 -367 26 -673 30 -679 5
-8 80 4 263 42 253 54 256 55 256 80 -2 127 -68 1891 -71 1894 -2 1 -60 48
-129 102 -69 55 -129 103 -135 105 -5 3 -127 -20 -270 -50z"/>
<path d="M10056 10449 c-387 -83 -512 -113 -522 -127 -6 -9 -62 -82 -124 -162
l-112 -145 7 -270 c5 -210 10 -274 21 -286 8 -9 68 -58 134 -110 65 -52 119
-98 119 -104 1 -5 -53 -80 -119 -165 l-119 -155 -1 -75 c0 -41 3 -166 7 -278
l6 -203 136 -108 136 -109 522 112 c287 61 524 113 527 116 5 6 -12 531 -17
536 -1 2 -178 -34 -392 -80 l-390 -83 -7 51 c-11 93 -9 223 5 228 6 3 126 29
265 58 l253 54 -5 45 c-3 25 -8 146 -12 269 -6 190 -9 222 -22 222 -8 0 -125
-23 -258 -52 -134 -28 -246 -49 -249 -47 -3 3 -6 66 -7 139 l-3 133 320 69
c176 37 353 75 393 84 l73 16 -6 186 c-9 303 -14 352 -33 351 -10 0 -246 -50
-526 -110z"/>
<path d="M7778 9967 l-518 -111 0 -51 c0 -86 72 -2130 75 -2134 6 -5 1049 219
1056 227 4 4 61 78 127 164 l122 157 -30 822 c-16 452 -31 823 -32 824 -2 1
-63 50 -137 108 -73 59 -136 106 -140 106 -3 -1 -239 -51 -523 -112z m293
-574 c0 -49 8 -296 17 -551 17 -462 17 -463 -3 -467 -11 -3 -70 -16 -132 -29
l-111 -24 -6 82 c-9 131 -38 969 -34 996 3 23 12 26 128 51 69 15 128 28 133
28 4 1 7 -38 8 -86z"/>
<path d="M6006 9589 c-387 -83 -512 -113 -522 -127 -6 -9 -62 -82 -124 -162
l-112 -145 7 -270 c5 -210 10 -274 21 -286 8 -9 68 -58 134 -110 65 -52 119
-98 119 -104 1 -5 -53 -80 -119 -165 l-119 -155 -1 -75 c0 -41 3 -166 7 -278
l6 -203 136 -108 136 -109 522 112 c287 61 524 113 527 116 5 6 -12 531 -17
536 -1 2 -178 -34 -392 -80 l-390 -83 -7 51 c-11 93 -9 223 5 228 6 3 126 29
265 58 l253 54 -5 45 c-3 25 -8 146 -12 269 -6 190 -9 222 -22 222 -8 0 -125
-23 -258 -52 -134 -28 -246 -49 -249 -47 -3 3 -6 66 -7 139 l-3 133 320 69
c176 37 353 75 393 84 l74 16 -6 176 c-11 315 -16 362 -34 361 -10 0 -246 -50
-526 -110z"/>
<path d="M12385 8104 c-110 -24 -265 -58 -345 -75 l-145 -31 25 -723 c14 -398
27 -725 30 -728 3 -2 138 25 300 59 162 35 318 68 346 74 51 11 54 13 136 123
l84 112 -17 485 c-10 267 -19 512 -21 545 l-3 60 -90 72 c-49 40 -92 72 -95
72 -3 -1 -95 -21 -205 -45z m59 -546 c3 -106 9 -272 13 -368 l6 -176 -88 -17
c-49 -9 -90 -15 -92 -14 -4 5 -33 721 -29 724 3 3 157 39 177 42 3 1 9 -86 13
-191z"/>
<path d="M10721 7755 c-84 -19 -156 -37 -159 -40 -7 -7 39 -1427 47 -1441 4
-7 149 20 436 81 l430 92 -3 179 c-2 98 -4 180 -5 181 -2 1 -119 -23 -261 -53
-142 -30 -260 -53 -262 -51 -2 2 -11 201 -19 443 -19 567 -24 644 -38 643 -7
0 -81 -16 -166 -34z"/>
<path d="M9695 7534 c-110 -24 -265 -58 -345 -75 l-145 -31 25 -723 c14 -398
27 -725 30 -727 3 -3 81 12 174 31 l169 36 -6 182 c-5 165 -4 183 11 187 38
12 157 34 161 30 2 -2 6 -83 9 -179 3 -119 8 -175 16 -175 24 0 322 63 330 71
5 4 5 85 1 183 l-7 176 -77 62 c-42 34 -82 67 -90 74 -11 10 0 30 70 120 l83
108 -3 131 c-2 71 -6 195 -10 275 l-6 145 -90 72 c-49 40 -92 72 -95 72 -3 -1
-95 -21 -205 -45z m55 -486 c0 -73 3 -156 6 -184 l7 -52 -54 -11 c-30 -7 -73
-15 -96 -18 l-42 -6 -3 179 c-2 99 -3 180 -2 182 1 2 158 39 177 41 4 1 7 -59
7 -131z"/>
<path d="M8287 7231 l-257 -56 -86 -110 -85 -110 5 -120 c4 -66 11 -253 16
-415 5 -162 12 -355 16 -427 l6 -133 89 -70 88 -71 261 55 c144 31 262 56 264
56 2 0 41 51 88 113 l84 112 -17 485 c-10 267 -19 512 -21 545 l-3 60 -90 72
c-49 40 -92 72 -95 72 -3 -1 -121 -27 -263 -58z m117 -533 c3 -106 9 -272 13
-368 l6 -176 -88 -17 c-49 -9 -90 -15 -92 -13 -4 3 -31 719 -28 724 2 2 156
38 176 41 3 1 9 -86 13 -191z"/>
<path d="M7208 7001 c-91 -20 -169 -38 -171 -41 -3 -3 4 -247 14 -544 11 -296
17 -541 14 -544 -7 -7 -168 -42 -173 -37 -2 2 -13 246 -23 541 -11 296 -22
540 -24 543 -5 4 -334 -64 -339 -71 -2 -1 5 -243 16 -537 10 -294 17 -540 14
-546 -4 -11 -165 -49 -173 -42 -2 2 -12 246 -22 541 -11 296 -22 540 -24 542
-5 6 -327 -63 -335 -71 -6 -5 22 -936 35 -1163 l6 -113 88 -70 89 -71 176 38
176 38 81 107 c45 60 85 108 88 109 4 0 46 -32 95 -71 63 -50 94 -69 108 -65
12 2 91 19 176 37 l155 32 82 106 c82 106 83 106 83 166 0 72 -39 1196 -43
1211 -1 6 -63 -3 -169 -25z"/>
</g>
</svg>
