<?xml version="1.0" standalone="no"?>
<!DOCTYPE svg PUBLIC "-//W3C//DTD SVG 1.1//EN" "http://www.w3.org/Graphics/SVG/1.1/DTD/svg11.dtd" >
<svg xmlns="http://www.w3.org/2000/svg" xmlns:xlink="http://www.w3.org/1999/xlink" version="1.1">
<metadata>
Created by FontForge 20170924 at Wed Sep 25 18:22:20 2019
 By www-data
Copyright (c) 2017 by Thomas Helbig. All rights reserved.
</metadata>
<defs>
<font id="NDAstroneer" horiz-adv-x="336" >
  <font-face 
    font-family="ND Astroneer"
    font-weight="400"
    font-stretch="normal"
    units-per-em="1500"
    panose-1="0 0 5 0 0 0 0 0 0 0"
    ascent="1200"
    descent="-300"
    x-height="700"
    cap-height="1000"
    bbox="-606 -380 1804 1369"
    underline-thickness="50"
    underline-position="-100"
    unicode-range="U+0020-25CA"
  />
<missing-glyph horiz-adv-x="692" 
d="M570 -300h-444v1400h444v-1400zM231 1006v-46h91v-52h-92v-46h232v46h-92v52h92v46h-231zM230 826v-146h232v48h-92v98h-140zM322 728h-46v50h46v-50zM230 642v-46h92v-52h-92v-46h140v98h92v46h-232zM416 558v-92h-186v-48h232v140h-46zM322 387v-78h48v32h46v-66h-140
v112h-46v-158h232v158h-140zM230 145v-158h232v158h-232zM416 33h-140v66h140v-66zM230 -45v-46h98l-98 -66v-46h232v46h-143l98 66h45v46h-232z" />
    <glyph glyph-name="f_f" unicode="ff" horiz-adv-x="1137" 
d="M1083 700v-107h-233v-593h-113v593h-387v-593h-113v593h-183v107h183v124q0 106 19 157t70.5 70t159.5 19h73v-107h-73q-63 0 -90.5 -9.5t-36.5 -37.5t-9 -92v-124h387v124q0 106 19 157t70.5 70t159.5 19h73v-107h-73q-63 0 -90.5 -9.5t-36.5 -37.5t-9 -92v-124h233z
" />
    <glyph glyph-name=".notdef" horiz-adv-x="692" 
d="M570 -300h-444v1400h444v-1400zM231 1006v-46h91v-52h-92v-46h232v46h-92v52h92v46h-231zM230 826v-146h232v48h-92v98h-140zM322 728h-46v50h46v-50zM230 642v-46h92v-52h-92v-46h140v98h92v46h-232zM416 558v-92h-186v-48h232v140h-46zM322 387v-78h48v32h46v-66h-140
v112h-46v-158h232v158h-140zM230 145v-158h232v158h-232zM416 33h-140v66h140v-66zM230 -45v-46h98l-98 -66v-46h232v46h-143l98 66h45v46h-232z" />
    <glyph glyph-name="space" unicode=" " horiz-adv-x="370" 
 />
    <glyph glyph-name="A" unicode="A" horiz-adv-x="903" 
d="M329 903q13 50 41.5 74.5t81.5 24.5q51 0 79 -23t42 -77l306 -902h-120l-295 875q-3 10 -12 10t-12 -10l-295 -875h-122z" />
    <glyph glyph-name="Aacute" unicode="&#xc1;" horiz-adv-x="903" 
d="M321 903q13 50 41.5 74.5t81.5 24.5q51 0 79 -23t42 -77l306 -902h-120l-295 875q-3 10 -12 10t-12 -10l-295 -875h-122zM387 1089l61 211h113l-61 -211h-113z" />
    <glyph glyph-name="Abreve" unicode="&#x102;" horiz-adv-x="903" 
d="M321 903q13 50 41.5 74.5t81.5 24.5q51 0 79 -23t42 -77l306 -902h-120l-295 875q-3 10 -12 10t-12 -10l-295 -875h-122zM292.5 1144.5q-46.5 47.5 -46.5 155.5h90q0 -59 26 -86t81 -27t81 27t26 86h91q0 -108 -47 -155.5t-151 -47.5t-150.5 47.5z" />
    <glyph glyph-name="Acircumflex" unicode="&#xc2;" horiz-adv-x="903" 
d="M321 903q13 50 41.5 74.5t81.5 24.5q51 0 79 -23t42 -77l306 -902h-120l-295 875q-3 10 -12 10t-12 -10l-295 -875h-122zM528 1076l-84 154l-84 -154h-116l105 180q12 26 31.5 35t63.5 9q45 0 65 -9t32 -36l103 -179h-116z" />
    <glyph glyph-name="Adieresis" unicode="&#xc4;" horiz-adv-x="903" 
d="M321 903q13 50 41.5 74.5t81.5 24.5q51 0 79 -23t42 -77l306 -902h-120l-295 875q-3 10 -12 10t-12 -10l-295 -875h-122zM251.5 1173.5q-16.5 16.5 -16.5 54.5q0 39 16.5 55.5t55.5 16.5q38 0 54.5 -16.5t16.5 -55.5q0 -38 -16.5 -54.5t-54.5 -16.5q-39 0 -55.5 16.5z
M525.5 1174q-16.5 17 -16.5 54q0 39 16.5 55.5t54.5 16.5q39 0 55.5 -16.5t16.5 -55.5q0 -38 -16.5 -54.5t-55.5 -16.5q-38 0 -54.5 17z" />
    <glyph glyph-name="Agrave" unicode="&#xc0;" horiz-adv-x="903" 
d="M321 903q13 50 41.5 74.5t81.5 24.5q51 0 79 -23t42 -77l306 -902h-120l-295 875q-3 10 -12 10t-12 -10l-295 -875h-122zM327 1300h113l61 -211h-113z" />
    <glyph glyph-name="Amacron" unicode="&#x100;" horiz-adv-x="903" 
d="M321 903q13 50 41.5 74.5t81.5 24.5q51 0 79 -23t42 -77l306 -902h-120l-295 875q-3 10 -12 10t-12 -10l-295 -875h-122zM277 1208h334v-100h-334v100z" />
    <glyph glyph-name="Aogonek" unicode="&#x104;" horiz-adv-x="903" 
d="M762.5 -224q19.5 -12 62.5 -12h45l-1 -86h-45q-101 0 -144 27t-43 96q0 41 19 65t54 47q25 18 36.5 30.5t11.5 29.5l1 27l-100 297h-414l-100 -297h-122l306 903q13 50 41.5 74.5t81.5 24.5q51 0 79 -23t42 -77l306 -902h-26v-46q0 -27 -15 -43t-44 -34
q-26 -17 -38.5 -30t-12.5 -32q0 -27 19.5 -39zM624 399l-160 476q-3 10 -12 10t-12 -10l-160 -476h344z" />
    <glyph glyph-name="Aring" unicode="&#xc5;" horiz-adv-x="903" 
d="M321 903q13 50 41.5 74.5t81.5 24.5q51 0 79 -23t42 -77l306 -902h-120l-295 875q-3 10 -12 10t-12 -10l-295 -875h-122zM333 1111q-36 36 -36 110q0 75 36 111.5t110 36.5q75 0 111.5 -36.5t36.5 -111.5q0 -74 -36.5 -110t-111.5 -36q-74 0 -110 36zM517 1221
q0 75 -73 75q-38 0 -56 -18.5t-18 -56.5q0 -75 74 -75q73 0 73 75z" />
    <glyph glyph-name="Atilde" unicode="&#xc3;" horiz-adv-x="903" 
d="M321 903q13 50 41.5 74.5t81.5 24.5q51 0 79 -23t42 -77l306 -902h-120l-295 875q-3 10 -12 10t-12 -10l-295 -875h-122zM479 1125q-31 21 -65 60q-25 29 -43 42.5t-43 13.5q-27 0 -44.5 -18t-17.5 -54v-61h-84v72q0 59 35 99.5t112 40.5q40 0 69.5 -12.5t48 -30
t40.5 -44.5q21 -26 36 -38t35 -12q28 0 44.5 15.5t16.5 48.5v69h87v-81q0 -55 -34.5 -93t-110.5 -38q-51 0 -82 21z" />
    <glyph glyph-name="AE" unicode="&#xc6;" horiz-adv-x="1224" 
d="M600 892l73 -323h463v-109h-439l71 -313q5 -23 15 -31t34 -8h319v-108h-347q-51 0 -80.5 23.5t-40.5 73.5l-10 43h-1l-166 730q-1 6 -4.5 9t-7.5 3t-8 -3t-5 -9l-317 -870h-126l332 902q20 55 42.5 76.5t64.5 21.5h674v-108h-536z" />
    <glyph glyph-name="B" unicode="B" horiz-adv-x="836" 
d="M136.5 24q-24.5 24 -24.5 75v802q0 50 24 74.5t75 24.5h255q111 0 169.5 -22.5t82.5 -76t24 -155.5q0 -73 -10 -114.5t-35 -67.5t-76 -49q59 -23 88.5 -51t42 -74t12.5 -128q0 -104 -26 -160t-89.5 -79t-182.5 -23h-255q-50 0 -74.5 24zM563.5 576.5q36.5 12.5 50 46
t13.5 104.5q0 73 -14 107t-53.5 47.5t-123.5 13.5h-171q-24 0 -32 -8t-8 -32v-291h224q78 0 114.5 12.5zM233 113q8 -8 32 -8h171q91 0 135 14.5t60 52t16 113.5q0 75 -15 110.5t-55.5 48.5t-127.5 13h-224v-312q0 -24 8 -32z" />
    <glyph glyph-name="C" unicode="C" horiz-adv-x="799" 
d="M207 29.5q-65 29.5 -92.5 96t-27.5 182.5v378q0 119 27.5 186.5t92.5 97.5t180 30h335v-108h-284q-99 0 -149 -17.5t-69.5 -60.5t-19.5 -128v-378q0 -82 19.5 -124t69.5 -59t149 -17h284v-108h-335q-115 0 -180 29.5z" />
    <glyph glyph-name="Cacute" unicode="&#x106;" horiz-adv-x="799" 
d="M199 29.5q-65 29.5 -92.5 96t-27.5 182.5v378q0 119 27.5 186.5t92.5 97.5t180 30h335v-108h-284q-99 0 -149 -17.5t-69.5 -60.5t-19.5 -128v-378q0 -82 19.5 -124t69.5 -59t149 -17h284v-108h-335q-115 0 -180 29.5zM374 1089l61 211h113l-61 -211h-113z" />
    <glyph glyph-name="Ccaron" unicode="&#x10c;" horiz-adv-x="799" 
d="M199 29.5q-65 29.5 -92.5 96t-27.5 182.5v378q0 119 27.5 186.5t92.5 97.5t180 30h335v-108h-284q-99 0 -149 -17.5t-69.5 -60.5t-19.5 -128v-378q0 -82 19.5 -124t69.5 -59t149 -17h284v-108h-335q-115 0 -180 29.5zM529 1121q-12 -27 -32 -36t-65 -9q-44 0 -63.5 9
t-31.5 35l-105 180h116l84 -154l84 154h116z" />
    <glyph glyph-name="Ccedilla" unicode="&#xc7;" horiz-adv-x="799" 
d="M289 874.5q-50 -17.5 -69.5 -60.5t-19.5 -128v-378q0 -82 19.5 -124t69.5 -59t149 -17h284v-108h-225v-163h-116v163q-113 1 -176 30.5t-90.5 96t-27.5 181.5v378q0 119 27.5 186.5t92.5 97.5t180 30h335v-108h-284q-99 0 -149 -17.5z" />
    <glyph glyph-name="D" unicode="D" horiz-adv-x="890" 
d="M136.5 24q-24.5 24 -24.5 75v802q0 50 24 74.5t75 24.5h215q184 0 280.5 -79t96.5 -268v-306q0 -171 -88 -259t-289 -88h-215q-50 0 -74.5 24zM233 116q8 -8 32 -8h161q136 0 200 54.5t64 184.5v306q0 123 -61 181t-203 58h-161q-24 0 -32 -8t-8 -32v-704q0 -24 8 -32z
" />
    <glyph glyph-name="Eth" unicode="&#xd0;" horiz-adv-x="890" 
d="M706.5 921q96.5 -79 96.5 -268v-306q0 -171 -88 -259t-289 -88h-215q-50 0 -74.5 24t-24.5 75v349h-141v104h141v349q0 50 24 74.5t75 24.5h215q184 0 280.5 -79zM690 653q0 123 -61 181t-203 58h-161q-24 0 -32 -8t-8 -32v-300h191v-104h-191v-300q0 -24 8 -32t32 -8
h161q136 0 200 54.5t64 184.5v306z" />
    <glyph glyph-name="Dcaron" unicode="&#x10e;" horiz-adv-x="890" 
d="M128.5 24q-24.5 24 -24.5 75v802q0 50 24 74.5t75 24.5h215q184 0 280.5 -79t96.5 -268v-306q0 -171 -88 -259t-289 -88h-215q-50 0 -74.5 24zM225 116q8 -8 32 -8h161q136 0 200 54.5t64 184.5v306q0 123 -61 181t-203 58h-161q-24 0 -32 -8t-8 -32v-704q0 -24 8 -32z
M542 1121q-12 -27 -32 -36t-65 -9q-44 0 -63.5 9t-31.5 35l-105 180h116l84 -154l84 154h116z" />
    <glyph glyph-name="Dcroat" unicode="&#x110;" horiz-adv-x="890" 
d="M698.5 921q96.5 -79 96.5 -268v-306q0 -171 -88 -259t-289 -88h-215q-50 0 -74.5 24t-24.5 75v349h-141v104h141v349q0 50 24 74.5t75 24.5h215q184 0 280.5 -79zM682 653q0 123 -61 181t-203 58h-161q-24 0 -32 -8t-8 -32v-300h191v-104h-191v-300q0 -24 8 -32t32 -8
h161q136 0 200 54.5t64 184.5v306z" />
    <glyph glyph-name="E" unicode="E" horiz-adv-x="806" 
d="M225 148q0 -24 8 -32t32 -8h453v-108h-507q-50 0 -74.5 24t-24.5 75v802q0 50 24 74.5t75 24.5h507v-108h-453q-24 0 -32 -8t-8 -32v-291h472v-100h-472v-313z" />
    <glyph glyph-name="Eacute" unicode="&#xc9;" horiz-adv-x="806" 
d="M217 148q0 -24 8 -32t32 -8h453v-108h-507q-50 0 -74.5 24t-24.5 75v802q0 50 24 74.5t75 24.5h507v-108h-453q-24 0 -32 -8t-8 -32v-291h472v-100h-472v-313zM358 1089l61 211h113l-61 -211h-113z" />
    <glyph glyph-name="Ecaron" unicode="&#x11a;" horiz-adv-x="806" 
d="M217 148q0 -24 8 -32t32 -8h453v-108h-507q-50 0 -74.5 24t-24.5 75v802q0 50 24 74.5t75 24.5h507v-108h-453q-24 0 -32 -8t-8 -32v-291h472v-100h-472v-313zM513 1121q-12 -27 -32 -36t-65 -9q-44 0 -63.5 9t-31.5 35l-105 180h116l84 -154l84 154h116z" />
    <glyph glyph-name="Ecircumflex" unicode="&#xca;" horiz-adv-x="806" 
d="M217 148q0 -24 8 -32t32 -8h453v-108h-507q-50 0 -74.5 24t-24.5 75v802q0 50 24 74.5t75 24.5h507v-108h-453q-24 0 -32 -8t-8 -32v-291h472v-100h-472v-313zM500 1076l-84 154l-84 -154h-116l105 180q12 26 31.5 35t63.5 9q45 0 65 -9t32 -36l103 -179h-116z" />
    <glyph glyph-name="Edieresis" unicode="&#xcb;" horiz-adv-x="806" 
d="M217 148q0 -24 8 -32t32 -8h453v-108h-507q-50 0 -74.5 24t-24.5 75v802q0 50 24 74.5t75 24.5h507v-108h-453q-24 0 -32 -8t-8 -32v-291h472v-100h-472v-313zM222.5 1173.5q-16.5 16.5 -16.5 54.5q0 39 16.5 55.5t55.5 16.5q38 0 54.5 -16.5t16.5 -55.5
q0 -38 -16.5 -54.5t-54.5 -16.5q-39 0 -55.5 16.5zM496.5 1174q-16.5 17 -16.5 54q0 39 16.5 55.5t54.5 16.5q39 0 55.5 -16.5t16.5 -55.5q0 -38 -16.5 -54.5t-55.5 -16.5q-38 0 -54.5 17z" />
    <glyph glyph-name="Edotaccent" unicode="&#x116;" horiz-adv-x="806" 
d="M217 148q0 -24 8 -32t32 -8h453v-108h-507q-50 0 -74.5 24t-24.5 75v802q0 50 24 74.5t75 24.5h507v-108h-453q-24 0 -32 -8t-8 -32v-291h472v-100h-472v-313zM360.5 1186.5q-16.5 16.5 -16.5 55.5q0 38 16.5 54.5t54.5 16.5q39 0 55.5 -16.5t16.5 -54.5
q0 -39 -16.5 -55.5t-55.5 -16.5q-38 0 -54.5 16.5z" />
    <glyph glyph-name="Egrave" unicode="&#xc8;" horiz-adv-x="806" 
d="M217 148q0 -24 8 -32t32 -8h453v-108h-507q-50 0 -74.5 24t-24.5 75v802q0 50 24 74.5t75 24.5h507v-108h-453q-24 0 -32 -8t-8 -32v-291h472v-100h-472v-313zM298 1300h113l61 -211h-113z" />
    <glyph glyph-name="Emacron" unicode="&#x112;" horiz-adv-x="806" 
d="M217 148q0 -24 8 -32t32 -8h453v-108h-507q-50 0 -74.5 24t-24.5 75v802q0 50 24 74.5t75 24.5h507v-108h-453q-24 0 -32 -8t-8 -32v-291h472v-100h-472v-313zM249 1208h334v-100h-334v100z" />
    <glyph glyph-name="Eogonek" unicode="&#x118;" horiz-adv-x="806" 
d="M735 -210l-1 -86h-45q-101 0 -144 27t-43 96q0 41 19 65t54 47q25 18 36.5 30.5t11.5 29.5v1h-412q-50 0 -74.5 24t-24.5 75v802q0 50 24 74.5t75 24.5h507v-108h-453q-24 0 -32 -8t-8 -32v-291h472v-100h-472v-313q0 -24 8 -32t32 -8h453v-128q0 -27 -15 -43t-44 -34
q-26 -17 -38.5 -30t-12.5 -32q0 -27 19.5 -39t62.5 -12h45z" />
    <glyph glyph-name="F" unicode="F" horiz-adv-x="790" 
d="M225 0h-113v901q0 50 24 74.5t75 24.5h491v-108h-437q-24 0 -32 -8t-8 -32v-295h457v-104h-457v-453z" />
    <glyph glyph-name="G" unicode="G" horiz-adv-x="852" 
d="M210 31.5q-65 31.5 -94 102t-29 194.5v344q0 127 30.5 197.5t101 100.5t197.5 30h310v-108h-309q-88 0 -134 -18.5t-64.5 -65t-18.5 -136.5v-344q0 -90 20 -136.5t68.5 -65t142.5 -18.5q91 0 139.5 15.5t68 51.5t19.5 103v152q0 24 -8 32t-32 8h-194v106h248
q50 0 74.5 -24t24.5 -75v-199q0 -105 -28 -165t-91.5 -86.5t-173.5 -26.5h-89q-114 0 -179 31.5z" />
    <glyph glyph-name="uni0122" unicode="&#x122;" horiz-adv-x="852" 
d="M202 31.5q-65 31.5 -94 102t-29 194.5v344q0 127 30.5 197.5t101 100.5t197.5 30h310v-108h-309q-88 0 -134 -18.5t-64.5 -65t-18.5 -136.5v-344q0 -90 20 -136.5t68.5 -65t142.5 -18.5q91 0 139.5 15.5t68 51.5t19.5 103v152q0 24 -8 32t-32 8h-194v106h248
q50 0 74.5 -24t24.5 -75v-199q0 -105 -28 -165t-91.5 -86.5t-173.5 -26.5h-89q-114 0 -179 31.5zM494 -73.5q14 -13.5 15 -54.5q-1 -63 -42 -114l-112 -138l-38 30l102 137q-32 12 -42 28.5t-10 51.5q0 43 14.5 58t56.5 15t56 -13.5zM509 -135v7v5v-12z" />
    <glyph glyph-name="H" unicode="H" horiz-adv-x="920" 
d="M696 465h-471v-465h-113v1000h113v-426h471v426h113v-1000h-113v465z" />
    <glyph glyph-name="I" unicode="I" 
d="M225 1000v-1000h-113v1000h113z" />
    <glyph glyph-name="Iacute" unicode="&#xcd;" 
d="M217 1000v-1000h-113v1000h113zM103 1089l61 211h113l-61 -211h-113z" />
    <glyph glyph-name="Icircumflex" unicode="&#xce;" 
d="M217 1000v-1000h-113v1000h113zM244 1076l-84 154l-84 -154h-116l105 180q12 26 31.5 35t63.5 9q45 0 65 -9t32 -36l103 -179h-116z" />
    <glyph glyph-name="Idieresis" unicode="&#xcf;" 
d="M217 1000v-1000h-113v1000h113zM-32.5 1173.5q-16.5 16.5 -16.5 54.5q0 39 16.5 55.5t55.5 16.5q38 0 54.5 -16.5t16.5 -55.5q0 -38 -16.5 -54.5t-54.5 -16.5q-39 0 -55.5 16.5zM241.5 1174q-16.5 17 -16.5 54q0 39 16.5 55.5t54.5 16.5q39 0 55.5 -16.5t16.5 -55.5
q0 -38 -16.5 -54.5t-55.5 -16.5q-38 0 -54.5 17z" />
    <glyph glyph-name="Idotaccent" unicode="&#x130;" 
d="M217 1000v-1000h-113v1000h113zM105.5 1186.5q-16.5 16.5 -16.5 55.5q0 38 16.5 54.5t54.5 16.5q39 0 55.5 -16.5t16.5 -54.5q0 -39 -16.5 -55.5t-55.5 -16.5q-38 0 -54.5 16.5z" />
    <glyph glyph-name="Igrave" unicode="&#xcc;" 
d="M217 1000v-1000h-113v1000h113zM43 1300h113l61 -211h-113z" />
    <glyph glyph-name="Imacron" unicode="&#x12a;" 
d="M217 1000v-1000h-113v1000h113zM-6 1208h334v-100h-334v100z" />
    <glyph glyph-name="Iogonek" unicode="&#x12e;" 
d="M261 -204v-93h-49q-98 0 -141 28.5t-43 99.5q0 42 16.5 66t47.5 49q22 18 31.5 30t9.5 30v994h113v-1011q0 -27 -14.5 -43t-44.5 -36q-26 -17 -38.5 -30t-12.5 -32q0 -27 23 -39.5t74 -12.5h28z" />
    <glyph glyph-name="J" unicode="J" horiz-adv-x="836" 
d="M220.5 23.5q-63.5 28.5 -98.5 105.5t-35 218h113q0 -92 19 -145t64 -76.5t124 -23.5q82 0 126 26.5t61 80.5t17 147v500q0 24 -8 32t-32 8h-404v104h458q50 0 74.5 -24t24.5 -75v-545q0 -118 -25.5 -196.5t-90 -121.5t-178.5 -43h-47q-99 0 -162.5 28.5z" />
    <glyph glyph-name="K" unicode="K" horiz-adv-x="843" 
d="M225 1000v-427h95q23 0 35 6t25 25l276 396h129l-311 -448q-9 -12 -14 -22t-5 -16t5 -14.5t13 -19.5l362 -480h-139l-320 426q-13 18 -25.5 24t-35.5 6h-90v-456h-113v1000h113z" />
    <glyph glyph-name="uni0136" unicode="&#x136;" horiz-adv-x="843" 
d="M217 1000v-427h95q23 0 35 6t25 25l276 396h129l-311 -448q-9 -12 -14 -22t-5 -16t5 -14.5t13 -19.5l362 -480h-139l-320 426q-13 18 -25.5 24t-35.5 6h-90v-456h-113v1000h113zM493 -73.5q14 -13.5 15 -54.5q-1 -63 -42 -114l-112 -138l-38 30l102 137q-32 12 -42 28.5
t-10 51.5q0 43 14.5 58t56.5 15t56 -13.5zM508 -135v7v5v-12z" />
    <glyph glyph-name="L" unicode="L" horiz-adv-x="763" 
d="M136.5 24q-24.5 24 -24.5 75v901h113v-852q0 -24 8 -32t32 -8h432v-108h-486q-50 0 -74.5 24z" />
    <glyph glyph-name="Lacute" unicode="&#x139;" horiz-adv-x="763" 
d="M128.5 24q-24.5 24 -24.5 75v901h113v-852q0 -24 8 -32t32 -8h432v-108h-486q-50 0 -74.5 24zM107 1089l61 211h113l-61 -211h-113z" />
    <glyph glyph-name="Lcaron" unicode="&#x13d;" horiz-adv-x="763" 
d="M128.5 24q-24.5 24 -24.5 75v901h113v-852q0 -24 8 -32t32 -8h432v-108h-486q-50 0 -74.5 24zM261 1121q-12 -27 -32 -36t-65 -9q-44 0 -63.5 9t-31.5 35l-105 180h116l84 -154l84 154h116z" />
    <glyph glyph-name="uni013B" unicode="&#x13b;" horiz-adv-x="763" 
d="M128.5 24q-24.5 24 -24.5 75v901h113v-852q0 -24 8 -32t32 -8h432v-108h-486q-50 0 -74.5 24zM448 -73.5q14 -13.5 15 -54.5q-1 -63 -42 -114l-112 -138l-38 30l102 137q-32 12 -42 28.5t-10 51.5q0 43 14.5 58t56.5 15t56 -13.5zM463 -135v7v5v-12z" />
    <glyph glyph-name="Lslash" unicode="&#x141;" horiz-adv-x="763" 
d="M697 108v-108h-486q-50 0 -74.5 24t-24.5 75v334l-107 -26v117l107 26v450h113v-435l113 27v-116l-113 -27v-301q0 -24 8 -32t32 -8h432z" />
    <glyph glyph-name="M" unicode="M" horiz-adv-x="1252" 
d="M112 894q0 109 109 109q55 0 83 -24t51 -72l259 -522q6 -12 12 -12t13 12l258 522q23 49 51 72.5t83 23.5q110 0 110 -109v-894h-113v869q0 14 -11 14q-5 0 -8 -3t-6 -10l-260 -525q-23 -49 -49 -71t-70 -22q-43 0 -68 22t-49 71l-257 524q-3 7 -6 10.5t-8 3.5
q-11 0 -11 -14v-869h-113v894z" />
    <glyph glyph-name="N" unicode="N" horiz-adv-x="1010" 
d="M711 17q-29 22 -60 78l-399 780q-4 9 -8 13t-9 4q-6 0 -8 -4t-2 -14v-874h-113v874q0 73 25 101.5t88 28.5q47 0 78 -23t59 -81l397 -774q4 -9 7.5 -13t8.5 -4q6 0 8 4.5t2 13.5v873h114v-873q0 -73 -26 -102.5t-90 -29.5q-43 0 -72 22z" />
    <glyph glyph-name="Nacute" unicode="&#x143;" horiz-adv-x="1010" 
d="M703 17q-29 22 -60 78l-399 780q-4 9 -8 13t-9 4q-6 0 -8 -4t-2 -14v-874h-113v874q0 73 25 101.5t88 28.5q47 0 78 -23t59 -81l397 -774q4 -9 7.5 -13t8.5 -4q6 0 8 4.5t2 13.5v873h114v-873q0 -73 -26 -102.5t-90 -29.5q-43 0 -72 22zM441 1089l61 211h113l-61 -211
h-113z" />
    <glyph glyph-name="Ncaron" unicode="&#x147;" horiz-adv-x="1010" 
d="M703 17q-29 22 -60 78l-399 780q-4 9 -8 13t-9 4q-6 0 -8 -4t-2 -14v-874h-113v874q0 73 25 101.5t88 28.5q47 0 78 -23t59 -81l397 -774q4 -9 7.5 -13t8.5 -4q6 0 8 4.5t2 13.5v873h114v-873q0 -73 -26 -102.5t-90 -29.5q-43 0 -72 22zM596 1121q-12 -27 -32 -36t-65 -9
q-44 0 -63.5 9t-31.5 35l-105 180h116l84 -154l84 154h116z" />
    <glyph glyph-name="uni0145" unicode="&#x145;" horiz-adv-x="1010" 
d="M703 17q-29 22 -60 78l-399 780q-4 9 -8 13t-9 4q-6 0 -8 -4t-2 -14v-874h-113v874q0 73 25 101.5t88 28.5q47 0 78 -23t59 -81l397 -774q4 -9 7.5 -13t8.5 -4q6 0 8 4.5t2 13.5v873h114v-873q0 -73 -26 -102.5t-90 -29.5q-43 0 -72 22zM571 -73.5q14 -13.5 15 -54.5
q-1 -63 -42 -114l-112 -138l-38 30l102 137q-32 12 -42 28.5t-10 51.5q0 43 14.5 58t56.5 15t56 -13.5zM586 -135v7v5v-12z" />
    <glyph glyph-name="Eng" unicode="&#x14a;" horiz-adv-x="1010" 
d="M703 17q-29 22 -60 78l-399 780q-4 9 -8 13t-9 4q-6 0 -8 -4t-2 -14v-874h-113v874q0 73 25 101.5t88 28.5q47 0 78 -23t59 -81l397 -774q4 -9 7.5 -13t8.5 -4q6 0 8 4.5t2 13.5v873h114v-873q0 -73 -26 -102.5t-90 -29.5q-43 0 -72 22zM571 -73.5q14 -13.5 15 -54.5
q-1 -63 -42 -114l-112 -138l-38 30l102 137q-32 12 -42 28.5t-10 51.5q0 43 14.5 58t56.5 15t56 -13.5zM586 -135v7v5v-12z" />
    <glyph glyph-name="Ntilde" unicode="&#xd1;" horiz-adv-x="1010" 
d="M703 17q-29 22 -60 78l-399 780q-4 9 -8 13t-9 4q-6 0 -8 -4t-2 -14v-874h-113v874q0 73 25 101.5t88 28.5q47 0 78 -23t59 -81l397 -774q4 -9 7.5 -13t8.5 -4q6 0 8 4.5t2 13.5v873h114v-873q0 -73 -26 -102.5t-90 -29.5q-43 0 -72 22zM533 1125q-31 21 -65 60
q-25 29 -43 42.5t-43 13.5q-27 0 -44.5 -18t-17.5 -54v-61h-84v72q0 59 35 99.5t112 40.5q40 0 69.5 -12.5t48 -30t40.5 -44.5q21 -26 36 -38t35 -12q28 0 44.5 15.5t16.5 48.5v69h87v-81q0 -55 -34.5 -93t-110.5 -38q-51 0 -82 21z" />
    <glyph glyph-name="O" unicode="O" horiz-adv-x="878" 
d="M227 29.5q-72 34.5 -106 109t-34 195.5v332q0 121 34 195.5t106 109t189 34.5h47q117 0 189 -34.5t106 -109t34 -195.5v-332q0 -121 -34 -195.5t-106 -109t-189 -34.5h-47q-117 0 -189 34.5zM581.5 124q51.5 22 74.5 72t23 138v332q0 88 -23 138t-74.5 72t-141.5 22
q-91 0 -142.5 -22t-74.5 -72t-23 -138v-332q0 -88 23 -138t74.5 -72t142.5 -22q90 0 141.5 22z" />
    <glyph glyph-name="Oacute" unicode="&#xd3;" horiz-adv-x="878" 
d="M219 29.5q-72 34.5 -106 109t-34 195.5v332q0 121 34 195.5t106 109t189 34.5h47q117 0 189 -34.5t106 -109t34 -195.5v-332q0 -121 -34 -195.5t-106 -109t-189 -34.5h-47q-117 0 -189 34.5zM573.5 124q51.5 22 74.5 72t23 138v332q0 88 -23 138t-74.5 72t-141.5 22
q-91 0 -142.5 -22t-74.5 -72t-23 -138v-332q0 -88 23 -138t74.5 -72t142.5 -22q90 0 141.5 22zM374 1089l61 211h113l-61 -211h-113z" />
    <glyph glyph-name="Ocircumflex" unicode="&#xd4;" horiz-adv-x="878" 
d="M219 29.5q-72 34.5 -106 109t-34 195.5v332q0 121 34 195.5t106 109t189 34.5h47q117 0 189 -34.5t106 -109t34 -195.5v-332q0 -121 -34 -195.5t-106 -109t-189 -34.5h-47q-117 0 -189 34.5zM573.5 124q51.5 22 74.5 72t23 138v332q0 88 -23 138t-74.5 72t-141.5 22
q-91 0 -142.5 -22t-74.5 -72t-23 -138v-332q0 -88 23 -138t74.5 -72t142.5 -22q90 0 141.5 22zM516 1076l-84 154l-84 -154h-116l105 180q12 26 31.5 35t63.5 9q45 0 65 -9t32 -36l103 -179h-116z" />
    <glyph glyph-name="Odieresis" unicode="&#xd6;" horiz-adv-x="878" 
d="M219 29.5q-72 34.5 -106 109t-34 195.5v332q0 121 34 195.5t106 109t189 34.5h47q117 0 189 -34.5t106 -109t34 -195.5v-332q0 -121 -34 -195.5t-106 -109t-189 -34.5h-47q-117 0 -189 34.5zM573.5 124q51.5 22 74.5 72t23 138v332q0 88 -23 138t-74.5 72t-141.5 22
q-91 0 -142.5 -22t-74.5 -72t-23 -138v-332q0 -88 23 -138t74.5 -72t142.5 -22q90 0 141.5 22zM238.5 1173.5q-16.5 16.5 -16.5 54.5q0 39 16.5 55.5t55.5 16.5q38 0 54.5 -16.5t16.5 -55.5q0 -38 -16.5 -54.5t-54.5 -16.5q-39 0 -55.5 16.5zM512.5 1174q-16.5 17 -16.5 54
q0 39 16.5 55.5t54.5 16.5q39 0 55.5 -16.5t16.5 -55.5q0 -38 -16.5 -54.5t-55.5 -16.5q-38 0 -54.5 17z" />
    <glyph glyph-name="Ograve" unicode="&#xd2;" horiz-adv-x="878" 
d="M219 29.5q-72 34.5 -106 109t-34 195.5v332q0 121 34 195.5t106 109t189 34.5h47q117 0 189 -34.5t106 -109t34 -195.5v-332q0 -121 -34 -195.5t-106 -109t-189 -34.5h-47q-117 0 -189 34.5zM573.5 124q51.5 22 74.5 72t23 138v332q0 88 -23 138t-74.5 72t-141.5 22
q-91 0 -142.5 -22t-74.5 -72t-23 -138v-332q0 -88 23 -138t74.5 -72t142.5 -22q90 0 141.5 22zM314 1300h113l61 -211h-113z" />
    <glyph glyph-name="Ohungarumlaut" unicode="&#x150;" horiz-adv-x="878" 
d="M219 29.5q-72 34.5 -106 109t-34 195.5v332q0 121 34 195.5t106 109t189 34.5h47q117 0 189 -34.5t106 -109t34 -195.5v-332q0 -121 -34 -195.5t-106 -109t-189 -34.5h-47q-117 0 -189 34.5zM573.5 124q51.5 22 74.5 72t23 138v332q0 88 -23 138t-74.5 72t-141.5 22
q-91 0 -142.5 -22t-74.5 -72t-23 -138v-332q0 -88 23 -138t74.5 -72t142.5 -22q90 0 141.5 22zM239 1110l44 190h113l-44 -190h-113zM475 1110l44 190h114l-45 -190h-113z" />
    <glyph glyph-name="Omacron" unicode="&#x14c;" horiz-adv-x="878" 
d="M219 29.5q-72 34.5 -106 109t-34 195.5v332q0 121 34 195.5t106 109t189 34.5h47q117 0 189 -34.5t106 -109t34 -195.5v-332q0 -121 -34 -195.5t-106 -109t-189 -34.5h-47q-117 0 -189 34.5zM573.5 124q51.5 22 74.5 72t23 138v332q0 88 -23 138t-74.5 72t-141.5 22
q-91 0 -142.5 -22t-74.5 -72t-23 -138v-332q0 -88 23 -138t74.5 -72t142.5 -22q90 0 141.5 22zM265 1208h334v-100h-334v100z" />
    <glyph glyph-name="Oslash" unicode="&#xd8;" horiz-adv-x="878" 
d="M722 917.5q70 -79.5 70 -251.5v-332q0 -172 -70 -251.5t-226 -86.5v-146h-113v146q-105 5 -170 41t-95.5 109t-30.5 188v332q0 115 30.5 188t95.5 109t170 41v151h113v-151q156 -7 226 -86.5zM679 666q0 88 -23 138t-74.5 72t-141.5 22q-91 0 -142.5 -22t-74.5 -72
t-23 -138v-332q0 -88 23 -138t74.5 -72t142.5 -22q90 0 141.5 22t74.5 72t23 138v332z" />
    <glyph glyph-name="Otilde" unicode="&#xd5;" horiz-adv-x="878" 
d="M219 29.5q-72 34.5 -106 109t-34 195.5v332q0 121 34 195.5t106 109t189 34.5h47q117 0 189 -34.5t106 -109t34 -195.5v-332q0 -121 -34 -195.5t-106 -109t-189 -34.5h-47q-117 0 -189 34.5zM573.5 124q51.5 22 74.5 72t23 138v332q0 88 -23 138t-74.5 72t-141.5 22
q-91 0 -142.5 -22t-74.5 -72t-23 -138v-332q0 -88 23 -138t74.5 -72t142.5 -22q90 0 141.5 22zM466 1125q-31 21 -65 60q-25 29 -43 42.5t-43 13.5q-27 0 -44.5 -18t-17.5 -54v-61h-84v72q0 59 35 99.5t112 40.5q40 0 69.5 -12.5t48 -30t40.5 -44.5q21 -26 36 -38t35 -12
q28 0 44.5 15.5t16.5 48.5v69h87v-81q0 -55 -34.5 -93t-110.5 -38q-51 0 -82 21z" />
    <glyph glyph-name="OE" unicode="&#x152;" horiz-adv-x="1350" 
d="M791 884q-8 -8 -8 -32v-291h458v-100h-458v-313q0 -24 8 -32t32 -8h439v-108h-493q-10 0 -26 2q-30 -2 -59 -2h-248q-132 0 -207.5 31.5t-108.5 102.5t-33 195v342q0 124 33 195t108.5 102.5t207.5 31.5h826v-108h-439q-24 0 -32 -8zM668 116q2 8 2 31v736q0 5 -8 7
t-31 2h-195q-89 0 -140 -21.5t-73.5 -69t-22.5 -130.5v-342q0 -83 22.5 -130.5t73.5 -69t140 -21.5h225q5 0 7 8z" />
    <glyph glyph-name="P" unicode="P" horiz-adv-x="812" 
d="M136 975.5q24 24.5 75 24.5h228q118 0 184 -25t94.5 -81t28.5 -155v-102q0 -99 -28.5 -155.5t-94.5 -82t-184 -25.5h-214v-374h-113v901q0 50 24 74.5zM560 497q41 14 57 47t16 98v91q0 64 -16 97.5t-57.5 47.5t-120.5 14h-174q-24 0 -32 -8t-8 -32v-369h214q80 0 121 14
z" />
    <glyph glyph-name="Thorn" unicode="&#xde;" horiz-adv-x="808" 
d="M613.5 795q67.5 -26 98 -84t30.5 -160v-100q0 -102 -30.5 -160.5t-98 -84.5t-183.5 -26h-205v-180h-113v1000h113v-179h205q116 0 183.5 -26zM629 551q0 66 -18 100t-60 48t-121 14h-205v-425h205q79 0 121 14t60 48.5t18 100.5v100z" />
    <glyph glyph-name="Q" unicode="Q" horiz-adv-x="878" 
d="M652 970.5q72 -34.5 106 -109t34 -195.5v-332q0 -121 -34 -195.5t-106 -109t-189 -34.5h-47q-117 0 -189 34.5t-106 109t-34 195.5v332q0 121 34 195.5t106 109t189 34.5h47q117 0 189 -34.5zM679 666q0 88 -23 138t-74.5 72t-141.5 22q-91 0 -142.5 -22t-74.5 -72
t-23 -138v-332q0 -79 18.5 -127t60 -72.5t112.5 -30.5v287h96v-287q72 5 113.5 29.5t60 72.5t18.5 128v332z" />
    <glyph glyph-name="R" unicode="R" horiz-adv-x="843" 
d="M136 975.5q24 24.5 75 24.5h245q111 0 176 -26t94.5 -84t29.5 -157v-96q0 -112 -49.5 -167.5t-163.5 -72.5l261 -397h-128l-304 478h62q81 0 126 14.5t64 48.5t19 96v96q0 62 -18 96t-61 48.5t-122 14.5h-177q-24 0 -32 -8t-8 -32v-852h-113v901q0 50 24 74.5z" />
    <glyph glyph-name="Racute" unicode="&#x154;" horiz-adv-x="843" 
d="M128 975.5q24 24.5 75 24.5h245q111 0 176 -26t94.5 -84t29.5 -157v-96q0 -112 -49.5 -167.5t-163.5 -72.5l261 -397h-128l-304 478h62q81 0 126 14.5t64 48.5t19 96v96q0 62 -18 96t-61 48.5t-122 14.5h-177q-24 0 -32 -8t-8 -32v-852h-113v901q0 50 24 74.5zM357 1089
l61 211h113l-61 -211h-113z" />
    <glyph glyph-name="Rcaron" unicode="&#x158;" horiz-adv-x="843" 
d="M128 975.5q24 24.5 75 24.5h245q111 0 176 -26t94.5 -84t29.5 -157v-96q0 -112 -49.5 -167.5t-163.5 -72.5l261 -397h-128l-304 478h62q81 0 126 14.5t64 48.5t19 96v96q0 62 -18 96t-61 48.5t-122 14.5h-177q-24 0 -32 -8t-8 -32v-852h-113v901q0 50 24 74.5zM512 1121
q-12 -27 -32 -36t-65 -9q-44 0 -63.5 9t-31.5 35l-105 180h116l84 -154l84 154h116z" />
    <glyph glyph-name="uni0156" unicode="&#x156;" horiz-adv-x="843" 
d="M128 975.5q24 24.5 75 24.5h245q111 0 176 -26t94.5 -84t29.5 -157v-96q0 -112 -49.5 -167.5t-163.5 -72.5l261 -397h-128l-304 478h62q81 0 126 14.5t64 48.5t19 96v96q0 62 -18 96t-61 48.5t-122 14.5h-177q-24 0 -32 -8t-8 -32v-852h-113v901q0 50 24 74.5zM491 -73.5
q14 -13.5 15 -54.5q-1 -63 -42 -114l-112 -138l-38 30l102 137q-32 12 -42 28.5t-10 51.5q0 43 14.5 58t56.5 15t56 -13.5zM506 -135v7v5v-12z" />
    <glyph glyph-name="S" unicode="S" horiz-adv-x="838" 
d="M203 20.5q-61 22.5 -86 76.5t-25 154v44h113v-39q0 -66 16 -97t59 -42.5t135 -11.5q95 0 140 12t61 42.5t16 93.5q0 68 -15 99t-63.5 53t-167.5 53q-124 33 -183.5 62.5t-85 82t-25.5 151.5q0 97 25 149.5t86.5 75.5t175.5 23h82q112 0 172 -21.5t85 -73.5t25 -149v-53
h-113v42q0 64 -16 94.5t-59 42t-133 11.5q-93 0 -138.5 -12t-62 -41.5t-16.5 -89.5q0 -67 15 -98t63 -52t165 -50q125 -32 184 -60.5t86 -82t27 -156.5q0 -100 -25 -154t-86.5 -77.5t-177.5 -23.5h-78q-114 0 -175 22.5z" />
    <glyph glyph-name="Sacute" unicode="&#x15a;" horiz-adv-x="776" 
d="M195 20.5q-61 22.5 -86 76.5t-25 154v44h113v-39q0 -66 16 -97t59 -42.5t135 -11.5q95 0 140 12t61 42.5t16 93.5q0 68 -15 99t-63.5 53t-167.5 53q-124 33 -183.5 62.5t-85 82t-25.5 151.5q0 97 25 149.5t86.5 75.5t175.5 23h82q112 0 172 -21.5t85 -73.5t25 -149v-53
h-113v42q0 64 -16 94.5t-59 42t-133 11.5q-93 0 -138.5 -12t-62 -41.5t-16.5 -89.5q0 -67 15 -98t63 -52t165 -50q125 -32 184 -60.5t86 -82t27 -156.5q0 -100 -25 -154t-86.5 -77.5t-177.5 -23.5h-78q-114 0 -175 22.5zM323 1089l61 211h113l-61 -211h-113z" />
    <glyph glyph-name="Scaron" unicode="&#x160;" horiz-adv-x="776" 
d="M195 20.5q-61 22.5 -86 76.5t-25 154v44h113v-39q0 -66 16 -97t59 -42.5t135 -11.5q95 0 140 12t61 42.5t16 93.5q0 68 -15 99t-63.5 53t-167.5 53q-124 33 -183.5 62.5t-85 82t-25.5 151.5q0 97 25 149.5t86.5 75.5t175.5 23h82q112 0 172 -21.5t85 -73.5t25 -149v-53
h-113v42q0 64 -16 94.5t-59 42t-133 11.5q-93 0 -138.5 -12t-62 -41.5t-16.5 -89.5q0 -67 15 -98t63 -52t165 -50q125 -32 184 -60.5t86 -82t27 -156.5q0 -100 -25 -154t-86.5 -77.5t-177.5 -23.5h-78q-114 0 -175 22.5zM478 1121q-12 -27 -32 -36t-65 -9q-44 0 -63.5 9
t-31.5 35l-105 180h116l84 -154l84 154h116z" />
    <glyph glyph-name="Scedilla" unicode="&#x15e;" horiz-adv-x="776" 
d="M679.5 97.5q-25.5 -50.5 -82 -73t-151.5 -24.5v-163h-116v163h-235v108h317q71 0 109.5 12t54.5 40t16 78q0 45 -10.5 74t-38.5 51.5t-84 46.5l-185 78q-85 36 -127.5 69t-59.5 79t-17 123q0 92 28.5 144.5t90 74.5t166.5 22h326v-108h-313q-73 0 -112.5 -13t-56 -42
t-16.5 -82q0 -44 10.5 -71.5t38 -49.5t82.5 -45l183 -77q87 -36 130.5 -70.5t60.5 -81t17 -125.5q0 -87 -25.5 -137.5z" />
    <glyph glyph-name="T" unicode="T" horiz-adv-x="800" 
d="M344 892h-300v108h711v-108h-298v-892h-113v892z" />
    <glyph glyph-name="Tbar" unicode="&#x166;" horiz-adv-x="800" 
d="M457 892v-429h219v-104h-219v-359h-113v359h-222v104h222v429h-300v108h711v-108h-298z" />
    <glyph glyph-name="Tcaron" unicode="&#x164;" horiz-adv-x="800" 
d="M336 892h-300v108h711v-108h-298v-892h-113v892zM490 1121q-12 -27 -32 -36t-65 -9q-44 0 -63.5 9t-31.5 35l-105 180h116l84 -154l84 154h116z" />
    <glyph glyph-name="uni0162" unicode="&#x162;" horiz-adv-x="800" 
d="M457 892v-860h1v-195h-116v195h2v860h-300v108h711v-108h-298z" />
    <glyph glyph-name="U" unicode="U" horiz-adv-x="900" 
d="M181.5 73q-69.5 73 -69.5 231v696h116v-696q0 -82 18.5 -123t65.5 -57t140 -16q92 0 138 16t64 57t18 123v696h117v-696q0 -158 -70 -231t-220 -73h-98q-150 0 -219.5 73z" />
    <glyph glyph-name="Uacute" unicode="&#xda;" horiz-adv-x="900" 
d="M173.5 73q-69.5 73 -69.5 231v696h116v-696q0 -82 18.5 -123t65.5 -57t140 -16q92 0 138 16t64 57t18 123v696h117v-696q0 -158 -70 -231t-220 -73h-98q-150 0 -219.5 73zM386 1089l61 211h113l-61 -211h-113z" />
    <glyph glyph-name="Ucircumflex" unicode="&#xdb;" horiz-adv-x="900" 
d="M173.5 73q-69.5 73 -69.5 231v696h116v-696q0 -82 18.5 -123t65.5 -57t140 -16q92 0 138 16t64 57t18 123v696h117v-696q0 -158 -70 -231t-220 -73h-98q-150 0 -219.5 73zM528 1076l-84 154l-84 -154h-116l105 180q12 26 31.5 35t63.5 9q45 0 65 -9t32 -36l103 -179h-116
z" />
    <glyph glyph-name="Udieresis" unicode="&#xdc;" horiz-adv-x="900" 
d="M173.5 73q-69.5 73 -69.5 231v696h116v-696q0 -82 18.5 -123t65.5 -57t140 -16q92 0 138 16t64 57t18 123v696h117v-696q0 -158 -70 -231t-220 -73h-98q-150 0 -219.5 73zM250.5 1173.5q-16.5 16.5 -16.5 54.5q0 39 16.5 55.5t55.5 16.5q38 0 54.5 -16.5t16.5 -55.5
q0 -38 -16.5 -54.5t-54.5 -16.5q-39 0 -55.5 16.5zM524.5 1174q-16.5 17 -16.5 54q0 39 16.5 55.5t54.5 16.5q39 0 55.5 -16.5t16.5 -55.5q0 -38 -16.5 -54.5t-55.5 -16.5q-38 0 -54.5 17z" />
    <glyph glyph-name="Ugrave" unicode="&#xd9;" horiz-adv-x="900" 
d="M173.5 73q-69.5 73 -69.5 231v696h116v-696q0 -82 18.5 -123t65.5 -57t140 -16q92 0 138 16t64 57t18 123v696h117v-696q0 -158 -70 -231t-220 -73h-98q-150 0 -219.5 73zM326 1300h113l61 -211h-113z" />
    <glyph glyph-name="Uhungarumlaut" unicode="&#x170;" horiz-adv-x="900" 
d="M173.5 73q-69.5 73 -69.5 231v696h116v-696q0 -82 18.5 -123t65.5 -57t140 -16q92 0 138 16t64 57t18 123v696h117v-696q0 -158 -70 -231t-220 -73h-98q-150 0 -219.5 73zM251 1110l44 190h113l-44 -190h-113zM487 1110l44 190h114l-45 -190h-113z" />
    <glyph glyph-name="Umacron" unicode="&#x16a;" horiz-adv-x="900" 
d="M173.5 73q-69.5 73 -69.5 231v696h116v-696q0 -82 18.5 -123t65.5 -57t140 -16q92 0 138 16t64 57t18 123v696h117v-696q0 -158 -70 -231t-220 -73h-98q-150 0 -219.5 73zM277 1208h334v-100h-334v100z" />
    <glyph glyph-name="Uogonek" unicode="&#x172;" horiz-adv-x="900" 
d="M789 1000v-696q0 -112 -34.5 -180.5t-106.5 -98.5q-31 -18 -87 -45q-41 -19 -62.5 -32t-35.5 -31t-14 -44q0 -39 26.5 -56t81.5 -17h25v-92h-56q-98 0 -141 32t-43 111q0 55 28 87.5t84 61.5h-53q-150 0 -219.5 73t-69.5 231v696h116v-696q0 -82 18.5 -123t65.5 -57
t140 -16q92 0 138 16t64 57t18 123v696h117z" />
    <glyph glyph-name="Uring" unicode="&#x16e;" horiz-adv-x="900" 
d="M173.5 73q-69.5 73 -69.5 231v696h116v-696q0 -82 18.5 -123t65.5 -57t140 -16q92 0 138 16t64 57t18 123v696h117v-696q0 -158 -70 -231t-220 -73h-98q-150 0 -219.5 73zM332 1111q-36 36 -36 110q0 75 36 111.5t110 36.5q75 0 111.5 -36.5t36.5 -111.5
q0 -74 -36.5 -110t-111.5 -36q-74 0 -110 36zM516 1221q0 75 -73 75q-38 0 -56 -18.5t-18 -56.5q0 -75 74 -75q73 0 73 75z" />
    <glyph glyph-name="V" unicode="V" horiz-adv-x="903" 
d="M145 1000l295 -875q3 -10 12 -10t12 10l295 875h120l-306 -902q-14 -54 -42 -77t-79 -23q-53 0 -81.5 24.5t-41.5 74.5l-306 903h122z" />
    <glyph glyph-name="W" unicode="W" horiz-adv-x="1458" 
d="M287.5 21q-28.5 26 -42.5 91l-192 888h122l189 -879q2 -12 11 -12t12 12l220 785q15 55 42 77.5t80 22.5t80 -22t42 -77l220 -786q3 -12 12 -12q10 0 11 12l188 879h122l-191 -888q-14 -65 -43 -91t-88 -26q-53 0 -80 22t-42 77l-220 787q-1 11 -11 11q-8 0 -11 -11
l-222 -786q-14 -55 -41 -77.5t-80 -22.5q-59 0 -87.5 26z" />
    <glyph glyph-name="Wacute" unicode="&#x1e82;" horiz-adv-x="1458" 
d="M279.5 21q-28.5 26 -42.5 91l-192 888h122l189 -879q2 -12 11 -12t12 12l220 785q15 55 42 77.5t80 22.5t80 -22t42 -77l220 -786q3 -12 12 -12q10 0 11 12l188 879h122l-191 -888q-14 -65 -43 -91t-88 -26q-53 0 -80 22t-42 77l-220 787q-1 11 -11 11q-8 0 -11 -11
l-222 -786q-14 -55 -41 -77.5t-80 -22.5q-59 0 -87.5 26zM664 1089l61 211h113l-61 -211h-113z" />
    <glyph glyph-name="Wcircumflex" unicode="&#x174;" horiz-adv-x="1458" 
d="M279.5 21q-28.5 26 -42.5 91l-192 888h122l189 -879q2 -12 11 -12t12 12l220 785q15 55 42 77.5t80 22.5t80 -22t42 -77l220 -786q3 -12 12 -12q10 0 11 12l188 879h122l-191 -888q-14 -65 -43 -91t-88 -26q-53 0 -80 22t-42 77l-220 787q-1 11 -11 11q-8 0 -11 -11
l-222 -786q-14 -55 -41 -77.5t-80 -22.5q-59 0 -87.5 26zM806 1076l-84 154l-84 -154h-116l105 180q12 26 31.5 35t63.5 9q45 0 65 -9t32 -36l103 -179h-116z" />
    <glyph glyph-name="Wdieresis" unicode="&#x1e84;" horiz-adv-x="1458" 
d="M279.5 21q-28.5 26 -42.5 91l-192 888h122l189 -879q2 -12 11 -12t12 12l220 785q15 55 42 77.5t80 22.5t80 -22t42 -77l220 -786q3 -12 12 -12q10 0 11 12l188 879h122l-191 -888q-14 -65 -43 -91t-88 -26q-53 0 -80 22t-42 77l-220 787q-1 11 -11 11q-8 0 -11 -11
l-222 -786q-14 -55 -41 -77.5t-80 -22.5q-59 0 -87.5 26zM528.5 1173.5q-16.5 16.5 -16.5 54.5q0 39 16.5 55.5t55.5 16.5q38 0 54.5 -16.5t16.5 -55.5q0 -38 -16.5 -54.5t-54.5 -16.5q-39 0 -55.5 16.5zM802.5 1174q-16.5 17 -16.5 54q0 39 16.5 55.5t54.5 16.5
q39 0 55.5 -16.5t16.5 -55.5q0 -38 -16.5 -54.5t-55.5 -16.5q-38 0 -54.5 17z" />
    <glyph glyph-name="Wgrave" unicode="&#x1e80;" horiz-adv-x="1458" 
d="M279.5 21q-28.5 26 -42.5 91l-192 888h122l189 -879q2 -12 11 -12t12 12l220 785q15 55 42 77.5t80 22.5t80 -22t42 -77l220 -786q3 -12 12 -12q10 0 11 12l188 879h122l-191 -888q-14 -65 -43 -91t-88 -26q-53 0 -80 22t-42 77l-220 787q-1 11 -11 11q-8 0 -11 -11
l-222 -786q-14 -55 -41 -77.5t-80 -22.5q-59 0 -87.5 26zM604 1300h113l61 -211h-113z" />
    <glyph glyph-name="X" unicode="X" horiz-adv-x="828" 
d="M301 448q16 27 21 37.5t5 20.5t-5.5 21.5t-20.5 37.5l-268 435h127l253 -411l256 411h125l-268 -436q-16 -27 -21 -37.5t-5 -20.5t5.5 -21t20.5 -37l278 -448h-131l-260 424l-259 -424h-131z" />
    <glyph glyph-name="Y" unicode="Y" horiz-adv-x="836" 
d="M362 346q0 30 -3.5 43t-23.5 50l-312 561h121l274 -490l274 490h121l-314 -561q-18 -35 -21 -48t-3 -45v-346h-113v346z" />
    <glyph glyph-name="Yacute" unicode="&#xdd;" horiz-adv-x="836" 
d="M354 346q0 30 -3.5 43t-23.5 50l-312 561h121l274 -490l274 490h121l-314 -561q-18 -35 -21 -48t-3 -45v-346h-113v346zM353 1089l61 211h113l-61 -211h-113z" />
    <glyph glyph-name="Ycircumflex" unicode="&#x176;" horiz-adv-x="836" 
d="M354 346q0 30 -3.5 43t-23.5 50l-312 561h121l274 -490l274 490h121l-314 -561q-18 -35 -21 -48t-3 -45v-346h-113v346zM495 1076l-84 154l-84 -154h-116l105 180q12 26 31.5 35t63.5 9q45 0 65 -9t32 -36l103 -179h-116z" />
    <glyph glyph-name="Ydieresis" unicode="&#x178;" horiz-adv-x="836" 
d="M354 346q0 30 -3.5 43t-23.5 50l-312 561h121l274 -490l274 490h121l-314 -561q-18 -35 -21 -48t-3 -45v-346h-113v346zM217.5 1173.5q-16.5 16.5 -16.5 54.5q0 39 16.5 55.5t55.5 16.5q38 0 54.5 -16.5t16.5 -55.5q0 -38 -16.5 -54.5t-54.5 -16.5q-39 0 -55.5 16.5z
M491.5 1174q-16.5 17 -16.5 54q0 39 16.5 55.5t54.5 16.5q39 0 55.5 -16.5t16.5 -55.5q0 -38 -16.5 -54.5t-55.5 -16.5q-38 0 -54.5 17z" />
    <glyph glyph-name="Ygrave" unicode="&#x1ef2;" horiz-adv-x="836" 
d="M354 346q0 30 -3.5 43t-23.5 50l-312 561h121l274 -490l274 490h121l-314 -561q-18 -35 -21 -48t-3 -45v-346h-113v346zM293 1300h113l61 -211h-113z" />
    <glyph glyph-name="Z" unicode="Z" horiz-adv-x="851" 
d="M118 6q-23 6 -32 21.5t-9 46.5v29q0 37 23 66l556 698q1 2 6 8t5 10q0 13 -15 13h-564v102h581q44 0 66 -6.5t30.5 -24t8.5 -53.5v-24q0 -37 -23 -66l-556 -693q-2 -3 -6.5 -8t-4.5 -11q0 -12 12 -12h578v-102h-586q-47 0 -70 6z" />
    <glyph glyph-name="Zacute" unicode="&#x179;" horiz-adv-x="851" 
d="M110 6q-23 6 -32 21.5t-9 46.5v29q0 37 23 66l556 698q1 2 6 8t5 10q0 13 -15 13h-564v102h581q44 0 66 -6.5t30.5 -24t8.5 -53.5v-24q0 -37 -23 -66l-556 -693q-2 -3 -6.5 -8t-4.5 -11q0 -12 12 -12h578v-102h-586q-47 0 -70 6zM353 1093l61 211h113l-61 -211h-113z" />
    <glyph glyph-name="Zcaron" unicode="&#x17d;" horiz-adv-x="851" 
d="M110 6q-23 6 -32 21.5t-9 46.5v29q0 37 23 66l556 698q1 2 6 8t5 10q0 13 -15 13h-564v102h581q44 0 66 -6.5t30.5 -24t8.5 -53.5v-24q0 -37 -23 -66l-556 -693q-2 -3 -6.5 -8t-4.5 -11q0 -12 12 -12h578v-102h-586q-47 0 -70 6zM508 1125q-12 -27 -32 -36t-65 -9
q-44 0 -63.5 9t-31.5 35l-105 180h116l84 -154l84 154h116z" />
    <glyph glyph-name="Zdotaccent" unicode="&#x17b;" horiz-adv-x="851" 
d="M110 6q-23 6 -32 21.5t-9 46.5v29q0 37 23 66l556 698q1 2 6 8t5 10q0 13 -15 13h-564v102h581q44 0 66 -6.5t30.5 -24t8.5 -53.5v-24q0 -37 -23 -66l-556 -693q-2 -3 -6.5 -8t-4.5 -11q0 -12 12 -12h578v-102h-586q-47 0 -70 6zM355.5 1190.5q-16.5 16.5 -16.5 55.5
q0 38 16.5 54.5t54.5 16.5q39 0 55.5 -16.5t16.5 -54.5q0 -39 -16.5 -55.5t-55.5 -16.5q-38 0 -54.5 16.5z" />
    <glyph glyph-name="Q.001" horiz-adv-x="878" 
d="M227 29.5q-72 34.5 -106 109t-34 195.5v332q0 121 34 195.5t106 109t189 34.5h47q117 0 189 -34.5t106 -109t34 -195.5v-332q0 -121 -34 -195.5t-106 -109t-189 -34.5h-47q-117 0 -189 34.5zM581.5 124q51.5 22 74.5 72t23 138v332q0 88 -23 138t-74.5 72t-141.5 22
q-91 0 -142.5 -22t-74.5 -72t-23 -138v-332q0 -88 23 -138t74.5 -72t142.5 -22q90 0 141.5 22zM344 -209v96h305v-96h-305z" />
    <glyph glyph-name="C.ss01" horiz-adv-x="854" 
d="M203.5 29.5q-62.5 29.5 -89.5 96t-27 182.5v378q0 119 27 186.5t89.5 97.5t171.5 30h98q110 0 173.5 -25.5t92 -83.5t28.5 -158v-72h-117v72q0 66 -18 99t-65 46.5t-141 13.5q-95 0 -141 -16.5t-64 -59.5t-18 -130v-378q0 -84 18 -126t64.5 -58t140.5 -16t141 13.5
t65 46.5t18 99v72h117v-72q0 -100 -28.5 -158t-92 -83.5t-173.5 -25.5h-98q-109 0 -171.5 29.5z" />
    <glyph glyph-name="Cacute.ss01" horiz-adv-x="854" 
d="M195.5 29.5q-62.5 29.5 -89.5 96t-27 182.5v378q0 119 27 186.5t89.5 97.5t171.5 30h98q110 0 173.5 -25.5t92 -83.5t28.5 -158v-72h-117v72q0 66 -18 99t-65 46.5t-141 13.5q-95 0 -141 -16.5t-64 -59.5t-18 -130v-378q0 -84 18 -126t64.5 -58t140.5 -16t141 13.5
t65 46.5t18 99v72h117v-72q0 -100 -28.5 -158t-92 -83.5t-173.5 -25.5h-98q-109 0 -171.5 29.5zM362 1089l61 211h113l-61 -211h-113z" />
    <glyph glyph-name="Ccaron.ss01" horiz-adv-x="854" 
d="M195.5 29.5q-62.5 29.5 -89.5 96t-27 182.5v378q0 119 27 186.5t89.5 97.5t171.5 30h98q110 0 173.5 -25.5t92 -83.5t28.5 -158v-72h-117v72q0 66 -18 99t-65 46.5t-141 13.5q-95 0 -141 -16.5t-64 -59.5t-18 -130v-378q0 -84 18 -126t64.5 -58t140.5 -16t141 13.5
t65 46.5t18 99v72h117v-72q0 -100 -28.5 -158t-92 -83.5t-173.5 -25.5h-98q-109 0 -171.5 29.5zM517 1121q-12 -27 -32 -36t-65 -9q-44 0 -63.5 9t-31.5 35l-105 180h116l84 -154l84 154h116z" />
    <glyph glyph-name="Ccedilla.ss01" horiz-adv-x="854" 
d="M650 661v72q0 66 -18 99t-65 46.5t-141 13.5q-95 0 -141 -16.5t-64 -59.5t-18 -130v-378q0 -84 18 -126t64.5 -58t140.5 -16t141 13.5t65 46.5t18 99v72h117v-72q0 -98 -27.5 -155.5t-88.5 -83.5t-166 -28v-163h-116v163q-107 1 -168 31t-87.5 96t-26.5 181v378
q0 119 27 186.5t89.5 97.5t171.5 30h98q110 0 173.5 -25.5t92 -83.5t28.5 -158v-72h-117z" />
    <glyph glyph-name="G.ss01" horiz-adv-x="881" 
d="M228.5 33.5q-73.5 33.5 -107.5 105.5t-34 189v344q0 117 34 189t107.5 105.5t193.5 33.5h47q116 0 187.5 -29.5t105 -93.5t33.5 -168v-19h-113v19q0 68 -23 107.5t-75 57.5t-142 18q-92 0 -144 -21t-75 -68.5t-23 -130.5v-344q0 -83 23 -130.5t75 -68.5t144 -21
q90 0 142.5 17t75.5 54t23 99v137q0 24 -8 32t-32 8h-207v108h260q50 0 74.5 -24t24.5 -75v-186q0 -99 -33.5 -160t-105 -89.5t-187.5 -28.5h-47q-120 0 -193.5 33.5z" />
    <glyph glyph-name="uni0122.ss01" horiz-adv-x="881" 
d="M220.5 33.5q-73.5 33.5 -107.5 105.5t-34 189v344q0 117 34 189t107.5 105.5t193.5 33.5h47q116 0 187.5 -29.5t105 -93.5t33.5 -168v-19h-113v19q0 68 -23 107.5t-75 57.5t-142 18q-92 0 -144 -21t-75 -68.5t-23 -130.5v-344q0 -83 23 -130.5t75 -68.5t144 -21
q90 0 142.5 17t75.5 54t23 99v137q0 24 -8 32t-32 8h-207v108h260q50 0 74.5 -24t24.5 -75v-186q0 -99 -33.5 -160t-105 -89.5t-187.5 -28.5h-47q-120 0 -193.5 33.5zM507 -73.5q14 -13.5 15 -54.5q-1 -63 -42 -114l-112 -138l-38 30l102 137q-32 12 -42 28.5t-10 51.5
q0 43 14.5 58t56.5 15t56 -13.5zM522 -135v7v5v-12z" />
    <glyph glyph-name="S.ss01" horiz-adv-x="838" 
d="M203 20.5q-61 22.5 -86 76.5t-25 154v44h113v-39q0 -66 16 -97t59 -42.5t135 -11.5q95 0 140 12t61 42.5t16 93.5q0 68 -15 99t-63.5 53t-167.5 53q-124 33 -183.5 62.5t-85 82t-25.5 151.5q0 97 25 149.5t86.5 75.5t175.5 23h82q112 0 172 -21.5t85 -73.5t25 -149v-53
h-113v42q0 64 -16 94.5t-59 42t-133 11.5q-93 0 -138.5 -12t-62 -41.5t-16.5 -89.5q0 -67 15 -98t63 -52t165 -50q125 -32 184 -60.5t86 -82t27 -156.5q0 -100 -25 -154t-86.5 -77.5t-177.5 -23.5h-78q-114 0 -175 22.5z" />
    <glyph glyph-name="Sacute.ss01" horiz-adv-x="838" 
d="M195 20.5q-61 22.5 -86 76.5t-25 154v44h113v-39q0 -66 16 -97t59 -42.5t135 -11.5q95 0 140 12t61 42.5t16 93.5q0 68 -15 99t-63.5 53t-167.5 53q-124 33 -183.5 62.5t-85 82t-25.5 151.5q0 97 25 149.5t86.5 75.5t175.5 23h82q112 0 172 -21.5t85 -73.5t25 -149v-53
h-113v42q0 64 -16 94.5t-59 42t-133 11.5q-93 0 -138.5 -12t-62 -41.5t-16.5 -89.5q0 -67 15 -98t63 -52t165 -50q125 -32 184 -60.5t86 -82t27 -156.5q0 -100 -25 -154t-86.5 -77.5t-177.5 -23.5h-78q-114 0 -175 22.5zM351 1089l61 211h113l-61 -211h-113z" />
    <glyph glyph-name="Scaron.ss01" horiz-adv-x="838" 
d="M195 20.5q-61 22.5 -86 76.5t-25 154v44h113v-39q0 -66 16 -97t59 -42.5t135 -11.5q95 0 140 12t61 42.5t16 93.5q0 68 -15 99t-63.5 53t-167.5 53q-124 33 -183.5 62.5t-85 82t-25.5 151.5q0 97 25 149.5t86.5 75.5t175.5 23h82q112 0 172 -21.5t85 -73.5t25 -149v-53
h-113v42q0 64 -16 94.5t-59 42t-133 11.5q-93 0 -138.5 -12t-62 -41.5t-16.5 -89.5q0 -67 15 -98t63 -52t165 -50q125 -32 184 -60.5t86 -82t27 -156.5q0 -100 -25 -154t-86.5 -77.5t-177.5 -23.5h-78q-114 0 -175 22.5zM506 1121q-12 -27 -32 -36t-65 -9q-44 0 -63.5 9
t-31.5 35l-105 180h116l84 -154l84 154h116z" />
    <glyph glyph-name="Scedilla.ss01" horiz-adv-x="838" 
d="M721.5 102q-23.5 -54 -81.5 -78t-166 -26v-161h-116v161q-106 2 -162.5 25.5t-80 77t-23.5 150.5v44h113v-39q0 -66 16 -97t59 -42.5t135 -11.5q95 0 140 12t61 42.5t16 93.5q0 68 -15 99t-63.5 53t-167.5 53q-124 33 -183.5 62.5t-85 82t-25.5 151.5q0 97 25 149.5
t86.5 75.5t175.5 23h82q112 0 172 -21.5t85 -73.5t25 -149v-53h-113v42q0 64 -16 94.5t-59 42t-133 11.5q-93 0 -138.5 -12t-62 -41.5t-16.5 -89.5q0 -67 15 -98t63 -52t165 -50q125 -32 184 -60.5t86 -82t27 -156.5q0 -97 -23.5 -151z" />
    <glyph glyph-name="A.ss02" horiz-adv-x="903" 
d="M329 903q13 50 41.5 74.5t81.5 24.5q51 0 79 -23t42 -77l306 -902h-120l-295 875q-3 10 -12 10t-12 -10l-295 -875h-122z" />
    <glyph glyph-name="Aacute.ss02" horiz-adv-x="903" 
d="M321 903q13 50 41.5 74.5t81.5 24.5q51 0 79 -23t42 -77l306 -902h-120l-295 875q-3 10 -12 10t-12 -10l-295 -875h-122zM387 1089l61 211h113l-61 -211h-113z" />
    <glyph glyph-name="Abreve.ss02" horiz-adv-x="903" 
d="M321 903q13 50 41.5 74.5t81.5 24.5q51 0 79 -23t42 -77l306 -902h-120l-295 875q-3 10 -12 10t-12 -10l-295 -875h-122zM292.5 1144.5q-46.5 47.5 -46.5 155.5h90q0 -59 26 -86t81 -27t81 27t26 86h91q0 -108 -47 -155.5t-151 -47.5t-150.5 47.5z" />
    <glyph glyph-name="Acircumflex.ss02" horiz-adv-x="903" 
d="M321 903q13 50 41.5 74.5t81.5 24.5q51 0 79 -23t42 -77l306 -902h-120l-295 875q-3 10 -12 10t-12 -10l-295 -875h-122zM529 1076l-84 154l-84 -154h-116l105 180q12 26 31.5 35t63.5 9q45 0 65 -9t32 -36l103 -179h-116z" />
    <glyph glyph-name="Adieresis.ss02" horiz-adv-x="903" 
d="M321 903q13 50 41.5 74.5t81.5 24.5q51 0 79 -23t42 -77l306 -902h-120l-295 875q-3 10 -12 10t-12 -10l-295 -875h-122zM251.5 1173.5q-16.5 16.5 -16.5 54.5q0 39 16.5 55.5t55.5 16.5q38 0 54.5 -16.5t16.5 -55.5q0 -38 -16.5 -54.5t-54.5 -16.5q-39 0 -55.5 16.5z
M525.5 1174q-16.5 17 -16.5 54q0 39 16.5 55.5t54.5 16.5q39 0 55.5 -16.5t16.5 -55.5q0 -38 -16.5 -54.5t-55.5 -16.5q-38 0 -54.5 17z" />
    <glyph glyph-name="Agrave.ss02" horiz-adv-x="903" 
d="M321 903q13 50 41.5 74.5t81.5 24.5q51 0 79 -23t42 -77l306 -902h-120l-295 875q-3 10 -12 10t-12 -10l-295 -875h-122zM327 1300h113l61 -211h-113z" />
    <glyph glyph-name="Amacron.ss02" horiz-adv-x="903" 
d="M321 903q13 50 41.5 74.5t81.5 24.5q51 0 79 -23t42 -77l306 -902h-120l-295 875q-3 10 -12 10t-12 -10l-295 -875h-122zM278 1208h334v-100h-334v100z" />
    <glyph glyph-name="Aogonek.ss02" horiz-adv-x="879" 
d="M649 -294.5q-44 27.5 -44 93.5q0 48 18 74.5t51 52.5q22 18 32 30t10 31q0 12 -4 24l-271 869q-3 11 -11 11t-12 -11l-273 -880h-122l285 905q18 55 51 77.5t71 22.5q37 0 71 -23t50 -77l274 -868q9 -28 9 -50q0 -37 -18 -58t-53 -45q-26 -17 -38.5 -30.5t-12.5 -33.5
q0 -49 97 -49h46l-1 -93h-66q-95 0 -139 27.5z" />
    <glyph glyph-name="Aring.ss02" horiz-adv-x="903" 
d="M321 903q13 50 41.5 74.5t81.5 24.5q51 0 79 -23t42 -77l306 -902h-120l-295 875q-3 10 -12 10t-12 -10l-295 -875h-122zM333 1111q-36 36 -36 110q0 75 36 111.5t110 36.5q75 0 111.5 -36.5t36.5 -111.5q0 -74 -36.5 -110t-111.5 -36q-74 0 -110 36zM517 1221
q0 75 -73 75q-38 0 -56 -18.5t-18 -56.5q0 -75 74 -75q73 0 73 75z" />
    <glyph glyph-name="Atilde.ss02" horiz-adv-x="903" 
d="M321 903q13 50 41.5 74.5t81.5 24.5q51 0 79 -23t42 -77l306 -902h-120l-295 875q-3 10 -12 10t-12 -10l-295 -875h-122zM479 1125q-31 21 -65 60q-25 29 -43 42.5t-43 13.5q-27 0 -44.5 -18t-17.5 -54v-61h-84v72q0 59 35 99.5t112 40.5q40 0 69.5 -12.5t48 -30
t40.5 -44.5q21 -26 36 -38t35 -12q28 0 44.5 15.5t16.5 48.5v69h87v-81q0 -55 -34.5 -93t-110.5 -38q-51 0 -82 21z" />
    <glyph glyph-name="O.ss04" horiz-adv-x="883" 
d="M116.5 23q-24.5 24 -24.5 75v804q0 50 24 74.5t75 24.5h501q50 0 74.5 -24t24.5 -75v-804q0 -50 -24 -74.5t-75 -24.5h-501q-50 0 -74.5 24zM670 114q8 8 8 32v708q0 24 -8 32t-32 8h-393q-24 0 -32 -8t-8 -32v-708q0 -24 8 -32t32 -8h393q24 0 32 8z" />
    <glyph glyph-name="Q.ss04" horiz-adv-x="883" 
d="M766.5 977q24.5 -24 24.5 -75v-804q0 -50 -24 -74.5t-75 -24.5h-501q-50 0 -74.5 24t-24.5 75v804q0 50 24 74.5t75 24.5h501q50 0 74.5 -24zM678 854q0 24 -8 32t-32 8h-393q-24 0 -32 -8t-8 -32v-708q0 -24 8 -32t32 -8h149v285h96v-285h148q24 0 32 8t8 32v708z" />
    <glyph glyph-name="U.ss04" horiz-adv-x="900" 
d="M136.5 24q-24.5 24 -24.5 75v901h116v-852q0 -24 8 -32t32 -8h364q24 0 32 8t8 32v852h117v-901q0 -50 -24 -74.5t-75 -24.5h-479q-50 0 -74.5 24z" />
    <glyph glyph-name="J.ss05" horiz-adv-x="539" 
d="M38 108q122 0 177.5 13.5t74.5 50t19 116.5v712h118v-712q0 -108 -27 -170.5t-89 -90t-169 -27.5h-104v108z" />
    <glyph glyph-name="Q.ss09" horiz-adv-x="875" 
d="M754.5 147.5q-28.5 -68.5 -90.5 -101.5t-164 -33q-48 0 -78 5l323 -222l-63 -82l-470 321q-61 41 -90.5 110.5t-29.5 181.5v346q0 118 29.5 189t95.5 104.5t180 33.5h82q113 0 179.5 -33.5t95.5 -104.5t29 -189v-346q0 -111 -28.5 -179.5zM223.5 192q18.5 -46 68 -65.5
t147.5 -19.5q96 0 145 19.5t67.5 65.5t18.5 135v346q0 89 -18.5 135t-67.5 65.5t-145 19.5q-98 0 -147.5 -19.5t-68 -65.5t-18.5 -135v-346q0 -89 18.5 -135z" />
    <glyph glyph-name="a" unicode="a" horiz-adv-x="821" 
d="M710 700v-700h-82l-13 128q-27 -71 -84 -102.5t-157 -31.5q-108 0 -171.5 34t-92 111.5t-28.5 210.5t28.5 210.5t92 111.5t171.5 34q100 0 157 -31.5t84 -104.5l13 130h82zM520 121.5q41 21.5 57.5 74.5t16.5 154t-16.5 154t-57.5 74.5t-120 21.5q-84 0 -127 -21.5
t-60.5 -74t-17.5 -154.5t17.5 -154.5t60.5 -74t127 -21.5q79 0 120 21.5z" />
    <glyph glyph-name="aacute" unicode="&#xe1;" horiz-adv-x="821" 
d="M702 700v-700h-82l-13 128q-27 -71 -84 -102.5t-157 -31.5q-108 0 -171.5 34t-92 111.5t-28.5 210.5t28.5 210.5t92 111.5t171.5 34q100 0 157 -31.5t84 -104.5l13 130h82zM512 121.5q41 21.5 57.5 74.5t16.5 154t-16.5 154t-57.5 74.5t-120 21.5q-84 0 -127 -21.5
t-60.5 -74t-17.5 -154.5t17.5 -154.5t60.5 -74t127 -21.5q79 0 120 21.5zM340 789l61 211h113l-61 -211h-113z" />
    <glyph glyph-name="abreve" unicode="&#x103;" horiz-adv-x="821" 
d="M702 700v-700h-82l-13 128q-27 -71 -84 -102.5t-157 -31.5q-108 0 -171.5 34t-92 111.5t-28.5 210.5t28.5 210.5t92 111.5t171.5 34q100 0 157 -31.5t84 -104.5l13 130h82zM512 121.5q41 21.5 57.5 74.5t16.5 154t-16.5 154t-57.5 74.5t-120 21.5q-84 0 -127 -21.5
t-60.5 -74t-17.5 -154.5t17.5 -154.5t60.5 -74t127 -21.5q79 0 120 21.5zM245.5 844.5q-46.5 47.5 -46.5 155.5h90q0 -59 26 -86t81 -27t81 27t26 86h91q0 -108 -47 -155.5t-151 -47.5t-150.5 47.5z" />
    <glyph glyph-name="acircumflex" unicode="&#xe2;" horiz-adv-x="821" 
d="M702 700v-700h-82l-13 128q-27 -71 -84 -102.5t-157 -31.5q-108 0 -171.5 34t-92 111.5t-28.5 210.5t28.5 210.5t92 111.5t171.5 34q100 0 157 -31.5t84 -104.5l13 130h82zM512 121.5q41 21.5 57.5 74.5t16.5 154t-16.5 154t-57.5 74.5t-120 21.5q-84 0 -127 -21.5
t-60.5 -74t-17.5 -154.5t17.5 -154.5t60.5 -74t127 -21.5q79 0 120 21.5zM482 776l-84 154l-84 -154h-116l105 180q12 26 31.5 35t63.5 9q45 0 65 -9t32 -36l103 -179h-116z" />
    <glyph glyph-name="adieresis" unicode="&#xe4;" horiz-adv-x="821" 
d="M702 700v-700h-82l-13 128q-27 -71 -84 -102.5t-157 -31.5q-108 0 -171.5 34t-92 111.5t-28.5 210.5t28.5 210.5t92 111.5t171.5 34q100 0 157 -31.5t84 -104.5l13 130h82zM512 121.5q41 21.5 57.5 74.5t16.5 154t-16.5 154t-57.5 74.5t-120 21.5q-84 0 -127 -21.5
t-60.5 -74t-17.5 -154.5t17.5 -154.5t60.5 -74t127 -21.5q79 0 120 21.5zM204.5 873.5q-16.5 16.5 -16.5 54.5q0 39 16.5 55.5t55.5 16.5q38 0 54.5 -16.5t16.5 -55.5q0 -38 -16.5 -54.5t-54.5 -16.5q-39 0 -55.5 16.5zM478.5 874q-16.5 17 -16.5 54q0 39 16.5 55.5
t54.5 16.5q39 0 55.5 -16.5t16.5 -55.5q0 -38 -16.5 -54.5t-55.5 -16.5q-38 0 -54.5 17z" />
    <glyph glyph-name="agrave" unicode="&#xe0;" horiz-adv-x="821" 
d="M702 700v-700h-82l-13 128q-27 -71 -84 -102.5t-157 -31.5q-108 0 -171.5 34t-92 111.5t-28.5 210.5t28.5 210.5t92 111.5t171.5 34q100 0 157 -31.5t84 -104.5l13 130h82zM512 121.5q41 21.5 57.5 74.5t16.5 154t-16.5 154t-57.5 74.5t-120 21.5q-84 0 -127 -21.5
t-60.5 -74t-17.5 -154.5t17.5 -154.5t60.5 -74t127 -21.5q79 0 120 21.5zM280 1000h113l61 -211h-113z" />
    <glyph glyph-name="amacron" unicode="&#x101;" horiz-adv-x="821" 
d="M702 700v-700h-82l-13 128q-27 -71 -84 -102.5t-157 -31.5q-108 0 -171.5 34t-92 111.5t-28.5 210.5t28.5 210.5t92 111.5t171.5 34q100 0 157 -31.5t84 -104.5l13 130h82zM512 121.5q41 21.5 57.5 74.5t16.5 154t-16.5 154t-57.5 74.5t-120 21.5q-84 0 -127 -21.5
t-60.5 -74t-17.5 -154.5t17.5 -154.5t60.5 -74t127 -21.5q79 0 120 21.5zM231 908h334v-100h-334v100z" />
    <glyph glyph-name="aogonek" unicode="&#x105;" horiz-adv-x="821" 
d="M727 -210l-1 -86h-45q-101 0 -144 27t-43 96q0 41 19 65t54 47q25 18 36.5 30.5t11.5 29.5l5 86l-5 43q-27 -71 -84 -102.5t-157 -31.5q-108 0 -171.5 34t-92 111.5t-28.5 210.5t28.5 210.5t92 111.5t171.5 34q100 0 157 -31.5t84 -104.5l13 130h82v-720q0 -27 -15 -43
t-44 -34q-26 -17 -38.5 -30t-12.5 -32q0 -27 19.5 -39t62.5 -12h45zM520 121.5q41 21.5 57.5 74.5t16.5 154t-16.5 154t-57.5 74.5t-120 21.5q-84 0 -127 -21.5t-60.5 -74t-17.5 -154.5t17.5 -154.5t60.5 -74t127 -21.5q79 0 120 21.5z" />
    <glyph glyph-name="aring" unicode="&#xe5;" horiz-adv-x="821" 
d="M702 700v-700h-82l-13 128q-27 -71 -84 -102.5t-157 -31.5q-108 0 -171.5 34t-92 111.5t-28.5 210.5t28.5 210.5t92 111.5t171.5 34q100 0 157 -31.5t84 -104.5l13 130h82zM512 121.5q41 21.5 57.5 74.5t16.5 154t-16.5 154t-57.5 74.5t-120 21.5q-84 0 -127 -21.5
t-60.5 -74t-17.5 -154.5t17.5 -154.5t60.5 -74t127 -21.5q79 0 120 21.5zM286 811q-36 36 -36 110q0 75 36 111.5t110 36.5q75 0 111.5 -36.5t36.5 -111.5q0 -74 -36.5 -110t-111.5 -36q-74 0 -110 36zM470 921q0 75 -73 75q-38 0 -56 -18.5t-18 -56.5q0 -75 74 -75
q73 0 73 75z" />
    <glyph glyph-name="atilde" unicode="&#xe3;" horiz-adv-x="821" 
d="M702 700v-700h-82l-13 128q-27 -71 -84 -102.5t-157 -31.5q-108 0 -171.5 34t-92 111.5t-28.5 210.5t28.5 210.5t92 111.5t171.5 34q100 0 157 -31.5t84 -104.5l13 130h82zM512 121.5q41 21.5 57.5 74.5t16.5 154t-16.5 154t-57.5 74.5t-120 21.5q-84 0 -127 -21.5
t-60.5 -74t-17.5 -154.5t17.5 -154.5t60.5 -74t127 -21.5q79 0 120 21.5zM432 825q-31 21 -65 60q-25 29 -43 42.5t-43 13.5q-27 0 -44.5 -18t-17.5 -54v-61h-84v72q0 59 35 99.5t112 40.5q40 0 69.5 -12.5t48 -30t40.5 -44.5q21 -26 36 -38t35 -12q28 0 44.5 15.5
t16.5 48.5v69h87v-81q0 -55 -34.5 -93t-110.5 -38q-51 0 -82 21z" />
    <glyph glyph-name="ae" unicode="&#xe6;" horiz-adv-x="1306" 
d="M713 317v-28q0 -80 17 -120.5t59 -56.5t125 -16h255v-96h-280q-89 0 -146.5 21.5t-88.5 66.5q-32 -46 -89.5 -67t-146.5 -21h-53q-148 0 -215.5 57t-67.5 165q0 93 61 139.5t161 46.5h289v3q0 80 -17 120.5t-58.5 56.5t-123.5 16h-256v96h280q89 0 146.5 -21t89.5 -67
q31 45 88.5 66.5t146.5 21.5h48q152 0 219.5 -65t67.5 -212v-106h-511zM789 589q-42 -16 -59 -57t-17 -121v-3h403q0 82 -17 123.5t-59 57.5t-126 16q-83 0 -125 -16zM517.5 111q41.5 16 58.5 56.5t17 121.5v25h-269q-67 0 -98.5 -23t-31.5 -71q0 -67 45 -96t154 -29
q83 0 124.5 16z" />
    <glyph glyph-name="b" unicode="b" horiz-adv-x="821" 
d="M618.5 672q63.5 -34 92 -111.5t28.5 -210.5t-28.5 -210.5t-92 -111.5t-171.5 -34q-100 0 -157 31.5t-84 104.5l-13 -130h-82v1000h115v-386q30 48 84 70t137 22q108 0 171.5 -34zM548 121.5q43 21.5 60.5 74t17.5 154.5t-17.5 154.5t-60.5 74t-127 21.5q-79 0 -120 -21.5
t-57.5 -74.5t-16.5 -154t16.5 -154t57.5 -74.5t120 -21.5q84 0 127 21.5z" />
    <glyph glyph-name="c" unicode="c" horiz-adv-x="699" 
d="M153 72q-71 72 -71 205v146q0 133 71 205t207 72h250v-108h-225q-74 0 -115.5 -19t-58 -57.5t-16.5 -102.5v-126q0 -64 16.5 -102.5t58 -57.5t115.5 -19h225v-108h-250q-136 0 -207 72z" />
    <glyph glyph-name="cacute" unicode="&#x107;" horiz-adv-x="699" 
d="M145 72q-71 72 -71 205v146q0 133 71 205t207 72h250v-108h-225q-74 0 -115.5 -19t-58 -57.5t-16.5 -102.5v-126q0 -64 16.5 -102.5t58 -57.5t115.5 -19h225v-108h-250q-136 0 -207 72zM319 789l61 211h113l-61 -211h-113z" />
    <glyph glyph-name="ccaron" unicode="&#x10d;" horiz-adv-x="699" 
d="M145 72q-71 72 -71 205v146q0 133 71 205t207 72h250v-108h-225q-74 0 -115.5 -19t-58 -57.5t-16.5 -102.5v-126q0 -64 16.5 -102.5t58 -57.5t115.5 -19h225v-108h-250q-136 0 -207 72zM474 821q-12 -27 -32 -36t-65 -9q-44 0 -63.5 9t-31.5 35l-105 180h116l84 -154
l84 154h116z" />
    <glyph glyph-name="ccedilla" unicode="&#xe7;" horiz-adv-x="699" 
d="M269.5 573q-41.5 -19 -58 -57.5t-16.5 -102.5v-126q0 -64 16.5 -102.5t58 -57.5t115.5 -19h225v-108h-168v-163h-116v164q-119 9 -181.5 80.5t-62.5 195.5v146q0 133 71 205t207 72h250v-108h-225q-74 0 -115.5 -19z" />
    <glyph glyph-name="d" unicode="d" horiz-adv-x="821" 
d="M710 1000v-1000h-82l-13 130q-27 -73 -84 -104.5t-157 -31.5q-108 0 -171.5 34t-92 111.5t-28.5 210.5t28.5 210.5t92 111.5t171.5 34q83 0 137 -22t84 -70v386h115zM520 121.5q41 21.5 57.5 74.5t16.5 154t-16.5 154t-57.5 74.5t-120 21.5q-84 0 -127 -21.5t-60.5 -74
t-17.5 -154.5t17.5 -154.5t60.5 -74t127 -21.5q79 0 120 21.5z" />
    <glyph glyph-name="eth" unicode="&#xf0;" horiz-adv-x="843" 
d="M676 936q68 -64 68 -203v-432q0 -161 -70.5 -231t-220.5 -70h-76q-113 0 -178.5 28.5t-95 93t-29.5 174.5q0 113 24 174.5t89 90t190 28.5h250v144q0 64 -19 97.5t-65 47.5t-133 14h-275v108h327q146 0 214 -64zM543 123.5q46 15.5 65 56t19 121.5v179h-231
q-97 0 -139.5 -15t-55 -50t-12.5 -114q0 -81 18.5 -121.5t64 -56t134.5 -15.5q91 0 137 15.5z" />
    <glyph glyph-name="dcaron" unicode="&#x10f;" horiz-adv-x="821" 
d="M702 1000v-1000h-82l-13 130q-27 -73 -84 -104.5t-157 -31.5q-108 0 -171.5 34t-92 111.5t-28.5 210.5t28.5 210.5t92 111.5t171.5 34q83 0 137 -22t84 -70v386h115zM512 121.5q41 21.5 57.5 74.5t16.5 154t-16.5 154t-57.5 74.5t-120 21.5q-84 0 -127 -21.5t-60.5 -74
t-17.5 -154.5t17.5 -154.5t60.5 -74t127 -21.5q79 0 120 21.5zM779 686q-15 15 -15 45v269h113v-269q0 -30 -15.5 -45t-41.5 -15t-41 15z" />
    <glyph glyph-name="dcroat" unicode="&#x111;" horiz-adv-x="821" 
d="M885 782h-175v-782h-82l-13 130q-27 -73 -84 -104.5t-157 -31.5q-108 0 -171.5 34t-92 111.5t-28.5 210.5t28.5 210.5t92 111.5t171.5 34q83 0 137 -22t84 -70v168h-155v104h155v114h115v-114h175v-104zM520 121.5q41 21.5 57.5 74.5t16.5 154t-16.5 154t-57.5 74.5
t-120 21.5q-84 0 -127 -21.5t-60.5 -74t-17.5 -154.5t17.5 -154.5t60.5 -74t127 -21.5q79 0 120 21.5z" />
    <glyph glyph-name="e" unicode="e" horiz-adv-x="783" 
d="M195 287q0 -81 14.5 -117.5t55 -49t129.5 -11.5h259v-109h-282q-146 0 -217.5 69t-71.5 208v146q0 142 70 209.5t218 67.5h48q147 0 217.5 -67.5t70.5 -209.5v-117h-511v-19zM264.5 579q-40.5 -13 -55 -49.5t-14.5 -116.5v-9h398v19q0 76 -14.5 110t-54.5 46.5t-129 12.5
q-90 0 -130.5 -13z" />
    <glyph glyph-name="eacute" unicode="&#xe9;" horiz-adv-x="783" 
d="M187 287q0 -81 14.5 -117.5t55 -49t129.5 -11.5h259v-109h-282q-146 0 -217.5 69t-71.5 208v146q0 142 70 209.5t218 67.5h48q147 0 217.5 -67.5t70.5 -209.5v-117h-511v-19zM256.5 579q-40.5 -13 -55 -49.5t-14.5 -116.5v-9h398v19q0 76 -14.5 110t-54.5 46.5t-129 12.5
q-90 0 -130.5 -13zM328 789l61 211h113l-61 -211h-113z" />
    <glyph glyph-name="ecaron" unicode="&#x11b;" horiz-adv-x="783" 
d="M187 287q0 -81 14.5 -117.5t55 -49t129.5 -11.5h259v-109h-282q-146 0 -217.5 69t-71.5 208v146q0 142 70 209.5t218 67.5h48q147 0 217.5 -67.5t70.5 -209.5v-117h-511v-19zM256.5 579q-40.5 -13 -55 -49.5t-14.5 -116.5v-9h398v19q0 76 -14.5 110t-54.5 46.5t-129 12.5
q-90 0 -130.5 -13zM483 821q-12 -27 -32 -36t-65 -9q-44 0 -63.5 9t-31.5 35l-105 180h116l84 -154l84 154h116z" />
    <glyph glyph-name="ecircumflex" unicode="&#xea;" horiz-adv-x="783" 
d="M187 287q0 -81 14.5 -117.5t55 -49t129.5 -11.5h259v-109h-282q-146 0 -217.5 69t-71.5 208v146q0 142 70 209.5t218 67.5h48q147 0 217.5 -67.5t70.5 -209.5v-117h-511v-19zM256.5 579q-40.5 -13 -55 -49.5t-14.5 -116.5v-9h398v19q0 76 -14.5 110t-54.5 46.5t-129 12.5
q-90 0 -130.5 -13zM470 776l-84 154l-84 -154h-116l105 180q12 26 31.5 35t63.5 9q45 0 65 -9t32 -36l103 -179h-116z" />
    <glyph glyph-name="edieresis" unicode="&#xeb;" horiz-adv-x="783" 
d="M187 287q0 -81 14.5 -117.5t55 -49t129.5 -11.5h259v-109h-282q-146 0 -217.5 69t-71.5 208v146q0 142 70 209.5t218 67.5h48q147 0 217.5 -67.5t70.5 -209.5v-117h-511v-19zM256.5 579q-40.5 -13 -55 -49.5t-14.5 -116.5v-9h398v19q0 76 -14.5 110t-54.5 46.5t-129 12.5
q-90 0 -130.5 -13zM192.5 873.5q-16.5 16.5 -16.5 54.5q0 39 16.5 55.5t55.5 16.5q38 0 54.5 -16.5t16.5 -55.5q0 -38 -16.5 -54.5t-54.5 -16.5q-39 0 -55.5 16.5zM466.5 874q-16.5 17 -16.5 54q0 39 16.5 55.5t54.5 16.5q39 0 55.5 -16.5t16.5 -55.5q0 -38 -16.5 -54.5
t-55.5 -16.5q-38 0 -54.5 17z" />
    <glyph glyph-name="edotaccent" unicode="&#x117;" horiz-adv-x="783" 
d="M187 287q0 -81 14.5 -117.5t55 -49t129.5 -11.5h259v-109h-282q-146 0 -217.5 69t-71.5 208v146q0 142 70 209.5t218 67.5h48q147 0 217.5 -67.5t70.5 -209.5v-117h-511v-19zM256.5 579q-40.5 -13 -55 -49.5t-14.5 -116.5v-9h398v19q0 76 -14.5 110t-54.5 46.5t-129 12.5
q-90 0 -130.5 -13zM330.5 886.5q-16.5 16.5 -16.5 55.5q0 38 16.5 54.5t54.5 16.5q39 0 55.5 -16.5t16.5 -54.5q0 -39 -16.5 -55.5t-55.5 -16.5q-38 0 -54.5 16.5z" />
    <glyph glyph-name="egrave" unicode="&#xe8;" horiz-adv-x="783" 
d="M187 287q0 -81 14.5 -117.5t55 -49t129.5 -11.5h259v-109h-282q-146 0 -217.5 69t-71.5 208v146q0 142 70 209.5t218 67.5h48q147 0 217.5 -67.5t70.5 -209.5v-117h-511v-19zM256.5 579q-40.5 -13 -55 -49.5t-14.5 -116.5v-9h398v19q0 76 -14.5 110t-54.5 46.5t-129 12.5
q-90 0 -130.5 -13zM268 1000h113l61 -211h-113z" />
    <glyph glyph-name="emacron" unicode="&#x113;" horiz-adv-x="783" 
d="M187 287q0 -81 14.5 -117.5t55 -49t129.5 -11.5h259v-109h-282q-146 0 -217.5 69t-71.5 208v146q0 142 70 209.5t218 67.5h48q147 0 217.5 -67.5t70.5 -209.5v-117h-511v-19zM256.5 579q-40.5 -13 -55 -49.5t-14.5 -116.5v-9h398v19q0 76 -14.5 110t-54.5 46.5t-129 12.5
q-90 0 -130.5 -13zM219 908h334v-100h-334v100z" />
    <glyph glyph-name="eogonek" unicode="&#x119;" horiz-adv-x="783" 
d="M195 287q0 -81 14.5 -117.5t55 -49t129.5 -11.5h259v-139q0 -27 -15 -43t-44 -34q-26 -17 -38.5 -30t-12.5 -32q0 -27 19.5 -39t62.5 -12h45l-1 -86h-45q-101 0 -144 27t-43 96q0 41 19 65t54 47q25 18 36.5 30.5t11.5 29.5l1 11h-188q-146 0 -217.5 69t-71.5 208v146
q0 142 70 209.5t218 67.5h48q147 0 217.5 -67.5t70.5 -209.5v-117h-511v-19zM264.5 579q-40.5 -13 -55 -49.5t-14.5 -116.5v-9h398v19q0 76 -14.5 110t-54.5 46.5t-129 12.5q-90 0 -130.5 -13z" />
    <glyph glyph-name="f" unicode="f" horiz-adv-x="637" 
d="M237 593h-183v107h183v124q0 106 19 157t70.5 70t159.5 19h73v-107h-73q-63 0 -90.5 -9.5t-36.5 -37.5t-9 -92v-124h233v-107h-233v-593h-113v593z" />
    <glyph glyph-name="g" unicode="g" horiz-adv-x="820" 
d="M709 700v-748q0 -90 -28.5 -145t-94.5 -81t-181 -26h-257v108h257q105 0 148 35t43 109v155q-30 -50 -84 -72t-139 -22q-108 0 -171 33t-91.5 108t-28.5 205t28.5 205.5t91.5 108.5t171 33q100 0 157 -31t84 -102l13 127h82zM518 139q41 21 57.5 72t16.5 148t-16.5 148
t-57.5 72t-119 21q-83 0 -126 -21t-60.5 -72t-17.5 -148t17.5 -148t60.5 -72t126 -21q78 0 119 21z" />
    <glyph glyph-name="uni0123" unicode="&#x123;" horiz-adv-x="820" 
d="M701 700v-748q0 -90 -28.5 -145t-94.5 -81t-181 -26h-257v108h257q105 0 148 35t43 109v155q-30 -50 -84 -72t-139 -22q-108 0 -171 33t-91.5 108t-28.5 205t28.5 205.5t91.5 108.5t171 33q100 0 157 -31t84 -102l13 127h82zM510 139q41 21 57.5 72t16.5 148t-16.5 148
t-57.5 72t-119 21q-83 0 -126 -21t-60.5 -72t-17.5 -148t17.5 -148t60.5 -72t126 -21q78 0 119 21zM405 987.5q10 -16.5 10 -51.5q0 -43 -14.5 -58t-56.5 -15t-56 13.5t-15 54.5q1 63 42 114l112 138l38 -30l-102 -137q32 -12 42 -28.5zM273 938v-7v-5v12z" />
    <glyph glyph-name="h" unicode="h" horiz-adv-x="836" 
d="M630.5 664.5q63.5 -44.5 83.5 -120.5t20 -194v-350h-113v350q0 89 -12 140.5t-55.5 81.5t-132.5 30q-85 0 -127 -28t-55.5 -80.5t-13.5 -143.5v-350h-113v1000h115v-388q30 51 82 74t134 23q124 0 187.5 -44.5z" />
    <glyph glyph-name="i" unicode="i" 
d="M217 700v-700h-113v700h113zM105.5 886.5q-16.5 16.5 -16.5 55.5q0 38 16.5 54.5t54.5 16.5q39 0 55.5 -16.5t16.5 -54.5q0 -39 -16.5 -55.5t-55.5 -16.5q-38 0 -54.5 16.5z" />
    <glyph glyph-name="dotlessi" unicode="&#x131;" 
d="M225 700v-700h-113v700h113z" />
    <glyph glyph-name="iacute" unicode="&#xed;" 
d="M217 700v-700h-113v700h113zM103 789l61 211h113l-61 -211h-113z" />
    <glyph glyph-name="icircumflex" unicode="&#xee;" 
d="M217 700v-700h-113v700h113zM244 776l-84 154l-84 -154h-116l105 180q12 26 31.5 35t63.5 9q45 0 65 -9t32 -36l103 -179h-116z" />
    <glyph glyph-name="idieresis" unicode="&#xef;" 
d="M217 700v-700h-113v700h113zM-32.5 873.5q-16.5 16.5 -16.5 54.5q0 39 16.5 55.5t55.5 16.5q38 0 54.5 -16.5t16.5 -55.5q0 -38 -16.5 -54.5t-54.5 -16.5q-39 0 -55.5 16.5zM241.5 874q-16.5 17 -16.5 54q0 39 16.5 55.5t54.5 16.5q39 0 55.5 -16.5t16.5 -55.5
q0 -38 -16.5 -54.5t-55.5 -16.5q-38 0 -54.5 17z" />
    <glyph glyph-name="i.loclTRK" 
d="M217 700v-700h-113v700h113zM105.5 886.5q-16.5 16.5 -16.5 55.5q0 38 16.5 54.5t54.5 16.5q39 0 55.5 -16.5t16.5 -54.5q0 -39 -16.5 -55.5t-55.5 -16.5q-38 0 -54.5 16.5z" />
    <glyph glyph-name="igrave" unicode="&#xec;" 
d="M217 700v-700h-113v700h113zM43 1000h113l61 -211h-113z" />
    <glyph glyph-name="imacron" unicode="&#x12b;" 
d="M217 700v-700h-113v700h113zM-6 908h334v-100h-334v100z" />
    <glyph glyph-name="iogonek" unicode="&#x12f;" 
d="M113.5 886.5q-16.5 16.5 -16.5 55.5q0 38 16.5 54.5t54.5 16.5q39 0 55.5 -16.5t16.5 -54.5q0 -39 -16.5 -55.5t-55.5 -16.5q-38 0 -54.5 16.5zM242 -220l-1 -86h-45q-101 0 -144 27t-43 96q0 41 19 65t54 47q25 18 36.5 30.5t11.5 29.5l1 11h-19v700h113v-730
q0 -27 -15 -43t-44 -34q-26 -17 -38.5 -30t-12.5 -32q0 -27 19.5 -39t62.5 -12h45z" />
    <glyph glyph-name="j" unicode="j" 
d="M104 700h113v-1000h-113v1000zM105.5 886.5q-16.5 16.5 -16.5 55.5q0 38 16.5 54.5t54.5 16.5q39 0 55.5 -16.5t16.5 -54.5q0 -39 -16.5 -55.5t-55.5 -16.5q-38 0 -54.5 16.5z" />
    <glyph glyph-name="uni0237" unicode="&#x237;" 
d="M112 700h113v-1000h-113v1000z" />
    <glyph glyph-name="k" unicode="k" horiz-adv-x="750" 
d="M227 1000v-562h61q23 0 35.5 5.5t28.5 22.5l217 234h141l-267 -294q-15 -16 -15 -28t15 -28l311 -350h-147l-262 289q-15 17 -27.5 22.5t-35.5 5.5h-55v-317h-115v1000h115z" />
    <glyph glyph-name="uni0137" unicode="&#x137;" horiz-adv-x="750" 
d="M219 1000v-562h61q23 0 35.5 5.5t28.5 22.5l217 234h141l-267 -294q-15 -16 -15 -28t15 -28l311 -350h-147l-262 289q-15 17 -27.5 22.5t-35.5 5.5h-55v-317h-115v1000h115zM453 -73.5q14 -13.5 15 -54.5q-1 -63 -42 -114l-112 -138l-38 30l102 137q-32 12 -42 28.5
t-10 51.5q0 43 14.5 58t56.5 15t56 -13.5zM468 -135v7v5v-12z" />
    <glyph glyph-name="l" unicode="l" 
d="M112 1000h113v-1000h-113v1000z" />
    <glyph glyph-name="lacute" unicode="&#x13a;" 
d="M104 1000h113v-1000h-113v1000zM103 1089l61 211h113l-61 -211h-113z" />
    <glyph glyph-name="lcaron" unicode="&#x13e;" 
d="M104 1000h113v-1000h-113v1000zM257 1121q-12 -27 -32 -36t-65 -9q-44 0 -63.5 9t-31.5 35l-105 180h116l84 -154l84 154h116z" />
    <glyph glyph-name="uni013C" unicode="&#x13c;" 
d="M104 1000h113v-1000h-113v1000zM233 -73.5q14 -13.5 15 -54.5q-1 -63 -42 -114l-112 -138l-38 30l102 137q-32 12 -42 28.5t-10 51.5q0 43 14.5 58t56.5 15t56 -13.5zM248 -135v7v5v-12z" />
    <glyph glyph-name="lslash" unicode="&#x142;" 
d="M334 476l-109 -26v-450h-113v434l-111 -27v117l111 27v449h113v-434l109 26v-116z" />
    <glyph glyph-name="m" unicode="m" horiz-adv-x="1286" 
d="M1083.5 664q59.5 -42 80 -117.5t20.5 -196.5v-350h-113v350q0 94 -14 146t-53.5 77.5t-117.5 25.5q-76 0 -115 -25.5t-53 -78t-14 -145.5v-350h-113v350q0 94 -13.5 146t-53 77.5t-117.5 25.5q-77 0 -116 -25.5t-52.5 -78t-13.5 -145.5v-350h-113v700h91l6 -146
q23 82 75.5 117t145.5 35q109 0 169 -41t82 -138q20 97 73.5 138t154.5 41q115 0 174.5 -42z" />
    <glyph glyph-name="n" unicode="n" horiz-adv-x="836" 
d="M630.5 664.5q63.5 -44.5 83.5 -120.5t20 -194v-350h-113v350q0 89 -12 140.5t-55.5 81.5t-132.5 30q-85 0 -127 -28t-55.5 -80.5t-13.5 -143.5v-350h-113v700h85l10 -131q27 74 83 107t153 33q124 0 187.5 -44.5z" />
    <glyph glyph-name="nacute" unicode="&#x144;" horiz-adv-x="836" 
d="M622.5 664.5q63.5 -44.5 83.5 -120.5t20 -194v-350h-113v350q0 89 -12 140.5t-55.5 81.5t-132.5 30q-85 0 -127 -28t-55.5 -80.5t-13.5 -143.5v-350h-113v700h85l10 -131q27 74 83 107t153 33q124 0 187.5 -44.5zM348 789l61 211h113l-61 -211h-113z" />
    <glyph glyph-name="ncaron" unicode="&#x148;" horiz-adv-x="836" 
d="M622.5 664.5q63.5 -44.5 83.5 -120.5t20 -194v-350h-113v350q0 89 -12 140.5t-55.5 81.5t-132.5 30q-85 0 -127 -28t-55.5 -80.5t-13.5 -143.5v-350h-113v700h85l10 -131q27 74 83 107t153 33q124 0 187.5 -44.5zM503 821q-12 -27 -32 -36t-65 -9q-44 0 -63.5 9t-31.5 35
l-105 180h116l84 -154l84 154h116z" />
    <glyph glyph-name="uni0146" unicode="&#x146;" horiz-adv-x="836" 
d="M622.5 664.5q63.5 -44.5 83.5 -120.5t20 -194v-350h-113v350q0 89 -12 140.5t-55.5 81.5t-132.5 30q-85 0 -127 -28t-55.5 -80.5t-13.5 -143.5v-350h-113v700h85l10 -131q27 74 83 107t153 33q124 0 187.5 -44.5zM478 -73.5q14 -13.5 15 -54.5q-1 -63 -42 -114l-112 -138
l-38 30l102 137q-32 12 -42 28.5t-10 51.5q0 43 14.5 58t56.5 15t56 -13.5zM493 -135v7v5v-12z" />
    <glyph glyph-name="eng" unicode="&#x14b;" horiz-adv-x="836" 
d="M630.5 664.5q63.5 -44.5 83.5 -120.5t20 -194v-360q0 -96 -23 -151.5t-74.5 -80.5t-140.5 -25h-76v108q86 0 128 12.5t57.5 43.5t15.5 93v360q0 89 -12 140.5t-55.5 81.5t-132.5 30q-85 0 -127 -28t-55.5 -80.5t-13.5 -143.5v-350h-113v700h85l10 -131q27 74 83 107
t153 33q124 0 187.5 -44.5z" />
    <glyph glyph-name="ntilde" unicode="&#xf1;" horiz-adv-x="836" 
d="M622.5 664.5q63.5 -44.5 83.5 -120.5t20 -194v-350h-113v350q0 89 -12 140.5t-55.5 81.5t-132.5 30q-85 0 -127 -28t-55.5 -80.5t-13.5 -143.5v-350h-113v700h85l10 -131q27 74 83 107t153 33q124 0 187.5 -44.5zM440 825q-31 21 -65 60q-25 29 -43 42.5t-43 13.5
q-27 0 -44.5 -18t-17.5 -54v-61h-84v72q0 59 35 99.5t112 40.5q40 0 69.5 -12.5t48 -30t40.5 -44.5q21 -26 36 -38t35 -12q28 0 44.5 15.5t16.5 48.5v69h87v-81q0 -55 -34.5 -93t-110.5 -38q-51 0 -82 21z" />
    <glyph glyph-name="o" unicode="o" horiz-adv-x="788" 
d="M155 72q-73 72 -73 205v146q0 133 73 205t215 72h48q142 0 215 -72t73 -205v-146q0 -133 -73 -205t-215 -72h-48q-142 0 -215 72zM515.5 128q43.5 20 60.5 59t17 100v126q0 61 -17 100t-60.5 59t-120.5 20q-78 0 -121.5 -20t-61 -59t-17.5 -100v-126q0 -61 17.5 -100
t61 -59t121.5 -20q77 0 120.5 20z" />
    <glyph glyph-name="oacute" unicode="&#xf3;" horiz-adv-x="788" 
d="M147 72q-73 72 -73 205v146q0 133 73 205t215 72h48q142 0 215 -72t73 -205v-146q0 -133 -73 -205t-215 -72h-48q-142 0 -215 72zM507.5 128q43.5 20 60.5 59t17 100v126q0 61 -17 100t-60.5 59t-120.5 20q-78 0 -121.5 -20t-61 -59t-17.5 -100v-126q0 -61 17.5 -100
t61 -59t121.5 -20q77 0 120.5 20zM328 789l61 211h113l-61 -211h-113z" />
    <glyph glyph-name="ocircumflex" unicode="&#xf4;" horiz-adv-x="788" 
d="M147 72q-73 72 -73 205v146q0 133 73 205t215 72h48q142 0 215 -72t73 -205v-146q0 -133 -73 -205t-215 -72h-48q-142 0 -215 72zM507.5 128q43.5 20 60.5 59t17 100v126q0 61 -17 100t-60.5 59t-120.5 20q-78 0 -121.5 -20t-61 -59t-17.5 -100v-126q0 -61 17.5 -100
t61 -59t121.5 -20q77 0 120.5 20zM470 776l-84 154l-84 -154h-116l105 180q12 26 31.5 35t63.5 9q45 0 65 -9t32 -36l103 -179h-116z" />
    <glyph glyph-name="odieresis" unicode="&#xf6;" horiz-adv-x="788" 
d="M147 72q-73 72 -73 205v146q0 133 73 205t215 72h48q142 0 215 -72t73 -205v-146q0 -133 -73 -205t-215 -72h-48q-142 0 -215 72zM507.5 128q43.5 20 60.5 59t17 100v126q0 61 -17 100t-60.5 59t-120.5 20q-78 0 -121.5 -20t-61 -59t-17.5 -100v-126q0 -61 17.5 -100
t61 -59t121.5 -20q77 0 120.5 20zM192.5 873.5q-16.5 16.5 -16.5 54.5q0 39 16.5 55.5t55.5 16.5q38 0 54.5 -16.5t16.5 -55.5q0 -38 -16.5 -54.5t-54.5 -16.5q-39 0 -55.5 16.5zM466.5 874q-16.5 17 -16.5 54q0 39 16.5 55.5t54.5 16.5q39 0 55.5 -16.5t16.5 -55.5
q0 -38 -16.5 -54.5t-55.5 -16.5q-38 0 -54.5 17z" />
    <glyph glyph-name="ograve" unicode="&#xf2;" horiz-adv-x="788" 
d="M147 72q-73 72 -73 205v146q0 133 73 205t215 72h48q142 0 215 -72t73 -205v-146q0 -133 -73 -205t-215 -72h-48q-142 0 -215 72zM507.5 128q43.5 20 60.5 59t17 100v126q0 61 -17 100t-60.5 59t-120.5 20q-78 0 -121.5 -20t-61 -59t-17.5 -100v-126q0 -61 17.5 -100
t61 -59t121.5 -20q77 0 120.5 20zM268 1000h113l61 -211h-113z" />
    <glyph glyph-name="ohungarumlaut" unicode="&#x151;" horiz-adv-x="788" 
d="M147 72q-73 72 -73 205v146q0 133 73 205t215 72h48q142 0 215 -72t73 -205v-146q0 -133 -73 -205t-215 -72h-48q-142 0 -215 72zM507.5 128q43.5 20 60.5 59t17 100v126q0 61 -17 100t-60.5 59t-120.5 20q-78 0 -121.5 -20t-61 -59t-17.5 -100v-126q0 -61 17.5 -100
t61 -59t121.5 -20q77 0 120.5 20zM193 810l44 190h113l-44 -190h-113zM429 810l44 190h114l-45 -190h-113z" />
    <glyph glyph-name="omacron" unicode="&#x14d;" horiz-adv-x="788" 
d="M147 72q-73 72 -73 205v146q0 133 73 205t215 72h48q142 0 215 -72t73 -205v-146q0 -133 -73 -205t-215 -72h-48q-142 0 -215 72zM507.5 128q43.5 20 60.5 59t17 100v126q0 61 -17 100t-60.5 59t-120.5 20q-78 0 -121.5 -20t-61 -59t-17.5 -100v-126q0 -61 17.5 -100
t61 -59t121.5 -20q77 0 120.5 20zM219 908h334v-100h-334v100z" />
    <glyph glyph-name="oslash" unicode="&#xf8;" horiz-adv-x="788" 
d="M641 620q65 -71 65 -197v-146q0 -126 -65 -197t-191 -79v-151h-113v151q-126 8 -190.5 79t-64.5 197v146q0 126 64.5 197t190.5 79v151h113v-151q126 -8 191 -79zM593 413q0 61 -17 100t-60.5 59t-120.5 20q-78 0 -121.5 -20t-61 -59t-17.5 -100v-126q0 -61 17.5 -100
t61 -59t121.5 -20q77 0 120.5 20t60.5 59t17 100v126z" />
    <glyph glyph-name="otilde" unicode="&#xf5;" horiz-adv-x="788" 
d="M147 72q-73 72 -73 205v146q0 133 73 205t215 72h48q142 0 215 -72t73 -205v-146q0 -133 -73 -205t-215 -72h-48q-142 0 -215 72zM507.5 128q43.5 20 60.5 59t17 100v126q0 61 -17 100t-60.5 59t-120.5 20q-78 0 -121.5 -20t-61 -59t-17.5 -100v-126q0 -61 17.5 -100
t61 -59t121.5 -20q77 0 120.5 20zM420 825q-31 21 -65 60q-25 29 -43 42.5t-43 13.5q-27 0 -44.5 -18t-17.5 -54v-61h-84v72q0 59 35 99.5t112 40.5q40 0 69.5 -12.5t48 -30t40.5 -44.5q21 -26 36 -38t35 -12q28 0 44.5 15.5t16.5 48.5v69h87v-81q0 -55 -34.5 -93
t-110.5 -38q-51 0 -82 21z" />
    <glyph glyph-name="oe" unicode="&#x153;" horiz-adv-x="1294" 
d="M706 287q0 -81 14.5 -117.5t55 -49t129.5 -11.5h259v-109h-282q-164 0 -234 88q-74 -88 -230 -88h-48q-142 0 -215 72t-73 205v146q0 133 73 205t215 72h48q156 0 228 -86q70 86 235 86h48q147 0 217.5 -67.5t70.5 -209.5v-117h-511v-19zM515.5 128q43.5 20 60.5 59
t17 100v126q0 61 -17 100t-60.5 59t-120.5 20q-78 0 -121.5 -20t-61 -59t-17.5 -100v-126q0 -61 17.5 -100t61 -59t121.5 -20q77 0 120.5 20zM775.5 579q-40.5 -13 -55 -49.5t-14.5 -116.5v-9h398v19q0 76 -14.5 110t-54.5 46.5t-129 12.5q-90 0 -130.5 -13z" />
    <glyph glyph-name="p" unicode="p" horiz-adv-x="821" 
d="M618.5 672q63.5 -34 92 -111.5t28.5 -210.5t-28.5 -210.5t-92 -111.5t-171.5 -34q-83 0 -137 22t-84 70v-386h-115v1000h82l13 -130q27 73 84 104.5t157 31.5q108 0 171.5 -34zM548 121.5q43 21.5 60.5 74t17.5 154.5t-17.5 154.5t-60.5 74t-127 21.5q-79 0 -120 -21.5
t-57.5 -74.5t-16.5 -154t16.5 -154t57.5 -74.5t120 -21.5q84 0 127 21.5z" />
    <glyph glyph-name="thorn" unicode="&#xfe;" horiz-adv-x="821" 
d="M618.5 672q63.5 -34 92 -111.5t28.5 -210.5t-28.5 -210.5t-92 -111.5t-171.5 -34q-83 0 -137 22t-84 70v-386h-115v1300h115v-387q30 49 83.5 71t137.5 22q108 0 171.5 -34zM548 121.5q43 21.5 60.5 74t17.5 154.5t-17.5 154.5t-60.5 74t-127 21.5q-79 0 -120 -21.5
t-57.5 -74.5t-16.5 -154t16.5 -154t57.5 -74.5t120 -21.5q84 0 127 21.5z" />
    <glyph glyph-name="q" unicode="q" horiz-adv-x="821" 
d="M710 700v-1000h-115v386q-30 -48 -84 -70t-137 -22q-108 0 -171.5 34t-92 111.5t-28.5 210.5t28.5 210.5t92 111.5t171.5 34q100 0 157 -31.5t84 -104.5l13 130h82zM520 121.5q41 21.5 57.5 74.5t16.5 154t-16.5 154t-57.5 74.5t-120 21.5q-84 0 -127 -21.5t-60.5 -74
t-17.5 -154.5t17.5 -154.5t60.5 -74t127 -21.5q79 0 120 21.5z" />
    <glyph glyph-name="r" unicode="r" horiz-adv-x="555" 
d="M504 700v-107h-51q-120 0 -174 -58t-54 -185v-350h-113v700h84l12 -149q28 76 87 112.5t153 36.5h56z" />
    <glyph glyph-name="racute" unicode="&#x155;" horiz-adv-x="555" 
d="M496 700v-107h-51q-120 0 -174 -58t-54 -185v-350h-113v700h84l12 -149q28 76 87 112.5t153 36.5h56zM187 789l61 211h113l-61 -211h-113z" />
    <glyph glyph-name="rcaron" unicode="&#x159;" horiz-adv-x="555" 
d="M496 700v-107h-51q-120 0 -174 -58t-54 -185v-350h-113v700h84l12 -149q28 76 87 112.5t153 36.5h56zM341 821q-12 -27 -32 -36t-65 -9q-44 0 -63.5 9t-31.5 35l-105 180h116l84 -154l84 154h116z" />
    <glyph glyph-name="uni0157" unicode="&#x157;" horiz-adv-x="555" 
d="M496 700v-107h-51q-120 0 -174 -58t-54 -185v-350h-113v700h84l12 -149q28 76 87 112.5t153 36.5h56zM231 -73.5q14 -13.5 15 -54.5q-1 -63 -42 -114l-112 -138l-38 30l102 137q-32 12 -42 28.5t-10 51.5q0 43 14.5 58t56.5 15t56 -13.5zM246 -135v7v5v-12z" />
    <glyph glyph-name="s" unicode="s" horiz-adv-x="741" 
d="M114 108h284q53 0 82.5 5t44.5 21t15 49q0 47 -25 69t-92 34l-132 24q-76 14 -117 35t-59 60t-18 108q0 104 57 145.5t180 41.5h289v-108h-270q-56 0 -85.5 -6.5t-43.5 -25t-14 -54.5q0 -41 22 -61.5t81 -30.5l128 -23q84 -15 128.5 -36.5t64.5 -62.5t20 -116
q0 -70 -26 -108t-74.5 -53t-125.5 -15h-314v108z" />
    <glyph glyph-name="sacute" unicode="&#x15b;" horiz-adv-x="741" 
d="M106 108h284q53 0 82.5 5t44.5 21t15 49q0 47 -25 69t-92 34l-132 24q-76 14 -117 35t-59 60t-18 108q0 104 57 145.5t180 41.5h289v-108h-270q-56 0 -85.5 -6.5t-43.5 -25t-14 -54.5q0 -41 22 -61.5t81 -30.5l128 -23q84 -15 128.5 -36.5t64.5 -62.5t20 -116
q0 -70 -26 -108t-74.5 -53t-125.5 -15h-314v108zM305 785l61 211h113l-61 -211h-113z" />
    <glyph glyph-name="scaron" unicode="&#x161;" horiz-adv-x="741" 
d="M106 108h284q53 0 82.5 5t44.5 21t15 49q0 47 -25 69t-92 34l-132 24q-76 14 -117 35t-59 60t-18 108q0 104 57 145.5t180 41.5h289v-108h-270q-56 0 -85.5 -6.5t-43.5 -25t-14 -54.5q0 -41 22 -61.5t81 -30.5l128 -23q84 -15 128.5 -36.5t64.5 -62.5t20 -116
q0 -70 -26 -108t-74.5 -53t-125.5 -15h-314v108zM460 817q-12 -27 -32 -36t-65 -9q-44 0 -63.5 9t-31.5 35l-105 180h116l84 -154l84 154h116z" />
    <glyph glyph-name="scedilla" unicode="&#x15f;" horiz-adv-x="741" 
d="M569.5 354.5q44.5 -21.5 64.5 -62.5t20 -116q0 -70 -26 -108t-74.5 -53t-125.5 -15v-167h-116v167h-198v108h284q53 0 82.5 5t44.5 21t15 49q0 47 -25 69t-92 34l-132 24q-76 14 -117 35t-59 60t-18 108q0 104 57 145.5t180 41.5h289v-108h-270q-56 0 -85.5 -6.5
t-43.5 -25t-14 -54.5q0 -41 22 -61.5t81 -30.5l128 -23q84 -15 128.5 -36.5z" />
    <glyph glyph-name="germandbls" unicode="&#xdf;" horiz-adv-x="828" 
d="M112 715q0 103 28.5 165t89 91t160.5 29h60q96 0 154.5 -27t85.5 -85t27 -153q0 -65 -11 -106t-33.5 -66.5t-62.5 -47.5q56 -19 87 -46.5t45 -74.5t14 -125q0 -105 -25 -162t-84 -82t-169 -25h-108v106h59q93 0 137 13.5t60.5 49.5t16.5 112q0 75 -15 110.5t-55 49
t-124 13.5h-56v113h56q66 0 98.5 12t44.5 44.5t12 100.5q0 65 -17.5 101.5t-57 52.5t-110.5 16q-74 0 -116 -17t-60 -55.5t-18 -106.5v-715h-113v715z" />
    <glyph glyph-name="t" unicode="t" horiz-adv-x="579" 
d="M213 593v-320q0 -73 13.5 -106.5t52 -46t122.5 -12.5h92v-108h-114q-106 0 -165 20.5t-88 77.5t-29 168v619h116v-185h280v-107h-280z" />
    <glyph glyph-name="tbar" unicode="&#x167;" horiz-adv-x="589" 
d="M223 593v-178h263v-108h-263v-34q0 -73 13.5 -106.5t52 -46t122.5 -12.5h92v-108h-114q-106 0 -165 20.5t-88 77.5t-29 168v41h-10v108h10v470h116v-185h280v-107h-280z" />
    <glyph glyph-name="tcaron" unicode="&#x165;" horiz-adv-x="579" 
d="M205 593v-320q0 -73 13.5 -106.5t52 -46t122.5 -12.5h92v-108h-114q-106 0 -165 20.5t-88 77.5t-29 168v619h116v-185h280v-107h-280zM328 804q-15 15 -15 45v269h113v-269q0 -30 -15.5 -45t-41.5 -15t-41 15z" />
    <glyph glyph-name="uni0163" unicode="&#x163;" horiz-adv-x="579" 
d="M213 593v-320q0 -73 13.5 -106.5t52 -46t122.5 -12.5h92v-108h-114h-13v-163h-116v173q-54 11 -87.5 39t-49.5 80.5t-16 136.5v619h116v-185h280v-107h-280z" />
    <glyph glyph-name="u" unicode="u" horiz-adv-x="836" 
d="M724 0h-85l-10 131q-27 -74 -83 -107t-153 -33q-124 0 -187.5 44.5t-83.5 120.5t-20 194v350h113v-350q0 -89 12 -140.5t55.5 -81.5t132.5 -30q85 0 127 28t55.5 80.5t13.5 143.5v350h113v-700z" />
    <glyph glyph-name="uacute" unicode="&#xfa;" horiz-adv-x="836" 
d="M716 0h-85l-10 131q-27 -74 -83 -107t-153 -33q-124 0 -187.5 44.5t-83.5 120.5t-20 194v350h113v-350q0 -89 12 -140.5t55.5 -81.5t132.5 -30q85 0 127 28t55.5 80.5t13.5 143.5v350h113v-700zM343 789l61 211h113l-61 -211h-113z" />
    <glyph glyph-name="ucircumflex" unicode="&#xfb;" horiz-adv-x="836" 
d="M716 0h-85l-10 131q-27 -74 -83 -107t-153 -33q-124 0 -187.5 44.5t-83.5 120.5t-20 194v350h113v-350q0 -89 12 -140.5t55.5 -81.5t132.5 -30q85 0 127 28t55.5 80.5t13.5 143.5v350h113v-700zM485 776l-84 154l-84 -154h-116l105 180q12 26 31.5 35t63.5 9q45 0 65 -9
t32 -36l103 -179h-116z" />
    <glyph glyph-name="udieresis" unicode="&#xfc;" horiz-adv-x="836" 
d="M716 0h-85l-10 131q-27 -74 -83 -107t-153 -33q-124 0 -187.5 44.5t-83.5 120.5t-20 194v350h113v-350q0 -89 12 -140.5t55.5 -81.5t132.5 -30q85 0 127 28t55.5 80.5t13.5 143.5v350h113v-700zM207.5 873.5q-16.5 16.5 -16.5 54.5q0 39 16.5 55.5t55.5 16.5
q38 0 54.5 -16.5t16.5 -55.5q0 -38 -16.5 -54.5t-54.5 -16.5q-39 0 -55.5 16.5zM481.5 874q-16.5 17 -16.5 54q0 39 16.5 55.5t54.5 16.5q39 0 55.5 -16.5t16.5 -55.5q0 -38 -16.5 -54.5t-55.5 -16.5q-38 0 -54.5 17z" />
    <glyph glyph-name="ugrave" unicode="&#xf9;" horiz-adv-x="836" 
d="M716 0h-85l-10 131q-27 -74 -83 -107t-153 -33q-124 0 -187.5 44.5t-83.5 120.5t-20 194v350h113v-350q0 -89 12 -140.5t55.5 -81.5t132.5 -30q85 0 127 28t55.5 80.5t13.5 143.5v350h113v-700zM283 1000h113l61 -211h-113z" />
    <glyph glyph-name="uhungarumlaut" unicode="&#x171;" horiz-adv-x="836" 
d="M716 0h-85l-10 131q-27 -74 -83 -107t-153 -33q-124 0 -187.5 44.5t-83.5 120.5t-20 194v350h113v-350q0 -89 12 -140.5t55.5 -81.5t132.5 -30q85 0 127 28t55.5 80.5t13.5 143.5v350h113v-700zM208 810l44 190h113l-44 -190h-113zM444 810l44 190h114l-45 -190h-113z
" />
    <glyph glyph-name="umacron" unicode="&#x16b;" horiz-adv-x="836" 
d="M716 0h-85l-10 131q-27 -74 -83 -107t-153 -33q-124 0 -187.5 44.5t-83.5 120.5t-20 194v350h113v-350q0 -89 12 -140.5t55.5 -81.5t132.5 -30q85 0 127 28t55.5 80.5t13.5 143.5v350h113v-700zM234 908h334v-100h-334v100z" />
    <glyph glyph-name="uogonek" unicode="&#x173;" horiz-adv-x="836" 
d="M735 -210l-1 -86h-45q-101 0 -144 27t-43 96q0 41 19 65t54 47q25 18 36.5 30.5t11.5 29.5l5 92h4l-3 40q-27 -74 -83 -107t-153 -33q-124 0 -187.5 44.5t-83.5 120.5t-20 194v350h113v-350q0 -89 12 -140.5t55.5 -81.5t132.5 -30q85 0 127 28t55.5 80.5t13.5 143.5v350
h113v-700h-6v-20q0 -27 -15 -43t-44 -34q-26 -17 -38.5 -30t-12.5 -32q0 -27 19.5 -39t62.5 -12h45z" />
    <glyph glyph-name="uring" unicode="&#x16f;" horiz-adv-x="836" 
d="M716 0h-85l-10 131q-27 -74 -83 -107t-153 -33q-124 0 -187.5 44.5t-83.5 120.5t-20 194v350h113v-350q0 -89 12 -140.5t55.5 -81.5t132.5 -30q85 0 127 28t55.5 80.5t13.5 143.5v350h113v-700zM289 811q-36 36 -36 110q0 75 36 111.5t110 36.5q75 0 111.5 -36.5
t36.5 -111.5q0 -74 -36.5 -110t-111.5 -36q-74 0 -110 36zM473 921q0 75 -73 75q-38 0 -56 -18.5t-18 -56.5q0 -75 74 -75q73 0 73 75z" />
    <glyph glyph-name="v" unicode="v" horiz-adv-x="783" 
d="M317 18.5q-25 21.5 -46 76.5l-235 605h120l225 -577q5 -11 11 -11q3 0 6.5 3t4.5 8l224 577h120l-236 -605q-20 -55 -45 -76.5t-75 -21.5q-49 0 -74 21.5z" />
    <glyph glyph-name="w" unicode="w" horiz-adv-x="1182" 
d="M220 19.5q-26 24.5 -39 87.5l-130 593h116l126 -585q3 -12 10 -12q3 0 6.5 3t4.5 8l164 498q16 50 40.5 72t73.5 22t73.5 -22t40.5 -72l164 -498q3 -10 11 -10q7 0 10 11l125 585h116l-130 -593q-13 -61 -38.5 -86.5t-83.5 -25.5q-50 0 -73.5 20.5t-39.5 73.5l-164 499
q-3 11 -10 11q-6 0 -11 -11l-164 -499q-17 -52 -41 -73t-74 -21q-57 0 -83 24.5z" />
    <glyph glyph-name="wacute" unicode="&#x1e83;" horiz-adv-x="1182" 
d="M212 19.5q-26 24.5 -39 87.5l-130 593h116l126 -585q3 -12 10 -12q3 0 6.5 3t4.5 8l164 498q16 50 40.5 72t73.5 22t73.5 -22t40.5 -72l164 -498q3 -10 11 -10q7 0 10 11l125 585h116l-130 -593q-13 -61 -38.5 -86.5t-83.5 -25.5q-50 0 -73.5 20.5t-39.5 73.5l-164 499
q-3 11 -10 11q-6 0 -11 -11l-164 -499q-17 -52 -41 -73t-74 -21q-57 0 -83 24.5zM526 789l61 211h113l-61 -211h-113z" />
    <glyph glyph-name="wcircumflex" unicode="&#x175;" horiz-adv-x="1182" 
d="M212 19.5q-26 24.5 -39 87.5l-130 593h116l126 -585q3 -12 10 -12q3 0 6.5 3t4.5 8l164 498q16 50 40.5 72t73.5 22t73.5 -22t40.5 -72l164 -498q3 -10 11 -10q7 0 10 11l125 585h116l-130 -593q-13 -61 -38.5 -86.5t-83.5 -25.5q-50 0 -73.5 20.5t-39.5 73.5l-164 499
q-3 11 -10 11q-6 0 -11 -11l-164 -499q-17 -52 -41 -73t-74 -21q-57 0 -83 24.5zM668 776l-84 154l-84 -154h-116l105 180q12 26 31.5 35t63.5 9q45 0 65 -9t32 -36l103 -179h-116z" />
    <glyph glyph-name="wdieresis" unicode="&#x1e85;" horiz-adv-x="1182" 
d="M212 19.5q-26 24.5 -39 87.5l-130 593h116l126 -585q3 -12 10 -12q3 0 6.5 3t4.5 8l164 498q16 50 40.5 72t73.5 22t73.5 -22t40.5 -72l164 -498q3 -10 11 -10q7 0 10 11l125 585h116l-130 -593q-13 -61 -38.5 -86.5t-83.5 -25.5q-50 0 -73.5 20.5t-39.5 73.5l-164 499
q-3 11 -10 11q-6 0 -11 -11l-164 -499q-17 -52 -41 -73t-74 -21q-57 0 -83 24.5zM390.5 873.5q-16.5 16.5 -16.5 54.5q0 39 16.5 55.5t55.5 16.5q38 0 54.5 -16.5t16.5 -55.5q0 -38 -16.5 -54.5t-54.5 -16.5q-39 0 -55.5 16.5zM664.5 874q-16.5 17 -16.5 54q0 39 16.5 55.5
t54.5 16.5q39 0 55.5 -16.5t16.5 -55.5q0 -38 -16.5 -54.5t-55.5 -16.5q-38 0 -54.5 17z" />
    <glyph glyph-name="wgrave" unicode="&#x1e81;" horiz-adv-x="1182" 
d="M212 19.5q-26 24.5 -39 87.5l-130 593h116l126 -585q3 -12 10 -12q3 0 6.5 3t4.5 8l164 498q16 50 40.5 72t73.5 22t73.5 -22t40.5 -72l164 -498q3 -10 11 -10q7 0 10 11l125 585h116l-130 -593q-13 -61 -38.5 -86.5t-83.5 -25.5q-50 0 -73.5 20.5t-39.5 73.5l-164 499
q-3 11 -10 11q-6 0 -11 -11l-164 -499q-17 -52 -41 -73t-74 -21q-57 0 -83 24.5zM466 1000h113l61 -211h-113z" />
    <glyph glyph-name="x" unicode="x" horiz-adv-x="709" 
d="M274 357l-246 343h126l202 -278l199 278h126l-245 -342l257 -358h-127l-211 292l-212 -292h-126z" />
    <glyph glyph-name="y" unicode="y" horiz-adv-x="783" 
d="M747 700l-276 -721q-45 -123 -80 -175t-86 -68t-156 -16h-59v113h59q70 0 102 9t54.5 40t54.5 108l12 32q-72 12 -102 96l-234 582h120l224 -553q1 -5 5 -8.5t8 -3.5t7.5 3.5t4.5 8.5l222 553h120z" />
    <glyph glyph-name="yacute" unicode="&#xfd;" horiz-adv-x="783" 
d="M739 700l-276 -721q-45 -123 -80 -175t-86 -68t-156 -16h-59v113h59q70 0 102 9t54.5 40t54.5 108l12 32q-72 12 -102 96l-234 582h120l224 -553q1 -5 5 -8.5t8 -3.5t7.5 3.5t4.5 8.5l222 553h120zM335 789l61 211h113l-61 -211h-113z" />
    <glyph glyph-name="ycircumflex" unicode="&#x177;" horiz-adv-x="783" 
d="M739 700l-276 -721q-45 -123 -80 -175t-86 -68t-156 -16h-59v113h59q70 0 102 9t54.5 40t54.5 108l12 32q-72 12 -102 96l-234 582h120l224 -553q1 -5 5 -8.5t8 -3.5t7.5 3.5t4.5 8.5l222 553h120zM477 776l-84 154l-84 -154h-116l105 180q12 26 31.5 35t63.5 9
q45 0 65 -9t32 -36l103 -179h-116z" />
    <glyph glyph-name="ydieresis" unicode="&#xff;" horiz-adv-x="783" 
d="M739 700l-276 -721q-45 -123 -80 -175t-86 -68t-156 -16h-59v113h59q70 0 102 9t54.5 40t54.5 108l12 32q-72 12 -102 96l-234 582h120l224 -553q1 -5 5 -8.5t8 -3.5t7.5 3.5t4.5 8.5l222 553h120zM199.5 873.5q-16.5 16.5 -16.5 54.5q0 39 16.5 55.5t55.5 16.5
q38 0 54.5 -16.5t16.5 -55.5q0 -38 -16.5 -54.5t-54.5 -16.5q-39 0 -55.5 16.5zM473.5 874q-16.5 17 -16.5 54q0 39 16.5 55.5t54.5 16.5q39 0 55.5 -16.5t16.5 -55.5q0 -38 -16.5 -54.5t-55.5 -16.5q-38 0 -54.5 17z" />
    <glyph glyph-name="ygrave" unicode="&#x1ef3;" horiz-adv-x="783" 
d="M739 700l-276 -721q-45 -123 -80 -175t-86 -68t-156 -16h-59v113h59q70 0 102 9t54.5 40t54.5 108l12 32q-72 12 -102 96l-234 582h120l224 -553q1 -5 5 -8.5t8 -3.5t7.5 3.5t4.5 8.5l222 553h120zM275 1000h113l61 -211h-113z" />
    <glyph glyph-name="z" unicode="z" horiz-adv-x="727" 
d="M114 5q-22 5 -32.5 22t-10.5 53v8q0 57 42 95l428 393q9 8 9 14q0 9 -13 9h-455v101h473q42 0 62.5 -5.5t29.5 -24t9 -57.5v-4q0 -57 -42 -95l-428 -392q-4 -4 -6 -6.5t-2 -6.5q0 -9 10 -9h468v-100h-475q-45 0 -67 5z" />
    <glyph glyph-name="zacute" unicode="&#x17a;" horiz-adv-x="727" 
d="M106 5q-22 5 -32.5 22t-10.5 53v8q0 57 42 95l428 393q9 8 9 14q0 9 -13 9h-455v101h473q42 0 62.5 -5.5t29.5 -24t9 -57.5v-4q0 -57 -42 -95l-428 -392q-4 -4 -6 -6.5t-2 -6.5q0 -9 10 -9h468v-100h-475q-45 0 -67 5zM301 794l61 211h113l-61 -211h-113z" />
    <glyph glyph-name="zcaron" unicode="&#x17e;" horiz-adv-x="727" 
d="M106 5q-22 5 -32.5 22t-10.5 53v8q0 57 42 95l428 393q9 8 9 14q0 9 -13 9h-455v101h473q42 0 62.5 -5.5t29.5 -24t9 -57.5v-4q0 -57 -42 -95l-428 -392q-4 -4 -6 -6.5t-2 -6.5q0 -9 10 -9h468v-100h-475q-45 0 -67 5zM456 826q-12 -27 -32 -36t-65 -9q-44 0 -63.5 9
t-31.5 35l-105 180h116l84 -154l84 154h116z" />
    <glyph glyph-name="zdotaccent" unicode="&#x17c;" horiz-adv-x="727" 
d="M106 5q-22 5 -32.5 22t-10.5 53v8q0 57 42 95l428 393q9 8 9 14q0 9 -13 9h-455v101h473q42 0 62.5 -5.5t29.5 -24t9 -57.5v-4q0 -57 -42 -95l-428 -392q-4 -4 -6 -6.5t-2 -6.5q0 -9 10 -9h468v-100h-475q-45 0 -67 5zM303.5 891.5q-16.5 16.5 -16.5 55.5q0 38 16.5 54.5
t54.5 16.5q39 0 55.5 -16.5t16.5 -54.5q0 -39 -16.5 -55.5t-55.5 -16.5q-38 0 -54.5 16.5z" />
    <glyph glyph-name="c.ss01" horiz-adv-x="803" 
d="M547.5 555q-42.5 37 -142.5 37q-76 0 -119 -20t-60.5 -59t-17.5 -100v-126q0 -61 17.5 -100t60.5 -59t119 -20q100 0 142.5 37t47.5 119h116q2 -127 -67.5 -195.5t-215.5 -68.5h-48q-142 0 -215 71.5t-73 205.5v146q0 134 73 205.5t215 71.5h48q146 0 215.5 -68.5
t67.5 -195.5h-116q-5 82 -47.5 119z" />
    <glyph glyph-name="cacute.ss01" horiz-adv-x="803" 
d="M539.5 555q-42.5 37 -142.5 37q-76 0 -119 -20t-60.5 -59t-17.5 -100v-126q0 -61 17.5 -100t60.5 -59t119 -20q100 0 142.5 37t47.5 119h116q2 -127 -67.5 -195.5t-215.5 -68.5h-48q-142 0 -215 71.5t-73 205.5v146q0 134 73 205.5t215 71.5h48q146 0 215.5 -68.5
t67.5 -195.5h-116q-5 82 -47.5 119zM339 789l61 211h113l-61 -211h-113z" />
    <glyph glyph-name="ccaron.ss01" horiz-adv-x="803" 
d="M539.5 555q-42.5 37 -142.5 37q-76 0 -119 -20t-60.5 -59t-17.5 -100v-126q0 -61 17.5 -100t60.5 -59t119 -20q100 0 142.5 37t47.5 119h116q2 -127 -67.5 -195.5t-215.5 -68.5h-48q-142 0 -215 71.5t-73 205.5v146q0 134 73 205.5t215 71.5h48q146 0 215.5 -68.5
t67.5 -195.5h-116q-5 82 -47.5 119zM494 821q-12 -27 -32 -36t-65 -9q-44 0 -63.5 9t-31.5 35l-105 180h116l84 -154l84 154h116z" />
    <glyph glyph-name="ccedilla.ss01" horiz-adv-x="803" 
d="M711 264q2 -119 -59 -187t-190 -76v-164h-116v164q-126 9 -190 80t-64 196v146q0 134 73 205.5t215 71.5h48q146 0 215.5 -68.5t67.5 -195.5h-116q-5 82 -47.5 119t-142.5 37q-76 0 -119 -20t-60.5 -59t-17.5 -100v-126q0 -61 17.5 -100t60.5 -59t119 -20q100 0 142.5 37
t47.5 119h116z" />
    <glyph glyph-name="s.ss01" horiz-adv-x="756" 
d="M194 14.5q-63 19.5 -87.5 68t-24.5 145.5h114q-2 -55 10.5 -81t51 -36t121.5 -10q76 0 114 8.5t52.5 27.5t14.5 55q0 32 -10.5 51.5t-39 31.5t-84.5 20l-107 16q-93 14 -141.5 35.5t-66.5 57.5t-18 97q0 85 23.5 127.5t83.5 59.5t179 17q118 0 177.5 -19t83 -67
t23.5 -143h-114q2 56 -10.5 82t-48 36t-112.5 10q-71 0 -107.5 -8.5t-50 -28t-13.5 -57.5q0 -30 9.5 -47.5t35.5 -29t78 -18.5l106 -16q101 -15 150.5 -35.5t68.5 -56.5t19 -103q0 -87 -24 -130.5t-85.5 -61t-182.5 -17.5q-125 0 -188 19.5z" />
    <glyph glyph-name="sacute.ss01" horiz-adv-x="756" 
d="M186 14.5q-63 19.5 -87.5 68t-24.5 145.5h114q-2 -55 10.5 -81t51 -36t121.5 -10q76 0 114 8.5t52.5 27.5t14.5 55q0 32 -10.5 51.5t-39 31.5t-84.5 20l-107 16q-93 14 -141.5 35.5t-66.5 57.5t-18 97q0 85 23.5 127.5t83.5 59.5t179 17q118 0 177.5 -19t83 -67
t23.5 -143h-114q2 56 -10.5 82t-48 36t-112.5 10q-71 0 -107.5 -8.5t-50 -28t-13.5 -57.5q0 -30 9.5 -47.5t35.5 -29t78 -18.5l106 -16q101 -15 150.5 -35.5t68.5 -56.5t19 -103q0 -87 -24 -130.5t-85.5 -61t-182.5 -17.5q-125 0 -188 19.5zM312 789l61 211h113l-61 -211
h-113z" />
    <glyph glyph-name="scaron.ss01" horiz-adv-x="756" 
d="M186 14.5q-63 19.5 -87.5 68t-24.5 145.5h114q-2 -55 10.5 -81t51 -36t121.5 -10q76 0 114 8.5t52.5 27.5t14.5 55q0 32 -10.5 51.5t-39 31.5t-84.5 20l-107 16q-93 14 -141.5 35.5t-66.5 57.5t-18 97q0 85 23.5 127.5t83.5 59.5t179 17q118 0 177.5 -19t83 -67
t23.5 -143h-114q2 56 -10.5 82t-48 36t-112.5 10q-71 0 -107.5 -8.5t-50 -28t-13.5 -57.5q0 -30 9.5 -47.5t35.5 -29t78 -18.5l106 -16q101 -15 150.5 -35.5t68.5 -56.5t19 -103q0 -87 -24 -130.5t-85.5 -61t-182.5 -17.5q-125 0 -188 19.5zM467 821q-12 -27 -32 -36t-65 -9
q-44 0 -63.5 9t-31.5 35l-105 180h116l84 -154l84 154h116z" />
    <glyph glyph-name="scedilla.ss01" horiz-adv-x="756" 
d="M654 81q-20 -43 -70.5 -62.5t-148.5 -22.5v-159h-116v159q-97 5 -147 27t-70 69.5t-20 135.5h114q-2 -55 10.5 -81t51 -36t121.5 -10q76 0 114 8.5t52.5 27.5t14.5 55q0 32 -10.5 51.5t-39 31.5t-84.5 20l-107 16q-93 14 -141.5 35.5t-66.5 57.5t-18 97q0 85 23.5 127.5
t83.5 59.5t179 17q118 0 177.5 -19t83 -67t23.5 -143h-114q2 56 -10.5 82t-48 36t-112.5 10q-71 0 -107.5 -8.5t-50 -28t-13.5 -57.5q0 -30 9.5 -47.5t35.5 -29t78 -18.5l106 -16q101 -15 150.5 -35.5t68.5 -56.5t19 -103q0 -80 -20 -123z" />
    <glyph glyph-name="a.ss17" horiz-adv-x="801" 
d="M591 674.5q57 -25.5 82.5 -91t25.5 -190.5v-393h-85l-8 168q-39 -87 -115.5 -130t-179.5 -43q-127 0 -185.5 55t-58.5 170q0 72 27.5 115.5t86 63.5t154.5 20h251q-1 79 -14 115.5t-49 50t-114 13.5h-270v102h292q103 0 160 -25.5zM503 155.5q70 55.5 81 169.5h-249
q-84 0 -120 -24t-36 -80q0 -65 34.5 -93t113.5 -28q106 0 176 55.5z" />
    <glyph glyph-name="aacute.ss17" horiz-adv-x="801" 
d="M583 674.5q57 -25.5 82.5 -91t25.5 -190.5v-393h-85l-8 168q-39 -87 -115.5 -130t-179.5 -43q-127 0 -185.5 55t-58.5 170q0 72 27.5 115.5t86 63.5t154.5 20h251q-1 79 -14 115.5t-49 50t-114 13.5h-270v102h292q103 0 160 -25.5zM495 155.5q70 55.5 81 169.5h-249
q-84 0 -120 -24t-36 -80q0 -65 34.5 -93t113.5 -28q106 0 176 55.5zM349 789l61 211h113l-61 -211h-113z" />
    <glyph glyph-name="abreve.ss17" horiz-adv-x="801" 
d="M583 674.5q57 -25.5 82.5 -91t25.5 -190.5v-393h-85l-8 168q-39 -87 -115.5 -130t-179.5 -43q-127 0 -185.5 55t-58.5 170q0 72 27.5 115.5t86 63.5t154.5 20h251q-1 79 -14 115.5t-49 50t-114 13.5h-270v102h292q103 0 160 -25.5zM495 155.5q70 55.5 81 169.5h-249
q-84 0 -120 -24t-36 -80q0 -65 34.5 -93t113.5 -28q106 0 176 55.5zM254.5 844.5q-46.5 47.5 -46.5 155.5h90q0 -59 26 -86t81 -27t81 27t26 86h91q0 -108 -47 -155.5t-151 -47.5t-150.5 47.5z" />
    <glyph glyph-name="acircumflex.ss17" horiz-adv-x="801" 
d="M583 674.5q57 -25.5 82.5 -91t25.5 -190.5v-393h-85l-8 168q-39 -87 -115.5 -130t-179.5 -43q-127 0 -185.5 55t-58.5 170q0 72 27.5 115.5t86 63.5t154.5 20h251q-1 79 -14 115.5t-49 50t-114 13.5h-270v102h292q103 0 160 -25.5zM495 155.5q70 55.5 81 169.5h-249
q-84 0 -120 -24t-36 -80q0 -65 34.5 -93t113.5 -28q106 0 176 55.5zM491 776l-84 154l-84 -154h-116l105 180q12 26 31.5 35t63.5 9q45 0 65 -9t32 -36l103 -179h-116z" />
    <glyph glyph-name="adieresis.ss17" horiz-adv-x="801" 
d="M583 674.5q57 -25.5 82.5 -91t25.5 -190.5v-393h-85l-8 168q-39 -87 -115.5 -130t-179.5 -43q-127 0 -185.5 55t-58.5 170q0 72 27.5 115.5t86 63.5t154.5 20h251q-1 79 -14 115.5t-49 50t-114 13.5h-270v102h292q103 0 160 -25.5zM495 155.5q70 55.5 81 169.5h-249
q-84 0 -120 -24t-36 -80q0 -65 34.5 -93t113.5 -28q106 0 176 55.5zM213.5 873.5q-16.5 16.5 -16.5 54.5q0 39 16.5 55.5t55.5 16.5q38 0 54.5 -16.5t16.5 -55.5q0 -38 -16.5 -54.5t-54.5 -16.5q-39 0 -55.5 16.5zM487.5 874q-16.5 17 -16.5 54q0 39 16.5 55.5t54.5 16.5
q39 0 55.5 -16.5t16.5 -55.5q0 -38 -16.5 -54.5t-55.5 -16.5q-38 0 -54.5 17z" />
    <glyph glyph-name="agrave.ss17" horiz-adv-x="801" 
d="M583 674.5q57 -25.5 82.5 -91t25.5 -190.5v-393h-85l-8 168q-39 -87 -115.5 -130t-179.5 -43q-127 0 -185.5 55t-58.5 170q0 72 27.5 115.5t86 63.5t154.5 20h251q-1 79 -14 115.5t-49 50t-114 13.5h-270v102h292q103 0 160 -25.5zM495 155.5q70 55.5 81 169.5h-249
q-84 0 -120 -24t-36 -80q0 -65 34.5 -93t113.5 -28q106 0 176 55.5zM289 1000h113l61 -211h-113z" />
    <glyph glyph-name="amacron.ss17" horiz-adv-x="801" 
d="M583 674.5q57 -25.5 82.5 -91t25.5 -190.5v-393h-85l-8 168q-39 -87 -115.5 -130t-179.5 -43q-127 0 -185.5 55t-58.5 170q0 72 27.5 115.5t86 63.5t154.5 20h251q-1 79 -14 115.5t-49 50t-114 13.5h-270v102h292q103 0 160 -25.5zM495 155.5q70 55.5 81 169.5h-249
q-84 0 -120 -24t-36 -80q0 -65 34.5 -93t113.5 -28q106 0 176 55.5zM240 908h334v-100h-334v100z" />
    <glyph glyph-name="aogonek.ss17" horiz-adv-x="801" 
d="M716 -210l-1 -86h-45q-101 0 -144 27t-43 96q0 41 19 65t54 47q25 18 36.5 30.5t11.5 29.5l5 92l-3 77q-39 -87 -115.5 -130t-179.5 -43q-127 0 -185.5 55t-58.5 170q0 72 27.5 115.5t86 63.5t154.5 20h251q-1 79 -14 115.5t-49 50t-114 13.5h-270v102h292
q103 0 160 -25.5t82.5 -91t25.5 -190.5v-413q0 -27 -15 -43t-44 -34q-26 -17 -38.5 -30t-12.5 -32q0 -27 19.5 -39t62.5 -12h45zM503 155.5q70 55.5 81 169.5h-249q-84 0 -120 -24t-36 -80q0 -65 34.5 -93t113.5 -28q106 0 176 55.5z" />
    <glyph glyph-name="aring.ss17" horiz-adv-x="801" 
d="M583 674.5q57 -25.5 82.5 -91t25.5 -190.5v-393h-85l-8 168q-39 -87 -115.5 -130t-179.5 -43q-127 0 -185.5 55t-58.5 170q0 72 27.5 115.5t86 63.5t154.5 20h251q-1 79 -14 115.5t-49 50t-114 13.5h-270v102h292q103 0 160 -25.5zM495 155.5q70 55.5 81 169.5h-249
q-84 0 -120 -24t-36 -80q0 -65 34.5 -93t113.5 -28q106 0 176 55.5zM295 811q-36 36 -36 110q0 75 36 111.5t110 36.5q75 0 111.5 -36.5t36.5 -111.5q0 -74 -36.5 -110t-111.5 -36q-74 0 -110 36zM479 921q0 75 -73 75q-38 0 -56 -18.5t-18 -56.5q0 -75 74 -75q73 0 73 75z
" />
    <glyph glyph-name="atilde.ss17" horiz-adv-x="801" 
d="M583 674.5q57 -25.5 82.5 -91t25.5 -190.5v-393h-85l-8 168q-39 -87 -115.5 -130t-179.5 -43q-127 0 -185.5 55t-58.5 170q0 72 27.5 115.5t86 63.5t154.5 20h251q-1 79 -14 115.5t-49 50t-114 13.5h-270v102h292q103 0 160 -25.5zM495 155.5q70 55.5 81 169.5h-249
q-84 0 -120 -24t-36 -80q0 -65 34.5 -93t113.5 -28q106 0 176 55.5zM441 825q-31 21 -65 60q-25 29 -43 42.5t-43 13.5q-27 0 -44.5 -18t-17.5 -54v-61h-84v72q0 59 35 99.5t112 40.5q40 0 69.5 -12.5t48 -30t40.5 -44.5q21 -26 36 -38t35 -12q28 0 44.5 15.5t16.5 48.5v69
h87v-81q0 -55 -34.5 -93t-110.5 -38q-51 0 -82 21z" />
    <glyph glyph-name="r.ss18" horiz-adv-x="545" 
d="M489 700v-107h-110q-70 0 -104 -13.5t-47 -48.5t-13 -106v-425h-113v436q0 112 21.5 167t76.5 76t167 21h122z" />
    <glyph glyph-name="racute.ss18" horiz-adv-x="545" 
d="M481 700v-107h-110q-70 0 -104 -13.5t-47 -48.5t-13 -106v-425h-113v436q0 112 21.5 167t76.5 76t167 21h122zM175 789l61 211h113l-61 -211h-113z" />
    <glyph glyph-name="rcaron.ss18" horiz-adv-x="545" 
d="M481 700v-107h-110q-70 0 -104 -13.5t-47 -48.5t-13 -106v-425h-113v436q0 112 21.5 167t76.5 76t167 21h122zM329 821q-12 -27 -32 -36t-65 -9q-44 0 -63.5 9t-31.5 35l-105 180h116l84 -154l84 154h116z" />
    <glyph glyph-name="uni0157.ss18" horiz-adv-x="545" 
d="M481 700v-107h-110q-70 0 -104 -13.5t-47 -48.5t-13 -106v-425h-113v436q0 112 21.5 167t76.5 76t167 21h122zM220 -73.5q14 -13.5 15 -54.5q-1 -63 -42 -114l-112 -138l-38 30l102 137q-32 12 -42 28.5t-10 51.5q0 43 14.5 58t56.5 15t56 -13.5zM235 -135v7v5v-12z" />
    <glyph glyph-name="t.ss19" horiz-adv-x="577" 
d="M536 595h-189v-595h-113v595h-192v105h192v191h113v-191h189v-105z" />
    <glyph glyph-name="tbar.ss19" horiz-adv-x="577" 
d="M347 595v-193h184v-104h-184v-298h-113v298h-148v104h148v193h-192v105h192v191h113v-191h189v-105h-189z" />
    <glyph glyph-name="tcaron.ss19" horiz-adv-x="577" 
d="M536 595h-189v-595h-113v595h-192v105h192v82q-26 8 -39 38l-105 180h116l59 -109h50l59 109h116l-103 -179q-7 -16 -16 -25.5t-24 -13.5v-82h189v-105z" />
    <glyph glyph-name="uni0163.ss19" horiz-adv-x="577" 
d="M536 595h-189v-758h-116v195h3v563h-192v105h192v191h113v-191h189v-105z" />
    <glyph glyph-name="y.ss20" horiz-adv-x="840" 
d="M729 -48q0 -90 -28.5 -145t-94.5 -81t-181 -26h-257v108h257q105 0 148 35t43 109v152q-30 -52 -83 -75.5t-138 -23.5q-112 0 -175 34t-90.5 110.5t-27.5 210.5v340h113v-340q0 -99 18 -151.5t61 -74t124 -21.5q79 0 121 21.5t59.5 74t17.5 151.5v340h113v-748z" />
    <glyph glyph-name="yacute.ss20" horiz-adv-x="840" 
d="M721 -48q0 -90 -28.5 -145t-94.5 -81t-181 -26h-257v108h257q105 0 148 35t43 109v152q-30 -52 -83 -75.5t-138 -23.5q-112 0 -175 34t-90.5 110.5t-27.5 210.5v340h113v-340q0 -99 18 -151.5t61 -74t124 -21.5q79 0 121 21.5t59.5 74t17.5 151.5v340h113v-748zM375 789
l61 211h113l-61 -211h-113z" />
    <glyph glyph-name="ycircumflex.ss20" horiz-adv-x="840" 
d="M721 -48q0 -90 -28.5 -145t-94.5 -81t-181 -26h-257v108h257q105 0 148 35t43 109v152q-30 -52 -83 -75.5t-138 -23.5q-112 0 -175 34t-90.5 110.5t-27.5 210.5v340h113v-340q0 -99 18 -151.5t61 -74t124 -21.5q79 0 121 21.5t59.5 74t17.5 151.5v340h113v-748zM516 776
l-84 154l-84 -154h-116l105 180q12 26 31.5 35t63.5 9q45 0 65 -9t32 -36l103 -179h-116z" />
    <glyph glyph-name="ydieresis.ss20" horiz-adv-x="840" 
d="M721 -48q0 -90 -28.5 -145t-94.5 -81t-181 -26h-257v108h257q105 0 148 35t43 109v152q-30 -52 -83 -75.5t-138 -23.5q-112 0 -175 34t-90.5 110.5t-27.5 210.5v340h113v-340q0 -99 18 -151.5t61 -74t124 -21.5q79 0 121 21.5t59.5 74t17.5 151.5v340h113v-748z
M239.5 873.5q-16.5 16.5 -16.5 54.5q0 39 16.5 55.5t55.5 16.5q38 0 54.5 -16.5t16.5 -55.5q0 -38 -16.5 -54.5t-54.5 -16.5q-39 0 -55.5 16.5zM513.5 874q-16.5 17 -16.5 54q0 39 16.5 55.5t54.5 16.5q39 0 55.5 -16.5t16.5 -55.5q0 -38 -16.5 -54.5t-55.5 -16.5
q-38 0 -54.5 17z" />
    <glyph glyph-name="ygrave.ss20" horiz-adv-x="840" 
d="M721 -48q0 -90 -28.5 -145t-94.5 -81t-181 -26h-257v108h257q105 0 148 35t43 109v152q-30 -52 -83 -75.5t-138 -23.5q-112 0 -175 34t-90.5 110.5t-27.5 210.5v340h113v-340q0 -99 18 -151.5t61 -74t124 -21.5q79 0 121 21.5t59.5 74t17.5 151.5v340h113v-748zM314 1000
h113l61 -211h-113z" />
    <glyph glyph-name="Alpha" unicode="&#x391;" horiz-adv-x="903" 
d="M321 903q13 50 41.5 74.5t81.5 24.5q51 0 79 -23t42 -77l306 -902h-120l-295 875q-3 10 -12 10t-12 -10l-295 -875h-122z" />
    <glyph glyph-name="uni03A9" unicode="&#x3a9;" horiz-adv-x="885" 
d="M73 103h185q19 0 27 5.5t8 18.5q0 12 -6.5 23.5t-23.5 25.5q-57 47 -97 95t-64.5 116t-24.5 159v126q0 119 33 191.5t106.5 106.5t197.5 34h59q123 0 196 -34t106 -106t33 -192v-126q0 -91 -24.5 -159t-64 -116.5t-96.5 -94.5q-17 -14 -23.5 -25t-6.5 -24t7.5 -18.5
t26.5 -5.5h186v-103h-234q-45 0 -65.5 18t-20.5 58v83q0 24 11 44.5t35 39.5q58 46 90.5 84.5t49 90t16.5 128.5v126q0 93 -21.5 140.5t-74 66t-156.5 18.5t-157 -18.5t-74 -66t-21 -140.5v-126q0 -77 16.5 -128t49 -89.5t91.5 -85.5q23 -19 33.5 -39.5t10.5 -44.5v-83
q0 -39 -20 -57.5t-65 -18.5h-234v103z" />
    <glyph glyph-name="epsilon" horiz-adv-x="613" 
 />
    <glyph glyph-name="zero" unicode="0" horiz-adv-x="873" 
d="M220 31q-66 31 -97 104.5t-31 202.5v324q0 118 27.5 191t94 110t183.5 37h80q111 0 176.5 -31t96.5 -104.5t31 -202.5v-324q0 -118 -27 -191t-93.5 -110t-183.5 -37h-80q-111 0 -177 31zM583 128q47 20 65 68t18 142v324q0 94 -18 142t-65 68t-142 20q-96 0 -144.5 -20
t-67 -68t-18.5 -142v-324q0 -94 18.5 -142t67 -68t144.5 -20q95 0 142 20z" />
    <glyph glyph-name="one" unicode="1" horiz-adv-x="525" 
d="M293 884q-8 8 -32 8h-199v108h253q50 0 74.5 -24t24.5 -75v-901h-113v852q0 24 -8 32z" />
    <glyph glyph-name="two" unicode="2" horiz-adv-x="812" 
d="M98 191q0 102 16.5 154.5t77.5 95.5t200 92q98 35 145.5 65t63.5 63.5t16 86.5q0 60 -18.5 91.5t-58 43t-110.5 11.5h-332v109h332q107 0 170.5 -19.5t96.5 -73.5t33 -155q0 -89 -20 -142t-79.5 -94t-181.5 -81q-110 -38 -158 -67t-64 -67t-16 -113v-83h514v-108h-627
v191z" />
    <glyph glyph-name="three" unicode="3" horiz-adv-x="797" 
d="M82 108h317q92 0 136.5 14t61 50t16.5 110t-15 110t-55.5 50t-123.5 14h-220v109h220q75 0 111.5 12.5t50 45.5t13.5 100q0 73 -15 108t-55.5 48t-124.5 13h-317v108h362q104 0 160 -24.5t79.5 -81t23.5 -159.5q0 -67 -10.5 -108.5t-35.5 -68.5t-71 -44
q51 -17 80.5 -45.5t42.5 -76.5t13 -123q0 -105 -25 -162t-85 -82t-172 -25h-362v108z" />
    <glyph glyph-name="four" unicode="4" horiz-adv-x="854" 
d="M629 406h-273q-110 0 -162.5 20.5t-71.5 73t-19 162.5v338h117v-338q0 -70 9 -100t36 -39.5t91 -9.5h273v487h113v-1000h-113v406z" />
    <glyph glyph-name="five" unicode="5" horiz-adv-x="820" 
d="M424 104q84 0 125 12t59 51t18 121q0 85 -18 124.5t-58 52t-122 12.5h-223q-50 0 -74.5 24t-24.5 75v325q0 50 24 74.5t75 24.5h497v-108h-443q-24 0 -32 -8t-8 -32v-226q0 -24 8 -32t32 -8h187q111 0 173 -23.5t91 -87.5t29 -187q0 -113 -29.5 -175t-92.5 -87.5
t-171 -25.5h-340v104h318z" />
    <glyph glyph-name="six" unicode="6" horiz-adv-x="843" 
d="M656 560.5q65 -28.5 89 -90t24 -174.5q0 -110 -29.5 -174.5t-95 -93t-178.5 -28.5h-76q-150 0 -220.5 70t-70.5 231v432q0 139 68 203t214 64h327v-108h-275q-87 0 -133 -14t-65 -47.5t-19 -97.5v-144h250q125 0 190 -28.5zM571.5 123.5q45.5 15.5 64 56t18.5 121.5
q0 79 -12.5 114t-55 50t-139.5 15h-231v-179q0 -81 19 -121.5t65 -56t137 -15.5q89 0 134.5 15.5z" />
    <glyph glyph-name="seven" unicode="7" horiz-adv-x="714" 
d="M258.5 406.5q15.5 51.5 44 89.5t87.5 102l41 45q62 68 86.5 97t35.5 52.5t11 51.5v8q0 24 -8 32t-32 8h-493v108h547q50 0 74.5 -24t24.5 -75v-31q0 -54 -12.5 -92.5t-43.5 -79.5t-98 -112l-34 -37q-57 -61 -82 -94t-38 -75.5t-13 -109.5v-270h-113v276q0 79 15.5 130.5z
" />
    <glyph glyph-name="eight" unicode="8" horiz-adv-x="840" 
d="M206 24.5q-61 24.5 -90 82.5t-29 162q0 109 36 166.5t116 80.5q-70 24 -101.5 75.5t-31.5 143.5q0 102 27 159.5t84 81.5t153 24h100q97 0 154 -24.5t83.5 -81.5t26.5 -159q0 -92 -31.5 -143.5t-101.5 -75.5q80 -23 116 -80.5t36 -166.5q0 -104 -29 -162t-90 -82.5
t-164 -24.5h-100q-103 0 -164 24.5zM543.5 580.5q42.5 13.5 60 46.5t17.5 97q0 69 -17.5 105t-60 50.5t-123.5 14.5t-123.5 -14.5t-60 -50.5t-17.5 -105q0 -63 17.5 -96.5t60 -47t123.5 -13.5t123.5 13.5zM555.5 121q46.5 15 65.5 52t19 108q0 70 -19 106.5t-65.5 51.5
t-135.5 15t-135.5 -15t-65.5 -51.5t-19 -106.5q0 -71 19 -108t65.5 -52t135.5 -15t135.5 15z" />
    <glyph glyph-name="nine" unicode="9" horiz-adv-x="843" 
d="M673.5 930q70.5 -70 70.5 -231v-432q0 -139 -68 -203t-214 -64h-327v108h275q87 0 133 14t65 47.5t19 97.5v144h-250q-125 0 -190 28.5t-89 90t-24 174.5q0 110 29.5 174.5t95 93t178.5 28.5h76q150 0 220.5 -70zM627 520v179q0 81 -19 121.5t-65 56t-137 15.5
q-89 0 -134.5 -15.5t-64 -56t-18.5 -121.5q0 -79 12.5 -114t55 -50t139.5 -15h231z" />
    <glyph glyph-name="two.ss01" horiz-adv-x="774" 
d="M94.5 24q-24.5 24 -24.5 75v80q0 101 39.5 164.5t96 97t148.5 69.5q78 31 122 55.5t74 66t30 106.5q0 66 -15 98t-57 45t-130 13q-85 0 -125 -15t-55 -55t-15 -125h-113q0 120 24 184.5t82 92t166 27.5h80q104 0 162 -23.5t83.5 -78.5t25.5 -153q0 -104 -39.5 -168.5
t-96 -98.5t-149.5 -71q-77 -31 -121 -55.5t-74 -67t-30 -108.5v-31q0 -24 8 -32t32 -8h466v-108h-520q-50 0 -74.5 24z" />
    <glyph glyph-name="three.ss01" horiz-adv-x="797" 
d="M189 26q-58 26 -82.5 86.5t-24.5 172.5h113q0 -77 16 -114t58 -51t130 -14q92 0 136.5 13.5t61 50t16.5 111.5t-15 110.5t-55.5 49t-124.5 13.5h-105v113h105q76 0 112.5 12t50 44.5t13.5 100.5q0 73 -15 108t-55.5 48.5t-124.5 13.5q-88 0 -130 -14t-58 -51t-16 -114
h-113q0 112 24.5 172.5t82.5 86.5t166 26h92q102 0 157.5 -24.5t79 -81t23.5 -159.5q0 -67 -12 -107t-41.5 -66t-85.5 -47q60 -20 94 -47.5t49 -74t15 -124.5q0 -105 -25 -162t-84.5 -82t-169.5 -25h-92q-108 0 -166 26z" />
    <glyph glyph-name="five.ss01" horiz-adv-x="836" 
d="M218.5 27q-59.5 27 -86 88t-26.5 170h113q0 -78 16.5 -116t60.5 -52t136 -14q91 0 134.5 15t60 54.5t16.5 121.5q0 83 -16.5 123.5t-60 56t-130.5 15.5h-231q-50 0 -74.5 24t-24.5 75v313q0 50 24 74.5t75 24.5h513v-108h-459q-24 0 -32 -8t-8 -32v-215q0 -24 8 -32
t32 -8h177q130 0 197.5 -26t95 -90t27.5 -187q0 -112 -25.5 -175t-84.5 -91t-164 -28h-98q-106 0 -165.5 27z" />
    <glyph glyph-name="zero.tf" horiz-adv-x="829" 
d="M199.5 34q-64.5 34 -93 107.5t-28.5 197.5v323q0 124 28.5 197.5t93 107.5t174.5 34h82q110 0 174.5 -34t93 -107.5t28.5 -197.5v-323q0 -124 -28.5 -197.5t-93 -107.5t-174.5 -34h-82q-110 0 -174.5 34zM556 128q46 20 63.5 68.5t17.5 142.5v323q0 94 -17.5 142.5
t-63.5 68.5t-138 20q-93 0 -140 -20t-64.5 -68.5t-17.5 -142.5v-323q0 -94 17.5 -142.5t64.5 -68.5t140 -20q92 0 138 20z" />
    <glyph glyph-name="one.tf" horiz-adv-x="829" 
d="M481 885q-8 8 -32 8h-291v108h345q50 0 74.5 -24t24.5 -75v-902h-113v853q0 24 -8 32z" />
    <glyph glyph-name="two.tf" horiz-adv-x="829" 
d="M127.5 24q-24.5 24 -24.5 75v105q0 100 39.5 161t96.5 91.5t150 63.5q79 28 125.5 51t77.5 65.5t31 109.5q0 63 -15 92.5t-58 41.5t-134 12q-88 0 -129 -13t-56 -47.5t-15 -106.5h-113q0 100 23.5 159.5t78 87.5t149.5 28h128q91 0 146 -24t81.5 -79.5t26.5 -150.5
q0 -101 -40 -162.5t-97.5 -92.5t-151.5 -65q-78 -28 -123.5 -51.5t-76.5 -64.5t-31 -106v-56q0 -24 8 -32t32 -8h476v-108h-530q-50 0 -74.5 24z" />
    <glyph glyph-name="three.tf" horiz-adv-x="829" 
d="M193 26q-59 26 -83.5 86.5t-24.5 172.5h113q0 -77 16 -114t58.5 -51t131.5 -14q93 0 138 13.5t62 50t17 111.5t-15.5 111t-56 49.5t-125.5 13.5h-106v113h106q77 0 113.5 12t50.5 44.5t14 100.5q0 73 -15.5 108t-56.5 48.5t-126 13.5q-89 0 -131.5 -14t-58.5 -51
t-16 -114h-113q0 112 24.5 172.5t83.5 86.5t168 26h92q103 0 159 -24.5t79.5 -81t23.5 -159.5q0 -67 -12 -107t-42 -66t-87 -47q61 -20 95 -48t49.5 -74.5t15.5 -124.5q0 -105 -25 -162t-85 -82t-171 -25h-92q-109 0 -168 26z" />
    <glyph glyph-name="four.tf" horiz-adv-x="829" 
d="M597 429h-231q-119 0 -183.5 29.5t-90 94.5t-25.5 181v267h117v-267q0 -91 12 -130t48.5 -52.5t121.5 -13.5h231v463h117v-1001h-117v429z" />
    <glyph glyph-name="five.tf" horiz-adv-x="829" 
d="M214.5 27q-59.5 27 -85.5 88.5t-26 169.5h113q0 -78 16.5 -116t60 -52t134.5 -14t135 15t60.5 55t16.5 122t-17 123.5t-60 57.5t-130 16h-230q-50 0 -74.5 24t-24.5 75v311q0 50 24 74.5t75 24.5h496v-108h-442q-24 0 -32 -8t-8 -32v-215q0 -24 8 -32t32 -8h176
q130 0 197.5 -26t95 -90t27.5 -187q0 -112 -26 -175.5t-85 -91.5t-163 -28h-99q-105 0 -164.5 27z" />
    <glyph glyph-name="six.tf" horiz-adv-x="829" 
d="M638 568q71 -27 100.5 -90.5t29.5 -181.5q0 -157 -69.5 -226.5t-215.5 -69.5h-93q-148 0 -218 69t-70 227v438q0 139 67 203t213 64h316v-108h-265q-89 0 -134 -13t-62.5 -46.5t-17.5 -99.5v-139h214q134 0 205 -27zM573.5 121.5q44.5 13.5 61.5 52.5t17 122
q0 84 -15.5 123t-60 53.5t-143.5 14.5h-214v-191q0 -83 16.5 -122t60 -52.5t137.5 -13.5q96 0 140.5 13.5z" />
    <glyph glyph-name="seven.tf" horiz-adv-x="829" 
d="M723.5 977q24.5 -24 24.5 -75v-31q0 -59 -30.5 -113t-100.5 -136q-15 -18 -49 -54q-50 -54 -78 -91t-47 -89t-19 -120v-268h-113v274q0 83 22.5 145t55 105.5t88.5 102.5q25 25 49 52q61 70 85 106t24 69q0 23 -8 31t-32 8h-529v108h583q50 0 74.5 -24z" />
    <glyph glyph-name="eight.tf" horiz-adv-x="829" 
d="M200.5 26.5q-60.5 26.5 -87.5 84.5t-27 158q0 73 15.5 120.5t48 77t87.5 49.5q-71 32 -101.5 80.5t-30.5 139.5q0 98 25 155.5t81 83.5t154 26h99q98 0 154.5 -26t81.5 -83.5t25 -155.5q0 -90 -30.5 -138.5t-101.5 -81.5q54 -20 87 -49.5t48.5 -77t15.5 -120.5
q0 -100 -27 -158t-88 -84.5t-166 -26.5h-98q-104 0 -164.5 26.5zM536 581.5q42 13.5 59 47t17 96.5q0 69 -17 105t-58.5 50.5t-121.5 14.5t-121.5 -14.5t-58.5 -50.5t-17 -105q0 -64 17 -97t58.5 -46.5t121.5 -13.5q79 0 121 13.5zM548 121q46 15 64.5 52t18.5 108
q0 70 -18.5 107t-64 52t-133.5 15t-133.5 -15t-64 -52t-18.5 -107q0 -71 18.5 -108t64 -52t133.5 -15q87 0 133 15z" />
    <glyph glyph-name="nine.tf" horiz-adv-x="829" 
d="M657 932q70 -69 70 -227v-438q0 -139 -67 -203t-212 -64h-316v108h265q89 0 134 13t62.5 46.5t17.5 99.5v139h-214q-134 0 -205.5 27.5t-101 91t-29.5 180.5q0 157 70 226.5t216 69.5h92q148 0 218 -69zM611 515v190q0 83 -16.5 121.5t-60.5 52.5t-137 14
q-96 0 -141 -13.5t-62 -52.5t-17 -122q0 -84 15.5 -122.5t60.5 -53t144 -14.5h214z" />
    <glyph glyph-name="zero.dnom" horiz-adv-x="554" 
d="M141 21.5q-39 21.5 -56 67t-17 121.5v180q0 76 17 122t56 67t105 21h63q66 0 104.5 -21t55.5 -66.5t17 -122.5v-180q0 -76 -17 -121.5t-55.5 -67t-104.5 -21.5h-63q-66 0 -105 21.5zM358 92.5q25 10.5 34 37t9 80.5v180q0 55 -9 81.5t-34 37t-79 10.5q-53 0 -78.5 -10.5
t-34.5 -37t-9 -81.5v-180q0 -54 9 -80.5t34.5 -37t78.5 -10.5q54 0 79 10.5z" />
    <glyph glyph-name="one.dnom" horiz-adv-x="358" 
d="M186 511q-8 8 -32 8h-104v81h130q50 0 74.5 -24t24.5 -75v-501h-85v479q0 24 -8 32z" />
    <glyph glyph-name="two.dnom" horiz-adv-x="507" 
d="M161.5 90q8.5 -8 31.5 -8h249v-82h-275q-50 0 -74.5 24t-24.5 75v20q0 61 23.5 98.5t56 56.5t86.5 39q44 16 68.5 29.5t41.5 36.5t17 59t-8 52.5t-30 23t-69 6.5q-45 0 -65.5 -8t-28 -29.5t-7.5 -70.5h-85q0 74 14.5 114.5t48.5 57.5t96 17h60q59 0 93 -14.5t49.5 -48
t15.5 -92.5q0 -66 -24 -106.5t-57.5 -60.5t-88.5 -41q-41 -16 -65 -28.5t-40.5 -34t-16.5 -55.5q0 -22 8.5 -30z" />
    <glyph glyph-name="three.dnom" horiz-adv-x="522" 
d="M125.5 16q-34.5 16 -49 53.5t-14.5 104.5h85q0 -42 8 -61t30 -26t70 -7q50 0 73.5 7t32 25.5t8.5 59.5q0 40 -8 59t-29.5 26t-67.5 7h-63v85h63q41 0 60.5 6t26.5 22.5t7 52.5q0 40 -7.5 58.5t-29 25.5t-66.5 7q-47 0 -69.5 -7t-30.5 -26.5t-8 -60.5h-85q0 67 14.5 104
t48.5 53t97 16h70q59 0 91.5 -15.5t46 -50t13.5 -95.5q0 -56 -17 -83t-66 -47q52 -18 73 -49t21 -96q0 -63 -15 -98t-49.5 -50.5t-97.5 -15.5h-70q-62 0 -96.5 16z" />
    <glyph glyph-name="four.dnom" horiz-adv-x="514" 
d="M349 244h-135q-69 0 -106 15.5t-52 49.5t-15 96v195h88v-195q0 -35 6.5 -51.5t24 -22.5t54.5 -6h135v275h85v-601h-85v245z" />
    <glyph glyph-name="five.dnom" horiz-adv-x="527" 
d="M111.5 40.5q-36.5 39.5 -36.5 133.5h85q0 -42 8.5 -61.5t31.5 -26.5t72 -7q48 0 71 7.5t31.5 28.5t8.5 66q0 44 -9 66t-31.5 30t-67.5 8h-101q-50 0 -74.5 24t-24.5 75v117q0 50 24 74.5t75 24.5h270v-81h-244q-24 0 -32 -8t-8 -32v-73q0 -24 8 -32t32 -8h75
q78 0 118.5 -16t57 -55t16.5 -114q0 -98 -35.5 -139t-120.5 -41h-75q-88 0 -124.5 39.5z" />
    <glyph glyph-name="six.dnom" horiz-adv-x="508" 
d="M390 347q41 -16 58 -54t17 -110q0 -96 -41 -139.5t-122 -43.5h-70q-82 0 -123 43t-41 140v257q0 81 39 120.5t118 39.5h205v-81h-165q-48 0 -70.5 -6t-30.5 -22t-8 -51v-77h117q76 0 117 -16zM340.5 88.5q22.5 6.5 30 26.5t7.5 68q0 47 -7 66.5t-27.5 26t-70.5 6.5h-117
v-99q0 -48 7.5 -68t29 -26.5t72.5 -6.5q53 0 75.5 6.5z" />
    <glyph glyph-name="seven.dnom" horiz-adv-x="472" 
d="M405.5 577.5q24.5 -22.5 25.5 -69.5q-1 -36 -18.5 -69.5t-54.5 -81.5l-33 -38q-27 -31 -41.5 -51t-25 -48t-10.5 -63v-157h-84v161q0 46 12.5 81.5t30.5 60.5t49 60q20 20 33 37q27 35 40 55.5t16 37.5q-1 15 -10 20.5t-29 5.5h-269v81h295q49 0 73.5 -22.5z" />
    <glyph glyph-name="eight.dnom" horiz-adv-x="540" 
d="M135 16q-36 16 -51.5 51.5t-15.5 96.5q0 62 19.5 94.5t64.5 51.5q-38 20 -55 48.5t-17 80.5q0 88 34 124.5t118 36.5h76q84 0 118.5 -36.5t34.5 -124.5q0 -51 -17.5 -80t-55.5 -49q44 -20 64 -52t20 -94q0 -61 -15.5 -96.5t-51.5 -51.5t-97 -16h-76q-61 0 -97 16z
M337 355.5q22 6.5 30.5 23.5t8.5 51q0 38 -9 57t-31 26.5t-66 7.5t-66 -7.5t-30.5 -26.5t-8.5 -57q0 -35 8.5 -51.5t30 -23t66.5 -6.5t67 6.5zM343.5 87.5q24.5 7.5 34.5 26.5t10 58q0 38 -10 57.5t-34.5 27t-73.5 7.5t-73.5 -7.5t-34 -27t-9.5 -57.5q0 -39 9.5 -58
t34 -26.5t73.5 -7.5t73.5 7.5z" />
    <glyph glyph-name="nine.dnom" horiz-adv-x="508" 
d="M374.5 582.5q35.5 -17.5 51 -56.5t15.5 -108v-258q0 -82 -39 -121t-119 -39h-196v82h158q47 0 69.5 6t30.5 22t8 50v77h-108q-81 0 -123.5 16t-60 54.5t-17.5 110.5q0 69 15 108t50 56.5t97 17.5h71q62 0 97.5 -17.5zM353 318v100q0 43 -9 64.5t-31.5 29t-67.5 7.5
q-49 0 -72.5 -7.5t-33 -28.5t-9.5 -65q0 -42 8.5 -63t32.5 -29t74 -8h108z" />
    <glyph glyph-name="zero.numr" horiz-adv-x="554" 
d="M141 421.5q-39 21.5 -56 67t-17 121.5v180q0 76 17 122t56 67t105 21h63q66 0 104.5 -21t55.5 -66.5t17 -122.5v-180q0 -76 -17 -121.5t-55.5 -67t-104.5 -21.5h-63q-66 0 -105 21.5zM358 492.5q25 10.5 34 37t9 80.5v180q0 55 -9 81.5t-34 37t-79 10.5
q-53 0 -78.5 -10.5t-34.5 -37t-9 -81.5v-180q0 -54 9 -80.5t34.5 -37t78.5 -10.5q54 0 79 10.5z" />
    <glyph glyph-name="one.numr" horiz-adv-x="358" 
d="M186 911q-8 8 -32 8h-104v81h130q50 0 74.5 -24t24.5 -75v-501h-85v479q0 24 -8 32z" />
    <glyph glyph-name="two.numr" horiz-adv-x="507" 
d="M161.5 490q8.5 -8 31.5 -8h249v-82h-275q-50 0 -74.5 24t-24.5 75v20q0 61 23.5 98.5t56 56.5t86.5 39q44 16 68.5 29.5t41.5 36.5t17 59t-8 52.5t-30 23t-69 6.5q-45 0 -65.5 -8t-28 -29.5t-7.5 -70.5h-85q0 74 14.5 114.5t48.5 57.5t96 17h60q59 0 93 -14.5t49.5 -48
t15.5 -92.5q0 -66 -24 -106.5t-57.5 -60.5t-88.5 -41q-41 -16 -65 -28.5t-40.5 -34t-16.5 -55.5q0 -22 8.5 -30z" />
    <glyph glyph-name="three.numr" horiz-adv-x="522" 
d="M125.5 416q-34.5 16 -49 53.5t-14.5 104.5h85q0 -42 8 -61t30 -26t70 -7q50 0 73.5 7t32 25.5t8.5 59.5q0 40 -8 59t-29.5 26t-67.5 7h-63v85h63q41 0 60.5 6t26.5 22.5t7 52.5q0 40 -7.5 58.5t-29 25.5t-66.5 7q-47 0 -69.5 -7t-30.5 -26.5t-8 -60.5h-85q0 67 14.5 104
t48.5 53t97 16h70q59 0 91.5 -15.5t46 -50t13.5 -95.5q0 -56 -17 -83t-66 -47q52 -18 73 -49t21 -96q0 -63 -15 -98t-49.5 -50.5t-97.5 -15.5h-70q-62 0 -96.5 16z" />
    <glyph glyph-name="four.numr" horiz-adv-x="546" 
d="M349 644h-135q-69 0 -106 15.5t-52 49.5t-15 96v195h88v-195q0 -35 6.5 -51.5t24 -22.5t54.5 -6h135v275h85v-600h-85v244z" />
    <glyph glyph-name="five.numr" horiz-adv-x="527" 
d="M111.5 440.5q-36.5 39.5 -36.5 133.5h85q0 -42 8.5 -61.5t31.5 -26.5t72 -7q48 0 71 7.5t31.5 28.5t8.5 66q0 44 -9 66t-31.5 30t-67.5 8h-101q-50 0 -74.5 24t-24.5 75v117q0 50 24 74.5t75 24.5h270v-81h-244q-24 0 -32 -8t-8 -32v-73q0 -24 8 -32t32 -8h75
q78 0 118.5 -16t57 -55t16.5 -114q0 -98 -35.5 -139t-120.5 -41h-75q-88 0 -124.5 39.5z" />
    <glyph glyph-name="six.numr" horiz-adv-x="508" 
d="M390 747q41 -16 58 -54t17 -110q0 -96 -41 -139.5t-122 -43.5h-70q-82 0 -123 43t-41 140v257q0 81 39 120.5t118 39.5h205v-81h-165q-48 0 -70.5 -6t-30.5 -22t-8 -51v-77h117q76 0 117 -16zM340.5 488.5q22.5 6.5 30 26.5t7.5 68q0 47 -7 66.5t-27.5 26t-70.5 6.5h-117
v-99q0 -48 7.5 -68t29 -26.5t72.5 -6.5q53 0 75.5 6.5z" />
    <glyph glyph-name="seven.numr" horiz-adv-x="472" 
d="M405.5 977.5q24.5 -22.5 25.5 -69.5q-1 -36 -18.5 -69.5t-54.5 -81.5l-33 -38q-27 -31 -41.5 -51t-25 -48t-10.5 -63v-157h-84v161q0 46 12.5 81.5t30.5 60.5t49 60q20 20 33 37q27 35 40 55.5t16 37.5q-1 15 -10 20.5t-29 5.5h-269v81h295q49 0 73.5 -22.5z" />
    <glyph glyph-name="eight.numr" horiz-adv-x="540" 
d="M135 416q-36 16 -51.5 51.5t-15.5 96.5q0 62 19.5 94.5t64.5 51.5q-38 20 -55 48.5t-17 80.5q0 88 34 124.5t118 36.5h76q84 0 118.5 -36.5t34.5 -124.5q0 -51 -17.5 -80t-55.5 -49q44 -20 64 -52t20 -94q0 -61 -15.5 -96.5t-51.5 -51.5t-97 -16h-76q-61 0 -97 16z
M337 755.5q22 6.5 30.5 23.5t8.5 51q0 38 -9 57t-31 26.5t-66 7.5t-66 -7.5t-30.5 -26.5t-8.5 -57q0 -35 8.5 -51.5t30 -23t66.5 -6.5t67 6.5zM343.5 487.5q24.5 7.5 34.5 26.5t10 58q0 38 -10 57.5t-34.5 27t-73.5 7.5t-73.5 -7.5t-34 -27t-9.5 -57.5q0 -39 9.5 -58
t34 -26.5t73.5 -7.5t73.5 7.5z" />
    <glyph glyph-name="nine.numr" horiz-adv-x="508" 
d="M374.5 982.5q35.5 -17.5 51 -56.5t15.5 -108v-258q0 -82 -39 -121t-119 -39h-196v82h158q47 0 69.5 6t30.5 22t8 50v77h-108q-81 0 -123.5 16t-60 54.5t-17.5 110.5q0 69 15 108t50 56.5t97 17.5h71q62 0 97.5 -17.5zM353 718v100q0 43 -9 64.5t-31.5 29t-67.5 7.5
q-49 0 -72.5 -7.5t-33 -28.5t-9.5 -65q0 -42 8.5 -63t32.5 -29t74 -8h108z" />
    <glyph glyph-name="fraction" unicode="&#x2044;" horiz-adv-x="369" 
d="M385 1000h82l-483 -1000h-81z" />
    <glyph glyph-name="onehalf" unicode="&#xbd;" horiz-adv-x="1250" 
d="M178 911q-8 8 -32 8h-104v81h130q50 0 74.5 -24t24.5 -75v-501h-85v479q0 24 -8 32zM743 1000h82l-483 -1000h-81zM896.5 90q8.5 -8 31.5 -8h249v-82h-275q-50 0 -74.5 24t-24.5 75v20q0 61 23.5 98.5t56 56.5t86.5 39q44 16 68.5 29.5t41.5 36.5t17 59t-8 52.5t-30 23
t-69 6.5q-45 0 -65.5 -8t-28 -29.5t-7.5 -70.5h-85q0 74 14.5 114.5t48.5 57.5t96 17h60q59 0 93 -14.5t49.5 -48t15.5 -92.5q0 -66 -24 -106.5t-57.5 -60.5t-88.5 -41q-41 -16 -65 -28.5t-40.5 -34t-16.5 -55.5q0 -22 8.5 -30z" />
    <glyph glyph-name="onequarter" unicode="&#xbc;" horiz-adv-x="1257" 
d="M178 911q-8 8 -32 8h-104v81h130q50 0 74.5 -24t24.5 -75v-501h-85v479q0 24 -8 32zM743 1000h82l-483 -1000h-81zM1084 244h-135q-69 0 -106 15.5t-52 49.5t-15 96v195h88v-195q0 -35 6.5 -51.5t24 -22.5t54.5 -6h135v275h85v-601h-85v245z" />
    <glyph glyph-name="threequarters" unicode="&#xbe;" horiz-adv-x="1421" 
d="M117.5 416q-34.5 16 -49 53.5t-14.5 104.5h85q0 -42 8 -61t30 -26t70 -7q50 0 73.5 7t32 25.5t8.5 59.5q0 40 -8 59t-29.5 26t-67.5 7h-63v85h63q41 0 60.5 6t26.5 22.5t7 52.5q0 40 -7.5 58.5t-29 25.5t-66.5 7q-47 0 -69.5 -7t-30.5 -26.5t-8 -60.5h-85q0 67 14.5 104
t48.5 53t97 16h70q59 0 91.5 -15.5t46 -50t13.5 -95.5q0 -56 -17 -83t-66 -47q52 -18 73 -49t21 -96q0 -63 -15 -98t-49.5 -50.5t-97.5 -15.5h-70q-62 0 -96.5 16zM907 1000h82l-483 -1000h-81zM1248 244h-135q-69 0 -106 15.5t-52 49.5t-15 96v195h88v-195q0 -35 6.5 -51.5
t24 -22.5t54.5 -6h135v275h85v-601h-85v245z" />
    <glyph glyph-name="oneeighth" unicode="&#x215b;" horiz-adv-x="1283" 
d="M178 911q-8 8 -32 8h-104v81h130q50 0 74.5 -24t24.5 -75v-501h-85v479q0 24 -8 32zM743 1000h82l-483 -1000h-81zM870 16q-36 16 -51.5 51.5t-15.5 96.5q0 62 19.5 94.5t64.5 51.5q-38 20 -55 48.5t-17 80.5q0 88 34 124.5t118 36.5h76q84 0 118.5 -36.5t34.5 -124.5
q0 -51 -17.5 -80t-55.5 -49q44 -20 64 -52t20 -94q0 -61 -15.5 -96.5t-51.5 -51.5t-97 -16h-76q-61 0 -97 16zM1072 355.5q22 6.5 30.5 23.5t8.5 51q0 38 -9 57t-31 26.5t-66 7.5t-66 -7.5t-30.5 -26.5t-8.5 -57q0 -35 8.5 -51.5t30 -23t66.5 -6.5t67 6.5zM1078.5 87.5
q24.5 7.5 34.5 26.5t10 58q0 38 -10 57.5t-34.5 27t-73.5 7.5t-73.5 -7.5t-34 -27t-9.5 -57.5q0 -39 9.5 -58t34 -26.5t73.5 -7.5t73.5 7.5z" />
    <glyph glyph-name="threeeighths" unicode="&#x215c;" horiz-adv-x="1447" 
d="M117.5 416q-34.5 16 -49 53.5t-14.5 104.5h85q0 -42 8 -61t30 -26t70 -7q50 0 73.5 7t32 25.5t8.5 59.5q0 40 -8 59t-29.5 26t-67.5 7h-63v85h63q41 0 60.5 6t26.5 22.5t7 52.5q0 40 -7.5 58.5t-29 25.5t-66.5 7q-47 0 -69.5 -7t-30.5 -26.5t-8 -60.5h-85q0 67 14.5 104
t48.5 53t97 16h70q59 0 91.5 -15.5t46 -50t13.5 -95.5q0 -56 -17 -83t-66 -47q52 -18 73 -49t21 -96q0 -63 -15 -98t-49.5 -50.5t-97.5 -15.5h-70q-62 0 -96.5 16zM907 1000h82l-483 -1000h-81zM1034 16q-36 16 -51.5 51.5t-15.5 96.5q0 62 19.5 94.5t64.5 51.5
q-38 20 -55 48.5t-17 80.5q0 88 34 124.5t118 36.5h76q84 0 118.5 -36.5t34.5 -124.5q0 -51 -17.5 -80t-55.5 -49q44 -20 64 -52t20 -94q0 -61 -15.5 -96.5t-51.5 -51.5t-97 -16h-76q-61 0 -97 16zM1236 355.5q22 6.5 30.5 23.5t8.5 51q0 38 -9 57t-31 26.5t-66 7.5
t-66 -7.5t-30.5 -26.5t-8.5 -57q0 -35 8.5 -51.5t30 -23t66.5 -6.5t67 6.5zM1242.5 87.5q24.5 7.5 34.5 26.5t10 58q0 38 -10 57.5t-34.5 27t-73.5 7.5t-73.5 -7.5t-34 -27t-9.5 -57.5q0 -39 9.5 -58t34 -26.5t73.5 -7.5t73.5 7.5z" />
    <glyph glyph-name="fiveeighths" unicode="&#x215d;" horiz-adv-x="1452" 
d="M103.5 440.5q-36.5 39.5 -36.5 133.5h85q0 -42 8.5 -61.5t31.5 -26.5t72 -7q48 0 71 7.5t31.5 28.5t8.5 66q0 44 -9 66t-31.5 30t-67.5 8h-101q-50 0 -74.5 24t-24.5 75v117q0 50 24 74.5t75 24.5h270v-81h-244q-24 0 -32 -8t-8 -32v-73q0 -24 8 -32t32 -8h75
q78 0 118.5 -16t57 -55t16.5 -114q0 -98 -35.5 -139t-120.5 -41h-75q-88 0 -124.5 39.5zM912 1000h82l-483 -1000h-81zM1039 16q-36 16 -51.5 51.5t-15.5 96.5q0 62 19.5 94.5t64.5 51.5q-38 20 -55 48.5t-17 80.5q0 88 34 124.5t118 36.5h76q84 0 118.5 -36.5t34.5 -124.5
q0 -51 -17.5 -80t-55.5 -49q44 -20 64 -52t20 -94q0 -61 -15.5 -96.5t-51.5 -51.5t-97 -16h-76q-61 0 -97 16zM1241 355.5q22 6.5 30.5 23.5t8.5 51q0 38 -9 57t-31 26.5t-66 7.5t-66 -7.5t-30.5 -26.5t-8.5 -57q0 -35 8.5 -51.5t30 -23t66.5 -6.5t67 6.5zM1247.5 87.5
q24.5 7.5 34.5 26.5t10 58q0 38 -10 57.5t-34.5 27t-73.5 7.5t-73.5 -7.5t-34 -27t-9.5 -57.5q0 -39 9.5 -58t34 -26.5t73.5 -7.5t73.5 7.5z" />
    <glyph glyph-name="seveneighths" unicode="&#x215e;" horiz-adv-x="1397" 
d="M397.5 977.5q24.5 -22.5 25.5 -69.5q-1 -36 -18.5 -69.5t-54.5 -81.5l-33 -38q-27 -31 -41.5 -51t-25 -48t-10.5 -63v-157h-84v161q0 46 12.5 81.5t30.5 60.5t49 60q20 20 33 37q27 35 40 55.5t16 37.5q-1 15 -10 20.5t-29 5.5h-269v81h295q49 0 73.5 -22.5zM857 1000h82
l-483 -1000h-81zM984 16q-36 16 -51.5 51.5t-15.5 96.5q0 62 19.5 94.5t64.5 51.5q-38 20 -55 48.5t-17 80.5q0 88 34 124.5t118 36.5h76q84 0 118.5 -36.5t34.5 -124.5q0 -51 -17.5 -80t-55.5 -49q44 -20 64 -52t20 -94q0 -61 -15.5 -96.5t-51.5 -51.5t-97 -16h-76
q-61 0 -97 16zM1186 355.5q22 6.5 30.5 23.5t8.5 51q0 38 -9 57t-31 26.5t-66 7.5t-66 -7.5t-30.5 -26.5t-8.5 -57q0 -35 8.5 -51.5t30 -23t66.5 -6.5t67 6.5zM1192.5 87.5q24.5 7.5 34.5 26.5t10 58q0 38 -10 57.5t-34.5 27t-73.5 7.5t-73.5 -7.5t-34 -27t-9.5 -57.5
q0 -39 9.5 -58t34 -26.5t73.5 -7.5t73.5 7.5z" />
    <glyph glyph-name="period" unicode="." horiz-adv-x="313" 
d="M109.5 0q-15.5 6 -21.5 22t-6 47t6 47t21.5 22t46.5 6q32 0 47.5 -6t22 -22t6.5 -47t-6.5 -47t-22 -22t-47.5 -6q-31 0 -46.5 6z" />
    <glyph glyph-name="comma" unicode="," horiz-adv-x="311" 
d="M214 123.5q14 -13.5 15 -54.5q-1 -63 -42 -114l-112 -138l-38 30l102 137q-32 12 -42 28.5t-10 51.5q0 43 14.5 58t56.5 15t56 -13.5zM229 62v7v5v-12z" />
    <glyph glyph-name="colon" unicode=":" horiz-adv-x="332" 
d="M222.5 700q15.5 -6 22 -22t6.5 -47t-6.5 -47t-22 -22t-47.5 -6q-31 0 -46.5 6t-21.5 22t-6 47t6 47t21.5 22t46.5 6q32 0 47.5 -6zM109.5 0q-15.5 6 -21.5 22t-6 47t6 47t21.5 22t46.5 6q32 0 47.5 -6t22 -22t6.5 -47t-6.5 -47t-22 -22t-47.5 -6q-31 0 -46.5 6z" />
    <glyph glyph-name="semicolon" unicode=";" horiz-adv-x="347" 
d="M113.5 562q-15.5 6 -21.5 22t-6 47t6 47t21.5 22t46.5 6q32 0 47.5 -6t22 -22t6.5 -47t-6.5 -47t-22 -22t-47.5 -6q-31 0 -46.5 6zM214 123.5q14 -13.5 15 -54.5q-1 -63 -42 -114l-112 -138l-38 30l102 137q-32 12 -42 28.5t-10 51.5q0 43 14.5 58t56.5 15t56 -13.5z
M229 69v5v-12v7z" />
    <glyph glyph-name="ellipsis" unicode="&#x2026;" horiz-adv-x="955" 
d="M101.5 0q-15.5 6 -21.5 22t-6 47t6 47t21.5 22t46.5 6q32 0 47.5 -6t22 -22t6.5 -47t-6.5 -47t-22 -22t-47.5 -6q-31 0 -46.5 6zM422.5 0q-15.5 6 -21.5 22t-6 47t6 47t21.5 22t46.5 6q32 0 47.5 -6t22 -22t6.5 -47t-6.5 -47t-22 -22t-47.5 -6q-31 0 -46.5 6zM743.5 0
q-15.5 6 -21.5 22t-6 47t6 47t21.5 22t46.5 6q32 0 47.5 -6t22 -22t6.5 -47t-6.5 -47t-22 -22t-47.5 -6q-31 0 -46.5 6z" />
    <glyph glyph-name="exclam" unicode="!" horiz-adv-x="323" 
d="M110 1000h113v-731h-113v731zM114.5 0q-15.5 6 -21.5 22t-6 47t6 47t21.5 22t46.5 6q32 0 47.5 -6t22 -22t6.5 -47t-6.5 -47t-22 -22t-47.5 -6q-31 0 -46.5 6z" />
    <glyph glyph-name="exclamdown" unicode="&#xa1;" horiz-adv-x="323" 
d="M208.5 1000q15.5 -6 22 -22t6.5 -47t-6.5 -47t-22 -22t-47.5 -6q-31 0 -46.5 6t-21.5 22t-6 47t6 47t21.5 22t46.5 6q32 0 47.5 -6zM223 731v-731h-113v731h113z" />
    <glyph glyph-name="question" unicode="?" horiz-adv-x="668" 
d="M210 397q0 58 20 97t48 63t75 54q39 25 61.5 43t38 45t15.5 64q0 58 -13 84.5t-49.5 36.5t-115.5 10h-267v108h267q118 0 180 -21.5t86.5 -72t24.5 -143.5q0 -60 -20.5 -102.5t-50.5 -70t-78 -61.5q-37 -26 -58.5 -44.5t-36 -43.5t-14.5 -56v-115h-113v125zM215.5 0
q-15.5 6 -21.5 22t-6 47t6 47t21.5 22t46.5 6q32 0 47.5 -6t22 -22t6.5 -47t-6.5 -47t-22 -22t-47.5 -6q-31 0 -46.5 6z" />
    <glyph glyph-name="questiondown" unicode="&#xbf;" horiz-adv-x="668" 
d="M452.5 1000q15.5 -6 21.5 -22t6 -47t-6 -47t-21.5 -22t-46.5 -6q-32 0 -47.5 6t-22 22t-6.5 47t6.5 47t22 22t47.5 6q31 0 46.5 -6zM458 603q0 -58 -20 -97.5t-48.5 -63.5t-74.5 -53q-39 -24 -62 -42.5t-38 -46t-15 -65.5q0 -57 13 -83t49.5 -36t115.5 -10h267v-108h-267
q-119 0 -180.5 22t-86 72t-24.5 144q0 59 21 101.5t50.5 70t77.5 61.5q38 27 59 45t35.5 42.5t14.5 56.5v115h113v-125z" />
    <glyph glyph-name="periodcentered" unicode="&#xb7;" horiz-adv-x="313" 
d="M101.5 428q-15.5 6 -21.5 22t-6 47t6 47t21.5 22t46.5 6q32 0 47.5 -6t22 -22t6.5 -47t-6.5 -47t-22 -22t-47.5 -6q-31 0 -46.5 6z" />
    <glyph glyph-name="bullet" unicode="&#x2022;" horiz-adv-x="538" 
d="M154.5 380.5q-42.5 43.5 -42.5 115.5t42 113.5t116 41.5q71 0 113.5 -42t42.5 -113q0 -72 -42.5 -115.5t-113.5 -43.5q-73 0 -115.5 43.5z" />
    <glyph glyph-name="asterisk" unicode="*" horiz-adv-x="715" 
d="M445 707l188 -108l-43 -76l-189 109v-219h-88v218l-189 -108l-42 76l188 108l-188 108l42 76l189 -108v217h88v-218l189 109l43 -76z" />
    <glyph glyph-name="numbersign" unicode="#" horiz-adv-x="1163" 
d="M833 648v-289h249v-111h-249v-248h-106v248h-296v-248h-108v248h-241v111h241v289h-241v111h241v241h108v-241h296v241h106v-241h249v-111h-249zM727 648h-296v-289h296v289z" />
    <glyph glyph-name="slash" unicode="/" horiz-adv-x="479" 
d="M320 1000h107l-268 -1000h-107z" />
    <glyph glyph-name="backslash" unicode="\" horiz-adv-x="479" 
d="M320 0l-268 1000h107l268 -1000h-107z" />
    <glyph glyph-name="colon.case" horiz-adv-x="315" 
d="M102.5 678q-20.5 21 -20.5 55q0 35 20.5 56t55.5 21q34 0 54.5 -21t20.5 -56q0 -34 -20.5 -55t-54.5 -21q-35 0 -55.5 21zM102.5 212q-20.5 21 -20.5 56t20.5 55t55.5 20t55 -20t20 -55t-20.5 -56t-54.5 -21q-35 0 -55.5 21z" />
    <glyph glyph-name="question.ss01" horiz-adv-x="804" 
d="M344 360q0 56 19 95.5t46.5 64t72.5 55.5q41 27 65.5 48.5t41 53.5t16.5 76q-1 59 -16.5 88.5t-58.5 41t-132 11.5q-86 0 -127 -13t-56 -45t-15 -98v-48h-113v48q0 99 24 156t80 82.5t157 25.5h104q101 0 158.5 -24.5t82 -78.5t25.5 -146q0 -66 -22 -114t-53 -78t-80 -67
q-37 -28 -57.5 -46.5t-34.5 -43t-14 -55.5v-74h-113v85zM349.5 0q-15.5 6 -21.5 22t-6 47t6 47t21.5 22t46.5 6q32 0 47.5 -6t22 -22t6.5 -47t-6.5 -47t-22 -22t-47.5 -6q-31 0 -46.5 6z" />
    <glyph glyph-name="questiondown.ss01" horiz-adv-x="804" 
d="M454.5 1000q15.5 -6 21.5 -22t6 -47t-6 -47t-21.5 -22t-46.5 -6q-32 0 -47.5 6t-22 22t-6.5 47t6.5 47t22 22t47.5 6q31 0 46.5 -6zM460 640q0 -56 -19 -95.5t-46.5 -64t-72.5 -55.5q-41 -27 -65.5 -48.5t-41 -53.5t-16.5 -76q1 -59 16.5 -88.5t58.5 -41t132 -11.5
q86 0 127 13t56 45t15 98v48h113v-48q0 -99 -24 -156t-80 -82.5t-157 -25.5h-104q-101 0 -158.5 24.5t-82 78.5t-25.5 146q0 66 22 114t53 78t80 67q37 28 57.5 46.5t34.5 43t14 55.5v74h113v-85z" />
    <glyph glyph-name="period.ss08" horiz-adv-x="295" 
d="M82 132h131v-132h-131v132z" />
    <glyph glyph-name="comma.ss08" horiz-adv-x="292" 
d="M80 -74v203h131v-115q0 -66 -43 -119l-90 -106l-70 45z" />
    <glyph glyph-name="colon.ss08" horiz-adv-x="295" 
d="M213 700v-132h-131v132h131zM82 132h131v-132h-131v132z" />
    <glyph glyph-name="semicolon.ss08" horiz-adv-x="351" 
d="M234 700v-132h-131v132h131zM108 -74v203h131v-115q0 -66 -43 -119l-90 -106l-70 45z" />
    <glyph glyph-name="ellipsis.ss08" horiz-adv-x="901" 
d="M74 132h131v-132h-131v132zM377 132h131v-132h-131v132zM680 132h131v-132h-131v132z" />
    <glyph glyph-name="exclam.ss08" horiz-adv-x="305" 
d="M101 1000h113v-689h-113v689zM87 132h131v-132h-131v132z" />
    <glyph glyph-name="exclamdown.ss08" horiz-adv-x="323" 
d="M208.5 1000q15.5 -6 22 -22t6.5 -47t-6.5 -47t-22 -22t-47.5 -6q-31 0 -46.5 6t-21.5 22t-6 47t6 47t21.5 22t46.5 6q32 0 47.5 -6zM223 731v-731h-113v731h113z" />
    <glyph glyph-name="question.ss08" horiz-adv-x="804" 
d="M344 360q0 56 19 95.5t46.5 64t73.5 55.5q41 28 65 49t40.5 52.5t16.5 75.5q0 57 -16.5 86.5t-60 42.5t-127.5 13t-126.5 -14t-58.5 -47.5t-16 -98.5v-53h-113v53q0 102 24.5 159.5t83.5 83t166 25.5h78q109 0 169 -25t85 -78.5t25 -146.5q0 -65 -21 -110.5t-51 -73.5
t-78 -63q-38 -27 -60 -46.5t-36.5 -46.5t-14.5 -63v-74h-113v85zM332 132h131v-132h-131v132z" />
    <glyph glyph-name="questiondown.ss08" horiz-adv-x="804" 
d="M472 868h-131v132h131v-132zM460 640q0 -56 -19 -95.5t-46.5 -64t-73.5 -55.5q-41 -28 -65 -49t-40.5 -52.5t-16.5 -75.5q0 -57 16.5 -86.5t60 -42.5t127.5 -13t126.5 14t58.5 47.5t16 98.5v53h113v-53q0 -102 -24.5 -159.5t-83.5 -83t-166 -25.5h-78q-109 0 -169 25
t-85 78.5t-25 146.5q0 65 21 110.5t51 73.5t78 63q38 27 60 46.5t36.5 46.5t14.5 63v74h113v-85z" />
    <glyph glyph-name="periodcentered.ss08" horiz-adv-x="295" 
d="M74 560h131v-132h-131v132z" />
    <glyph glyph-name="parenleft" unicode="(" horiz-adv-x="511" 
d="M183.5 103q-71.5 186 -71.5 393t71.5 395t207.5 332l84 -71q-120 -129 -183 -298t-63 -358q0 -188 62.5 -355.5t183.5 -293.5l-84 -70q-136 140 -207.5 326z" />
    <glyph glyph-name="parenright" unicode=")" horiz-adv-x="511" 
d="M36 -153q121 126 183.5 293.5t62.5 355.5q0 189 -63 358t-183 298l84 71q136 -144 207.5 -332t71.5 -395t-71.5 -393t-207.5 -326z" />
    <glyph glyph-name="braceleft" unicode="{" horiz-adv-x="667" 
d="M324.5 -278q-24.5 24 -24.5 75v528q0 59 -28 92t-76 33h-114v109h114q51 0 77.5 28t26.5 97v519q0 50 24 74.5t75 24.5h244v-106h-190q-24 0 -32 -8t-8 -32v-472q0 -78 -28 -119.5t-74 -59.5q43 -18 72.5 -65t29.5 -115v-481q0 -24 8 -32t32 -8h190v-106h-244
q-50 0 -74.5 24z" />
    <glyph glyph-name="braceright" unicode="}" horiz-adv-x="667" 
d="M24 -302v106h190q24 0 32 8t8 32v481q0 68 29.5 115t72.5 65q-46 18 -74 59.5t-28 119.5v472q0 24 -8 32t-32 8h-190v106h244q51 0 75 -24.5t24 -74.5v-519q0 -69 26.5 -97t77.5 -28h114v-109h-114q-48 0 -76 -33t-28 -92v-528q0 -51 -24.5 -75t-74.5 -24h-244z" />
    <glyph glyph-name="bracketleft" unicode="[" horiz-adv-x="491" 
d="M136.5 -276q-24.5 24 -24.5 75v1402q0 50 24 74.5t75 24.5h256v-108h-202q-24 0 -32 -8t-8 -32v-1304q0 -24 8 -32t32 -8h202v-108h-256q-50 0 -74.5 24z" />
    <glyph glyph-name="bracketright" unicode="]" horiz-adv-x="491" 
d="M24 -300v108h202q24 0 32 8t8 32v1304q0 24 -8 32t-32 8h-202v108h256q51 0 75 -24.5t24 -74.5v-1402q0 -51 -24.5 -75t-74.5 -24h-256z" />
    <glyph glyph-name="hyphen" unicode="-" horiz-adv-x="623" 
d="M112 444h400v-109h-400v109z" />
    <glyph glyph-name="endash" unicode="&#x2013;" horiz-adv-x="668" 
d="M112 444h445v-104h-445v104z" />
    <glyph glyph-name="emdash" unicode="&#x2014;" horiz-adv-x="923" 
d="M112 444h700v-109h-700v109z" />
    <glyph glyph-name="underscore" unicode="_" horiz-adv-x="563" 
d="M7 -128h550v-108h-550v108z" />
    <glyph glyph-name="hyphen.case" horiz-adv-x="623" 
d="M112 574h400v-109h-400v109z" />
    <glyph glyph-name="endash.case" horiz-adv-x="668" 
d="M112 574h445v-104h-445v104z" />
    <glyph glyph-name="emdash.case" horiz-adv-x="923" 
d="M112 574h700v-109h-700v109z" />
    <glyph glyph-name="quotesinglbase" unicode="&#x201a;" horiz-adv-x="561" 
d="M104 300h113v-300h-113v300zM328 300h113v-300h-113v300z" />
    <glyph glyph-name="quotedblbase" unicode="&#x201e;" horiz-adv-x="561" 
d="M112 300h113v-300h-113v300zM336 300h113v-300h-113v300z" />
    <glyph glyph-name="quotedblleft" unicode="&#x201c;" horiz-adv-x="517" 
d="M89 652.5q-15 14.5 -15 45.5v302h113v-302q0 -31 -15.5 -45.5t-41.5 -14.5t-41 14.5zM329.5 652.5q-15.5 14.5 -15.5 45.5v302h113v-302q0 -31 -15 -45.5t-41 -14.5t-41.5 14.5z" />
    <glyph glyph-name="quotedblright" unicode="&#x201d;" horiz-adv-x="517" 
d="M97 652.5q-15 14.5 -15 45.5v302h113v-302q0 -31 -15.5 -45.5t-41.5 -14.5t-41 14.5zM337.5 652.5q-15.5 14.5 -15.5 45.5v302h113v-302q0 -31 -15 -45.5t-41 -14.5t-41.5 14.5z" />
    <glyph glyph-name="quoteleft" unicode="&#x2018;" 
d="M111 686q-15 15 -15 45v269h113v-269q0 -30 -15.5 -45t-41.5 -15t-41 15z" />
    <glyph glyph-name="quoteright" unicode="&#x2019;" 
d="M127 686q-15 15 -15 45v269h113v-269q0 -30 -15.5 -45t-41.5 -15t-41 15z" />
    <glyph glyph-name="guillemotleft" unicode="&#xab;" horiz-adv-x="905" 
d="M433 350q0 38 31 78l216 272h135l-248 -312q-15 -18 -15 -31q0 -12 14 -31l249 -326h-135l-216 272q-31 40 -31 78zM73 350q0 38 31 78l216 272h135l-248 -312q-15 -18 -15 -31q0 -12 14 -31l249 -326h-135l-216 272q-31 40 -31 78z" />
    <glyph glyph-name="guillemotright" unicode="&#xbb;" horiz-adv-x="905" 
d="M82 0l249 326q14 19 14 31q0 13 -15 31l-248 312h135l216 -272q31 -40 31 -78t-31 -78l-216 -272h-135zM442 0l249 326q14 19 14 31q0 13 -15 31l-248 312h135l216 -272q31 -40 31 -78t-31 -78l-216 -272h-135z" />
    <glyph glyph-name="guilsinglleft" unicode="&#x2039;" horiz-adv-x="415" 
d="M16 350q0 38 31 78l216 272h135l-248 -312q-15 -18 -15 -31q0 -12 14 -31l249 -326h-135l-216 272q-31 40 -31 78z" />
    <glyph glyph-name="guilsinglright" unicode="&#x203a;" horiz-adv-x="415" 
d="M152 0h-135l249 326q14 19 14 31q0 13 -15 31l-248 312h135l216 -272q31 -40 31 -78t-31 -78z" />
    <glyph glyph-name="quotedbl" unicode="&#x22;" horiz-adv-x="517" 
d="M81 652.5q-15 14.5 -15 45.5v302h113v-302q0 -31 -15.5 -45.5t-41.5 -14.5t-41 14.5zM321.5 652.5q-15.5 14.5 -15.5 45.5v302h113v-302q0 -31 -15 -45.5t-41 -14.5t-41.5 14.5z" />
    <glyph glyph-name="quotesingle" unicode="'" 
d="M119 686q-15 15 -15 45v269h113v-269q0 -30 -15.5 -45t-41.5 -15t-41 15z" />
    <glyph glyph-name="guillemotleft.case" horiz-adv-x="1018" 
d="M423 500q0 39 31 77l344 423h131l-377 -469q-15 -18 -15 -31t15 -31l377 -469h-131l-344 423q-31 38 -31 77zM74 500q0 39 31 77l344 423h131l-377 -469q-15 -18 -15 -31t15 -31l377 -469h-131l-344 423q-31 38 -31 77z" />
    <glyph glyph-name="guillemotright.case" horiz-adv-x="1018" 
d="M81 0l377 469q15 18 15 31t-15 31l-377 469h131l344 -423q32 -40 32 -77t-32 -77l-344 -423h-131zM430 0l377 469q15 18 15 31t-15 31l-377 469h131l344 -423q32 -40 32 -77t-32 -77l-344 -423h-131z" />
    <glyph glyph-name="guilsinglleft.case" horiz-adv-x="568" 
d="M27 500q0 39 31 77l344 423h131l-377 -469q-15 -18 -15 -31t15 -31l377 -469h-131l-344 423q-31 38 -31 77z" />
    <glyph glyph-name="guilsinglright.case" horiz-adv-x="568" 
d="M166 0h-131l377 469q15 18 15 31t-15 31l-377 469h131l344 -423q32 -40 32 -77t-32 -77z" />
    <glyph glyph-name="cent" unicode="&#xa2;" horiz-adv-x="699" 
d="M269.5 723q-41.5 -19 -58 -57.5t-16.5 -102.5v-126q0 -64 16.5 -102.5t58 -57.5t115.5 -19h225v-108h-162v-150h-113v151q-124 7 -188.5 78t-64.5 198v146q0 127 64.5 198t188.5 78v151h113v-150h162v-108h-225q-74 0 -115.5 -19z" />
    <glyph glyph-name="currency" unicode="&#xa4;" horiz-adv-x="875" 
d="M723 206l98 -97l-72 -72l-104 102q-66 -34 -162 -34h-48q-118 0 -191 51l-120 -119l-72 72l126 125q-31 62 -31 148v146q0 86 30 146l-125 126l71 72l120 -120q71 53 192 53h48q99 0 164 -35l101 102l73 -73l-97 -97q47 -68 47 -174v-146q0 -108 -48 -176zM580.5 233
q43.5 20 60.5 59t17 100v126q0 61 -17 100t-60.5 59t-120.5 20q-78 0 -121.5 -20t-61 -59t-17.5 -100v-126q0 -61 17.5 -100t61 -59t121.5 -20q77 0 120.5 20z" />
    <glyph glyph-name="dollar" unicode="$" horiz-adv-x="776" 
d="M679 96.5q-26 -50.5 -83 -73t-155 -23.5v-120h-113v120h-233v108h317q71 0 109.5 12t54.5 40t16 78q0 45 -10.5 74t-38.5 51.5t-84 46.5l-185 78q-85 36 -127.5 69t-59.5 79t-17 123q0 88 26 139.5t81.5 75t150.5 26.5v120h113v-120h240v-108h-313q-73 0 -112.5 -13
t-56 -42t-16.5 -82q0 -44 10.5 -71.5t38 -49.5t82.5 -45l183 -77q87 -36 130.5 -70.5t60.5 -81t17 -125.5q0 -88 -26 -138.5z" />
    <glyph glyph-name="Euro" unicode="&#x20ac;" horiz-adv-x="961" 
d="M451 874.5q-50 -17.5 -69.5 -60.5t-19.5 -128v-11h337v-101h-337v-148h337v-101h-337v-17q0 -82 19.5 -124t69.5 -59t149 -17h284v-108h-335q-115 0 -180 29.5t-92.5 96t-27.5 182.5v17h-167v101h167v148h-167v101h167v11q0 119 27.5 186.5t92.5 97.5t180 30h335v-108
h-284q-99 0 -149 -17.5z" />
    <glyph glyph-name="sterling" unicode="&#xa3;" horiz-adv-x="822" 
d="M363 881.5q-42 -14.5 -59 -49.5t-17 -102v-170h337v-107h-337v-234q0 -70 -13 -113h524v-107h-775v107h68q46 0 64 27.5t18 95.5v224h-150v107h150v171q0 102 25.5 161t83 85t157.5 26h359v-107h-312q-81 0 -123 -14.5z" />
    <glyph glyph-name="yen" unicode="&#xa5;" horiz-adv-x="836" 
d="M519 475h263v-91h-306q-1 -10 -1 -38v-84h307v-90h-307v-172h-113v172h-292v90h292v84q0 27 -2 38h-290v91h245l-292 525h121l274 -490l274 490h121z" />
    <glyph glyph-name="cent.ss01" horiz-adv-x="793" 
d="M701 414q2 -121 -60 -188.5t-193 -74.5v-151h-113v151q-125 9 -189 80t-64 196v146q0 125 64 196t189 80v151h113v-151q131 -7 193 -74.5t60 -188.5h-116q-5 82 -47.5 119t-142.5 37q-76 0 -119 -20t-60.5 -59t-17.5 -100v-126q0 -61 17.5 -100t60.5 -59t119 -20
q100 0 142.5 37t47.5 119h116z" />
    <glyph glyph-name="dollar.ss01" horiz-adv-x="794" 
d="M700.5 102.5q-23.5 -53.5 -81.5 -78t-165 -26.5v-98h-113v98q-107 2 -164.5 25t-81.5 76.5t-24 151.5v44h113v-39q0 -66 16 -97t59 -42.5t135 -11.5q95 0 140 12t61 42.5t16 93.5q0 68 -15 99t-63.5 53t-167.5 53q-124 33 -183.5 62.5t-85 82t-25.5 151.5
q0 94 23.5 146.5t81.5 76t165 25.5v98h113v-98q106 -1 163.5 -23.5t81 -74t23.5 -146.5v-53h-113v42q0 64 -16 94.5t-59 42t-133 11.5q-93 0 -138.5 -12t-62 -41.5t-16.5 -89.5q0 -67 15 -98t63 -52t165 -50q125 -32 184 -60.5t86 -82t27 -156.5q0 -97 -23.5 -150.5z" />
    <glyph glyph-name="Euro.ss01" horiz-adv-x="1019" 
d="M815 661v72q0 66 -18 99t-65 46.5t-141 13.5q-95 0 -141 -16.5t-64 -59.5t-18 -130v-11h326v-101h-326v-148h326v-101h-326v-17q0 -84 18 -126t64.5 -58t140.5 -16t141 13.5t65 46.5t18 99v72h117v-72q0 -100 -28.5 -158t-92 -83.5t-173.5 -25.5h-98q-109 0 -171.5 29.5
t-89.5 96t-27 182.5v17h-170v101h170v148h-170v101h170v11q0 119 27 186.5t89.5 97.5t171.5 30h98q110 0 173.5 -25.5t92 -83.5t28.5 -158v-72h-117z" />
    <glyph glyph-name="sterling.ss01" horiz-adv-x="828" 
d="M691 700v31q0 67 -18 101.5t-61 49t-126 14.5q-81 0 -123 -14.5t-59 -49.5t-17 -102v-204h337v-108h-337v-199q0 -67 -12 -112h529v-108h-781v108h68q46 0 64 27t18 95v189h-150v108h150v205q0 102 25.5 161t83 85t157.5 26h93q102 0 161 -26t85 -85t26 -161v-31h-113z
" />
    <glyph glyph-name="plus" unicode="+" horiz-adv-x="778" 
d="M696 457h-253v-253h-108v253h-253v109h253v252h108v-252h253v-109z" />
    <glyph glyph-name="minus" unicode="&#x2212;" horiz-adv-x="778" 
d="M82 566h614v-109h-614v109z" />
    <glyph glyph-name="multiply" unicode="&#xd7;" horiz-adv-x="747" 
d="M447 511l218 -221l-74 -74l-217 220l-217 -220l-74 74l217 221l-218 222l74 74l218 -221l217 221l75 -74z" />
    <glyph glyph-name="divide" unicode="&#xf7;" horiz-adv-x="778" 
d="M436.5 842q15.5 -6 22 -22t6.5 -47t-6.5 -47t-22 -22t-47.5 -6q-31 0 -46.5 6t-21.5 22t-6 47t6 47t21.5 22t46.5 6q32 0 47.5 -6zM82 566h614v-109h-614v109zM342.5 166q-15.5 6 -21.5 22t-6 47t6 47t21.5 22t46.5 6q32 0 47.5 -6t22 -22t6.5 -47t-6.5 -47t-22 -22
t-47.5 -6q-31 0 -46.5 6z" />
    <glyph glyph-name="equal" unicode="=" horiz-adv-x="778" 
d="M82 699h614v-108h-614v108zM82 431h614v-108h-614v108z" />
    <glyph glyph-name="notequal" unicode="&#x2260;" horiz-adv-x="778" 
d="M464 591l-42 -160h274v-108h-303l-84 -312h-107l84 312h-204v108h233l42 160h-275v108h304l84 312h107l-84 -312h203v-108h-232z" />
    <glyph glyph-name="greater" unicode="&#x3e;" horiz-adv-x="957" 
d="M82 232l647 268l-647 267v128l740 -322q30 -13 41.5 -28.5t11.5 -44.5t-11.5 -44.5t-41.5 -28.5l-740 -323v128z" />
    <glyph glyph-name="less" unicode="&#x3c;" horiz-adv-x="957" 
d="M135 427q-30 13 -41.5 28.5t-11.5 44.5t11.5 44.5t41.5 28.5l740 322v-128l-647 -267l647 -268v-128z" />
    <glyph glyph-name="greaterequal" unicode="&#x2265;" horiz-adv-x="899" 
d="M74 366l647 268l-647 267v128l740 -322q30 -13 41.5 -28.5t11.5 -44.5t-11.5 -44.5t-41.5 -28.5l-740 -323v128zM74 120h614v-109h-614v109z" />
    <glyph glyph-name="lessequal" unicode="&#x2264;" horiz-adv-x="899" 
d="M77 561q-30 13 -41.5 28.5t-11.5 44.5t11.5 44.5t41.5 28.5l740 322v-128l-647 -267l647 -268v-128zM203 11v109h614v-109h-614z" />
    <glyph glyph-name="plusminus" unicode="&#xb1;" horiz-adv-x="778" 
d="M688 607h-253v-253h-108v253h-253v109h253v252h108v-252h253v-109zM74 120h614v-109h-614v109z" />
    <glyph glyph-name="approxequal" unicode="&#x2248;" horiz-adv-x="898" 
d="M552.5 577q-40.5 15 -70 36t-69.5 55q-48 41 -79.5 60t-71.5 19q-29 0 -45 -9.5t-23.5 -33.5t-7.5 -71v-63h-112v90q0 105 39.5 152.5t130.5 47.5q58 0 104 -16.5t78.5 -40t70.5 -59.5q41 -37 66.5 -53.5t56.5 -16.5q27 0 42.5 9t23 33t7.5 70v68h115v-103
q0 -98 -38.5 -143.5t-125.5 -45.5q-51 0 -91.5 15zM552.5 186q-40.5 15 -70 36t-69.5 55q-48 41 -79.5 60t-71.5 19q-29 0 -45 -9.5t-23.5 -33.5t-7.5 -71v-63h-112v90q0 105 39.5 152.5t130.5 47.5q58 0 104 -16.5t78.5 -40t70.5 -59.5q41 -37 66.5 -53.5t56.5 -16.5
q27 0 42.5 9t23 33t7.5 70v68h115v-103q0 -98 -38.5 -143.5t-125.5 -45.5q-51 0 -91.5 15z" />
    <glyph glyph-name="asciitilde" unicode="~" horiz-adv-x="898" 
d="M560.5 366q-40.5 15 -70 36t-69.5 55q-48 41 -79.5 60t-71.5 19q-29 0 -45 -9.5t-23.5 -33.5t-7.5 -71v-63h-112v90q0 105 39.5 152.5t130.5 47.5q58 0 104 -16.5t78.5 -40t70.5 -59.5q41 -37 66.5 -53.5t56.5 -16.5q27 0 42.5 9t23 33t7.5 70v68h115v-103
q0 -98 -38.5 -143.5t-125.5 -45.5q-51 0 -91.5 15z" />
    <glyph glyph-name="logicalnot" unicode="&#xac;" horiz-adv-x="863" 
d="M661 438q-8 8 -32 8h-547v108h601q50 0 74.5 -24t24.5 -75v-272h-113v223q0 24 -8 32z" />
    <glyph glyph-name="emptyset" unicode="&#x2205;" horiz-adv-x="1257" 
d="M1058 850q42 -60 61.5 -146t19.5 -203q0 -186 -51 -297.5t-162.5 -162.5t-297.5 -51q-120 0 -207.5 20.5t-147.5 64.5l-117 -115l-74 76l116 115q-42 60 -61.5 146.5t-19.5 203.5q0 186 51 297t162.5 162t297.5 51q120 0 208 -20.5t148 -64.5l116 114l75 -75zM287 239
l609 600q-92 61 -268 61q-144 0 -230.5 -40t-126 -127t-39.5 -232q0 -172 55 -262zM969 762l-608 -600q90 -61 267 -61q144 0 230 40t125.5 127t39.5 233q0 169 -54 261z" />
    <glyph glyph-name="infinity" unicode="&#x221e;" horiz-adv-x="1278" 
d="M179.5 267.5q-48.5 23.5 -70.5 78.5t-22 153t22 153t70 78.5t129 23.5q68 0 115.5 -15.5t94 -51.5t122.5 -112q77 76 123 112t91.5 51.5t111.5 15.5q83 0 131.5 -23.5t71 -78.5t22.5 -153t-22 -153t-69.5 -78.5t-130.5 -23.5q-64 0 -110 15t-93 50.5t-126 110.5
q-84 -75 -131.5 -110.5t-92 -50.5t-105.5 -15q-83 0 -131.5 23.5zM1036.5 364q25.5 13 37.5 45t12 90q0 60 -12.5 92.5t-38 45t-69.5 12.5q-50 0 -83 -13t-64 -41t-97 -97q72 -69 104 -96t63.5 -39t78.5 -12q43 0 68.5 13zM390 362.5q31 11.5 63.5 39t102.5 96.5
q-66 69 -96.5 97t-62.5 40.5t-81 12.5q-46 0 -72 -12.5t-38 -44.5t-12 -92q0 -58 11.5 -90t37 -45t69.5 -13q47 0 78 11.5z" />
    <glyph glyph-name="integral" unicode="&#x222b;" horiz-adv-x="765" 
d="M23 107h134q32 0 49 9t28.5 36t26.5 86l128 542q22 95 44 140t60.5 62.5t113.5 17.5h134v-108h-134q-32 0 -48.5 -9.5t-28 -36t-26.5 -86.5l-127 -541q-23 -95 -45.5 -140t-61 -62.5t-113.5 -17.5h-134v108z" />
    <glyph glyph-name="product" unicode="&#x220f;" horiz-adv-x="955" 
d="M910 896h-154v-896h-113v896h-287v-896h-113v896h-199v104h866v-104z" />
    <glyph glyph-name="summation" unicode="&#x2211;" horiz-adv-x="815" 
d="M113 30q-31 30 -31 74q0 35 20 66.5t59 53.5l318 243q11 8 16.5 16t6.5 19q-2 11 -7 18.5t-16 15.5l-318 239q-38 22 -58 54t-20 67q0 44 30.5 74t85.5 30h534v-107h-514q-7 0 -11 -3t-4 -8q0 -8 11 -14l335 -245q31 -23 45.5 -51.5t14.5 -67.5v-6q0 -38 -14.5 -67.5
t-45.5 -51.5l-335 -248q-11 -4 -11 -12q0 -5 4 -8.5t11 -3.5h514v-107h-534q-55 0 -86 30z" />
    <glyph glyph-name="radical" unicode="&#x221a;" horiz-adv-x="1144" 
d="M1062 1000v-106h-140q-23 0 -33 -3t-17 -13t-18 -36l-62 -142l-235 -605q-17 -54 -43.5 -76t-77.5 -22q-50 0 -77 22t-43 76l-234 605h119l225 -577q5 -12 12 -12q3 0 6.5 3t4.5 9l223 577l67 164q28 69 45.5 94.5t45 33.5t92.5 8h140z" />
    <glyph glyph-name="partialdiff" unicode="&#x2202;" horiz-adv-x="843" 
d="M676 936q68 -64 68 -203v-432q0 -161 -70.5 -231t-220.5 -70h-76q-113 0 -178.5 28.5t-95 93t-29.5 174.5q0 113 24 174.5t89 90t190 28.5h250v144q0 64 -19 97.5t-65 47.5t-133 14h-275v108h327q146 0 214 -64zM543 123.5q46 15.5 65 56t19 121.5v179h-231
q-97 0 -139.5 -15t-55 -50t-12.5 -114q0 -81 18.5 -121.5t64 -56t134.5 -15.5q91 0 137 15.5z" />
    <glyph glyph-name="percent" unicode="%" horiz-adv-x="1286" 
d="M328 1000q98 0 150.5 -54t52.5 -155v-108q0 -100 -53 -154t-150 -54h-43q-98 0 -150.5 54t-52.5 154v108q0 101 52.5 155t150.5 54h43zM849 1000h123l-553 -1000h-123zM209.5 875q-27.5 -30 -27.5 -93v-89q0 -64 27.5 -93t97.5 -29q69 0 96.5 29.5t27.5 92.5v89
q0 63 -27.5 93t-96.5 30q-70 0 -97.5 -30zM958 0q-98 0 -150.5 54t-52.5 155v108q0 100 53 154t150 54h43q98 0 150.5 -54t52.5 -154v-108q0 -101 -52.5 -155t-150.5 -54h-43zM1076.5 125q27.5 30 27.5 93v89q0 64 -27.5 93t-97.5 29q-69 0 -96.5 -29.5t-27.5 -92.5v-89
q0 -63 27.5 -93t96.5 -30q70 0 97.5 30z" />
    <glyph glyph-name="perthousand" unicode="&#x2030;" horiz-adv-x="1886" 
d="M328 1000q98 0 150.5 -54t52.5 -155v-108q0 -100 -53 -154t-150 -54h-43q-98 0 -150.5 54t-52.5 154v108q0 101 52.5 155t150.5 54h43zM849 1000h123l-553 -1000h-123zM209.5 875q-27.5 -30 -27.5 -93v-89q0 -64 27.5 -93t97.5 -29q69 0 96.5 29.5t27.5 92.5v89
q0 63 -27.5 93t-96.5 30q-70 0 -97.5 -30zM958 0q-98 0 -150.5 54t-52.5 155v108q0 100 53 154t150 54h43q98 0 150.5 -54t52.5 -154v-108q0 -101 -52.5 -155t-150.5 -54h-43zM1407.5 54q-52.5 54 -52.5 155v108q0 100 52.5 154t150.5 54h43q97 0 150 -54t53 -154v-108
q0 -101 -52.5 -155t-150.5 -54h-43q-98 0 -150.5 54zM1076.5 125q27.5 30 27.5 93v89q0 64 -27.5 93t-97.5 29q-69 0 -96.5 -29.5t-27.5 -92.5v-89q0 -63 27.5 -93t96.5 -30q70 0 97.5 30zM1676.5 125q27.5 30 27.5 93v89q0 63 -27.5 92.5t-96.5 29.5q-70 0 -97.5 -29
t-27.5 -93v-89q0 -63 27.5 -93t97.5 -30q69 0 96.5 30z" />
    <glyph glyph-name="arrowup" unicode="&#x2191;" horiz-adv-x="1010" 
d="M901 495l-336 342v-837h-114v835l-343 -340l-72 72l403 402q36 36 70 36q35 0 69 -37l395 -401z" />
    <glyph glyph-name="uni2197" unicode="&#x2197;" horiz-adv-x="997" 
d="M860.5 901q24.5 -24 24.5 -75v-586h-102v501l-668 -668l-79 80l667 668h-493v104h576q50 0 74.5 -24z" />
    <glyph glyph-name="arrowright" unicode="&#x2192;" horiz-adv-x="1078" 
d="M1041 475q0 -34 -37 -70l-401 -395l-72 72l342 336h-837v114h835l-340 343l72 72l402 -403q36 -34 36 -69z" />
    <glyph glyph-name="uni2198" unicode="&#x2198;" horiz-adv-x="999" 
d="M888 731v-576q0 -50 -24 -74.5t-75 -24.5h-586v102h501l-668 668l80 79l668 -667v493h104z" />
    <glyph glyph-name="arrowdown" unicode="&#x2193;" horiz-adv-x="1010" 
d="M974 433l-403 -402q-36 -36 -69 -36t-70 37l-395 401l72 72l336 -342v837h114v-835l343 340z" />
    <glyph glyph-name="uni2199" unicode="&#x2199;" horiz-adv-x="997" 
d="M294 178h493v-104h-576q-50 0 -74.5 24t-24.5 75v586h102v-501l668 668l79 -80z" />
    <glyph glyph-name="arrowleft" unicode="&#x2190;" horiz-adv-x="1123" 
d="M1041 418h-837l342 -336l-72 -72l-401 395q-36 36 -36 70t35 69l402 403l72 -72l-340 -343h835v-114z" />
    <glyph glyph-name="uni2196" unicode="&#x2196;" horiz-adv-x="999" 
d="M883 95l-668 667v-493h-104v576q0 50 24 74.5t75 24.5h586v-102h-501l668 -668z" />
    <glyph glyph-name="arrowboth" unicode="&#x2194;" horiz-adv-x="1837" 
d="M1755 526q0 -34 -36 -70l-402 -403l-72 72l340 343h-1333l340 -343l-72 -72l-402 403q-35 37 -35 70q0 35 36 69l401 395l72 -72l-342 -336h1337l-342 336l72 72l401 -395q37 -34 37 -69z" />
    <glyph glyph-name="lozenge" unicode="&#x25ca;" horiz-adv-x="940" 
d="M399.5 16.5q-27.5 21.5 -57.5 72.5l-204 327q-27 44 -27 84q0 41 27 84l205 327q30 51 57.5 72.5t69.5 21.5t70 -21.5t58 -72.5l204 -327q27 -43 27 -84q0 -40 -27 -84l-204 -327q-31 -52 -58 -73t-70 -21t-70.5 21.5zM470 104q8 0 15 10l228 353q13 21 13 33
q0 13 -14 33l-228 353q-6 11 -14 11q-6 0 -14 -11l-228 -353q-13 -19 -13 -33t13 -33l228 -353q7 -10 14 -10z" />
    <glyph glyph-name="at" unicode="@" horiz-adv-x="1030" 
d="M839 441v134q0 24 -8 32t-32 8h-195q-213 0 -314 -93t-101 -290q0 -208 99.5 -307.5t305.5 -99.5h348v-107h-348q-259 0 -383 126t-124 388q0 253 125.5 372t391.5 119h240q50 0 74.5 -24t24.5 -75v-525q0 -50 -24 -74.5t-75 -24.5h-228q-129 0 -190.5 55t-61.5 171
q0 110 62 162.5t193 52.5h220zM831 114q8 8 8 32v193h-223q-76 0 -112 -28.5t-36 -87.5q0 -60 36 -88.5t112 -28.5h183q24 0 32 8z" />
    <glyph glyph-name="ampersand" unicode="&#x26;" horiz-adv-x="1012" 
d="M985 465h-170v-185q0 -105 -33.5 -165.5t-108.5 -87.5t-206 -27h-30q-138 0 -216.5 27t-113.5 87t-35 166q0 109 43.5 169.5t138.5 83.5q-54 24 -79 73t-25 128q0 99 28.5 156.5t92.5 83.5t176 26h260v-108h-260q-68 0 -107 -15t-56 -49t-17 -94q0 -63 16 -96t53 -46.5
t106 -13.5h543v-113zM698 465h-256q-103 0 -157 -16t-75.5 -55t-21.5 -114q0 -69 22.5 -105.5t78.5 -51.5t163 -15q100 0 152 15t73 51.5t21 105.5v185z" />
    <glyph glyph-name="paragraph" unicode="&#xb6;" horiz-adv-x="1009" 
d="M377 433q-108 0 -172 24t-93.5 77.5t-29.5 145.5v75q0 92 29.5 145t93.5 76.5t172 23.5h451q50 0 74.5 -24t24.5 -75v-901h-113v852q0 24 -8 32t-32 8h-188v-892h-113v433h-96zM473 892h-96q-71 0 -109.5 -12t-55.5 -41t-17 -84v-75q0 -56 16.5 -85t55.5 -41t110 -12h96
v350z" />
    <glyph glyph-name="section" unicode="&#xa7;" horiz-adv-x="805" 
d="M694.5 266q27.5 -37 27.5 -93q0 -68 -30 -105.5t-93 -52.5t-171 -15h-302v107h272q88 0 132 8.5t59.5 27t15.5 51.5q0 32 -20.5 51.5t-69.5 31t-136 17.5q-102 6 -165.5 25.5t-97.5 62.5t-34 118q0 73 26.5 114.5t85.5 62.5q-56 20 -83.5 57t-27.5 93q0 68 30 105.5
t93 52.5t171 15h302v-107h-272q-88 0 -132 -8.5t-59 -27t-15 -51.5q0 -32 20.5 -51.5t69 -31t135.5 -17.5q102 -6 166 -25.5t98 -62.5t34 -118q0 -73 -26.5 -114.5t-86.5 -62.5q56 -20 83.5 -57zM454 387q87 0 122 26t35 87q0 38 -18.5 60t-61.5 34t-120 17q-44 2 -60 2
q-87 0 -121.5 -25.5t-34.5 -87.5q0 -38 18.5 -60t61.5 -34t120 -17q44 -2 59 -2z" />
    <glyph glyph-name="copyright" unicode="&#xa9;" horiz-adv-x="1205" 
d="M303 38.5q-112 51.5 -163.5 163.5t-51.5 299t51.5 299t163.5 163t299 51q188 0 300 -51t164 -163t52 -299t-52 -299t-164.5 -163.5t-299.5 -51.5t-299 51.5zM851.5 111.5q93.5 43.5 136.5 137.5t43 252t-43 252t-136 137t-250 43q-156 0 -248.5 -43t-135 -137t-43.5 -252
q1 -158 43.5 -252t135.5 -137.5t248 -43.5q156 0 249.5 43.5zM724 630q-13 22 -41.5 32.5t-78.5 10.5q-55 0 -85.5 -13t-42.5 -40.5t-12 -73.5v-91q0 -46 12 -73.5t42.5 -40.5t85.5 -13q51 0 79 10.5t41 33t16 61.5h89q1 -90 -50 -138t-158 -48h-36q-102 0 -155 52t-53 149
v106q0 96 53 148t155 52h36q107 0 158 -48t50 -137h-89q-3 39 -16 61z" />
    <glyph glyph-name="registered" unicode="&#xae;" horiz-adv-x="1205" 
d="M902 963q112 -51 164 -163t52 -299t-52 -299t-164.5 -163.5t-299.5 -51.5t-299 51.5t-163.5 163.5t-51.5 299t51.5 299t163.5 163t299 51q188 0 300 -51zM851.5 111.5q93.5 43.5 136.5 137.5t43 252t-43 252t-136 137t-250 43q-156 0 -248.5 -43t-135 -137t-43.5 -252
q1 -158 43.5 -252t135.5 -137.5t248 -43.5q156 0 249.5 43.5zM781 492q-20 -35 -70 -49l118 -210h-95l-150 263h31q57 0 79 19t22 71v47q0 34 -9 52t-30.5 25.5t-62.5 7.5h-74q-24 0 -32 -8t-8 -32v-445h-85v466q0 50 24 74.5t75 24.5h100q76 0 115.5 -14t55.5 -49t16 -102
v-47q0 -59 -20 -94z" />
    <glyph glyph-name="trademark" unicode="&#x2122;" horiz-adv-x="1120" 
d="M518 928q0 37 20 57t49 20q25 0 48.5 -14.5t37.5 -40.5l98 -176q3 -6 6 -6q4 0 7 6l96 175q14 27 38.5 42t49.5 15q30 0 50 -20.5t20 -57.5v-351h-76v332q0 8 -6 8t-10 -8l-103 -180q-13 -22 -30 -33.5t-36 -11.5t-36.5 12t-30.5 35l-101 178q-4 8 -10 8q-5 0 -5 -8v-332
h-76v351zM226 930h-144v70h364v-70h-144v-353h-76v353z" />
    <glyph glyph-name="degree" unicode="&#xb0;" horiz-adv-x="589" 
d="M137.5 631.5q-55.5 55.5 -55.5 156.5q0 102 55.5 158t156.5 56q103 0 158.5 -56t55.5 -158q0 -101 -55.5 -156.5t-158.5 -55.5q-101 0 -156.5 55.5zM380 702.5q30 30.5 30 85.5q0 56 -30 87.5t-85 31.5t-85 -31.5t-30 -87.5q0 -55 30 -85.5t85 -30.5t85 30.5z" />
    <glyph glyph-name="bar" unicode="|" horiz-adv-x="318" 
d="M112 1000h94v-1000h-94v1000z" />
    <glyph glyph-name="brokenbar" unicode="&#xa6;" horiz-adv-x="337" 
d="M112 1002h114v-350h-114v350zM112 352h114v-352h-114v352z" />
    <glyph glyph-name="dagger" unicode="&#x2020;" horiz-adv-x="730" 
d="M693 642h-270v-642h-113v642h-274v110h274v248h113v-248h270v-110z" />
    <glyph glyph-name="daggerdbl" unicode="&#x2021;" horiz-adv-x="730" 
d="M423 642v-284h270v-109h-270v-249h-113v249h-274v109h274v284h-274v110h274v248h113v-248h270v-110h-270z" />
    <glyph glyph-name="asciicircum" unicode="^" horiz-adv-x="629" 
d="M207 934q22 40 43 53t65 13t65 -13t43 -53l182 -307h-115l-160 274q-4 10 -15 10q-10 0 -16 -10l-159 -274h-117z" />
    <glyph glyph-name="at.case" horiz-adv-x="1030" 
d="M852 718v147q0 24 -8 32t-32 8h-209q-213 0 -319 -93.5t-106 -299.5q0 -216 103.5 -316.5t312.5 -100.5h348v-95h-348q-253 0 -380.5 122.5t-127.5 389.5q0 255 129 371.5t388 116.5h241q50 0 74.5 -24t24.5 -75v-519q0 -50 -24 -74.5t-75 -24.5h-226q-127 0 -190.5 52.5
t-63.5 169.5q0 112 64.5 162.5t191.5 50.5h232zM844 385q8 8 8 32v211h-234q-82 0 -121 -30.5t-39 -95.5t39 -95t121 -30h194q24 0 32 8z" />
    <glyph glyph-name="ampersand.ss01" horiz-adv-x="1075" 
d="M1028 454h-191v-174q0 -146 -87 -213t-275 -67h-30q-189 0 -276 67t-87 213q0 72 18.5 118t59.5 73.5t111 43.5q-57 15 -90 41t-48 69t-15 111q0 98 29 155.5t93.5 83t175.5 25.5h66q109 0 173 -25.5t93 -82.5t29 -155h-116q0 61 -19 94t-64.5 47t-128.5 14
q-85 0 -130.5 -14.5t-64.5 -48.5t-19 -97q0 -65 19.5 -100t65.5 -50t129 -15h579v-113zM720 454h-271q-102 0 -155 -15t-74.5 -52t-21.5 -107q0 -61 26 -98.5t83.5 -55.5t152.5 -18t151.5 17.5t82.5 55t26 99.5v174z" />
    <glyph glyph-name="uni0308" unicode="&#x308;" horiz-adv-x="0" 
d="M-511.5 873.5q-16.5 16.5 -16.5 54.5q0 39 16.5 55.5t55.5 16.5q38 0 54.5 -16.5t16.5 -55.5q0 -38 -16.5 -54.5t-54.5 -16.5q-39 0 -55.5 16.5zM-237.5 874q-16.5 17 -16.5 54q0 39 16.5 55.5t54.5 16.5q39 0 55.5 -16.5t16.5 -55.5q0 -38 -16.5 -54.5t-55.5 -16.5
q-38 0 -54.5 17z" />
    <glyph glyph-name="uni0307" unicode="&#x307;" horiz-adv-x="0" 
d="M-237.5 886.5q-16.5 16.5 -16.5 55.5q0 38 16.5 54.5t54.5 16.5q39 0 55.5 -16.5t16.5 -54.5q0 -39 -16.5 -55.5t-55.5 -16.5q-38 0 -54.5 16.5z" />
    <glyph glyph-name="gravecomb" unicode="&#x300;" horiz-adv-x="0" 
d="M-285 1000h113l61 -211h-113z" />
    <glyph glyph-name="acutecomb" unicode="&#x301;" horiz-adv-x="0" 
d="M-286 789l61 211h113l-61 -211h-113z" />
    <glyph glyph-name="uni030B" unicode="&#x30b;" horiz-adv-x="0" 
d="M-505 810l44 190h113l-44 -190h-113zM-269 810l44 190h114l-45 -190h-113z" />
    <glyph glyph-name="uni0302" unicode="&#x302;" horiz-adv-x="0" 
d="M-198 776l-84 154l-84 -154h-116l105 180q12 26 31.5 35t63.5 9q45 0 65 -9t32 -36l103 -179h-116z" />
    <glyph glyph-name="uni030C" unicode="&#x30c;" horiz-adv-x="0" 
d="M-184 821q-12 -27 -32 -36t-65 -9q-44 0 -63.5 9t-31.5 35l-105 180h116l84 -154l84 154h116z" />
    <glyph glyph-name="uni0306" unicode="&#x306;" horiz-adv-x="0" 
d="M-430.5 844.5q-46.5 47.5 -46.5 155.5h90q0 -59 26 -86t81 -27t81 27t26 86h91q0 -108 -47 -155.5t-151 -47.5t-150.5 47.5z" />
    <glyph glyph-name="uni030A" unicode="&#x30a;" horiz-adv-x="0" 
d="M-339 811q-36 36 -36 110q0 75 36 111.5t110 36.5q75 0 111.5 -36.5t36.5 -111.5q0 -74 -36.5 -110t-111.5 -36q-74 0 -110 36zM-155 921q0 75 -73 75q-38 0 -56 -18.5t-18 -56.5q0 -75 74 -75q73 0 73 75z" />
    <glyph glyph-name="tildecomb" unicode="&#x303;" horiz-adv-x="0" 
d="M-309 804q-31 21 -65 60q-25 29 -43 42.5t-43 13.5q-27 0 -44.5 -18t-17.5 -54v-61h-84v72q0 59 35 99.5t112 40.5q40 0 69.5 -12.5t48 -30t40.5 -44.5q21 -26 36 -38t35 -12q28 0 44.5 15.5t16.5 48.5v69h87v-81q0 -55 -34.5 -93t-110.5 -38q-51 0 -82 21z" />
    <glyph glyph-name="uni0304" unicode="&#x304;" horiz-adv-x="0" 
d="M-416 908h334v-100h-334v100z" />
    <glyph glyph-name="uni0312" unicode="&#x312;" horiz-adv-x="0" 
d="M-118 987.5q10 -16.5 10 -51.5q0 -43 -14.5 -58t-56.5 -15t-56 13.5t-15 54.5q1 63 42 114l112 138l38 -30l-102 -137q32 -12 42 -28.5zM-250 938v-7v-5v12z" />
    <glyph glyph-name="uni0326" unicode="&#x326;" horiz-adv-x="0" 
d="M-105 -73.5q14 -13.5 15 -54.5q-1 -63 -42 -114l-112 -138l-38 30l102 137q-32 12 -42 28.5t-10 51.5q0 43 14.5 58t56.5 15t56 -13.5zM-90 -135v7v5v-12z" />
    <glyph glyph-name="uni0327" unicode="&#x327;" horiz-adv-x="0" 
d="M-228 32h116v-195h-116v195z" />
    <glyph glyph-name="uni0328" unicode="&#x328;" horiz-adv-x="0" 
d="M-301 -269q-43 27 -43 96q0 41 19 65t54 47q25 18 36.5 30.5t11.5 29.5l5 92h90v-111q0 -27 -15 -43t-44 -34q-26 -17 -38.5 -30t-12.5 -32q0 -27 19.5 -39t62.5 -12h45l-1 -86h-45q-101 0 -144 27z" />
    <glyph glyph-name="uni0335" unicode="&#x335;" horiz-adv-x="0" 
d="M-534 483h445v-104h-445v104z" />
    <glyph glyph-name="uni0337" unicode="&#x337;" horiz-adv-x="0" 
d="M-81 534v-116l-167 -40v12l-166 -41v117l166 41v-13z" />
    <glyph glyph-name="uni0338" unicode="&#x338;" horiz-adv-x="0" 
d="M-224 850h113v-156h-113v156zM-224 6h113v-156h-113v156z" />
    <glyph glyph-name="brevecombcy" horiz-adv-x="0" 
d="M-438.5 844.5q-46.5 47.5 -46.5 155.5h90q0 -59 26 -86t81 -27t81 27t26 86h91q0 -108 -47 -155.5t-151 -47.5t-150.5 47.5z" />
    <glyph glyph-name="uni0401" unicode="&#x401;" horiz-adv-x="806" 
d="M225 148q0 -24 8 -32t32 -8h453v-108h-507q-50 0 -74.5 24t-24.5 75v802q0 50 24 74.5t75 24.5h507v-108h-453q-24 0 -32 -8t-8 -32v-291h472v-100h-472v-313zM290 1157q38 0 55 16q16 17 16 55q0 39 -16 55q-17 17 -55 17q-39 0 -55 -17q-17 -16 -17 -55q0 -38 17 -55
q16 -16 55 -16zM563 1157q39 0 55 16q17 17 17 55q0 39 -17 55q-16 17 -55 17q-38 0 -55 -17q-16 -16 -16 -55q0 -37 16 -54q17 -17 55 -17z" />
    <glyph glyph-name="uni0404" unicode="&#x404;" horiz-adv-x="799" 
d="M200 446v-138q0 -82 19.5 -124t69.5 -59t149 -17h284v-108h-335q-115 0 -180 29.5t-92.5 96t-27.5 182.5v378q0 119 27.5 186.5t92.5 97.5t180 30h335v-108h-284q-99 0 -149 -17.5t-69.5 -60.5t-19.5 -128v-132h401v-108h-401z" />
    <glyph glyph-name="uni0406" unicode="&#x406;" 
d="M225 1000v-1000h-113v1000h113z" />
    <glyph glyph-name="uni0407" unicode="&#x407;" 
d="M217 1000v-1000h-113v1000h113zM-32.5 1173.5q-16.5 16.5 -16.5 54.5q0 39 16.5 55.5t55.5 16.5q38 0 54.5 -16.5t16.5 -55.5q0 -38 -16.5 -54.5t-54.5 -16.5q-39 0 -55.5 16.5zM241.5 1174q-16.5 17 -16.5 54q0 39 16.5 55.5t54.5 16.5q39 0 55.5 -16.5t16.5 -55.5
q0 -38 -16.5 -54.5t-55.5 -16.5q-38 0 -54.5 17z" />
    <glyph glyph-name="uni0410" unicode="&#x410;" horiz-adv-x="903" 
d="M321 903q13 50 41.5 74.5t81.5 24.5q51 0 79 -23t42 -77l306 -902h-120l-295 875q-3 10 -12 10t-12 -10l-295 -875h-122z" />
    <glyph glyph-name="uni0411" unicode="&#x411;" horiz-adv-x="836" 
d="M449 457q76 0 116 -10l11 -3q41 -13 56 -48q15 -36 15 -111q0 -62 -11 -98q-2 -9 -5 -16q-14 -32 -48 -47v0l-12 -4q-44 -15 -135 -15h-171q-15 0 -24 3q-5 2 -8 5q-8 8 -8 32v312h224zM248 894h516v106h-553q-51 0 -75 -24q-24 -25 -24 -75v-802q0 -51 24 -75
q25 -24 75 -24h255q119 0 183 23l12 5q54 24 77 74q26 56 26 160q0 28 -1 51q-2 97 -26 150q-23 50 -75 73l-15 6q-56 21 -156 23v0h-266v290q0 24 8 32q5 5 15 7z" />
    <glyph glyph-name="uni0412" unicode="&#x412;" horiz-adv-x="836" 
d="M136.5 24q-24.5 24 -24.5 75v802q0 50 24 74.5t75 24.5h255q111 0 169.5 -22.5t82.5 -76t24 -155.5q0 -73 -10 -114.5t-35 -67.5t-76 -49q59 -23 88.5 -51t42 -74t12.5 -128q0 -104 -26 -160t-89.5 -79t-182.5 -23h-255q-50 0 -74.5 24zM563.5 576.5q36.5 12.5 50 46
t13.5 104.5q0 73 -14 107t-53.5 47.5t-123.5 13.5h-171q-24 0 -32 -8t-8 -32v-291h224q78 0 114.5 12.5zM233 113q8 -8 32 -8h171q91 0 135 14.5t60 52t16 113.5q0 75 -15 110.5t-55.5 48.5t-127.5 13h-224v-312q0 -24 8 -32z" />
    <glyph glyph-name="uni0413" unicode="&#x413;" horiz-adv-x="763" 
d="M211 1000h486v-108h-432q-24 0 -32 -8t-8 -32v-852h-113v901q0 51 24.5 75t74.5 24z" />
    <glyph glyph-name="uni0414" unicode="&#x414;" horiz-adv-x="697" 
d="M500 109h-302v760q1 11 6 16q2 2 6 4t11 3h255q12 -2 17 -7q6 -6 7 -22v-754zM621 109h-8v805q-2 41 -23 62q-24 25 -75 25h-333q-49 0 -73 -23l-2 -2q-19 -19 -23 -54v-813h-7q-35 -5 -53 -24q-24 -24 -24 -74v-185h113v135q0 24 8 32q5 5 17 7h421q12 -2 17 -7
q7 -7 8 -24v-143h113v195q-2 42 -24 64q-18 19 -52 24z" />
    <glyph glyph-name="uni0415" unicode="&#x415;" horiz-adv-x="806" 
d="M225 148q0 -24 8 -32t32 -8h453v-108h-507q-50 0 -74.5 24t-24.5 75v802q0 50 24 74.5t75 24.5h507v-108h-453q-24 0 -32 -8t-8 -32v-291h472v-100h-472v-313z" />
    <glyph glyph-name="uni0416" unicode="&#x416;" horiz-adv-x="1349" 
d="M618 456h-90q-23 0 -35.5 -6t-25.5 -24l-320 -426h-139l362 480q8 11 13 19.5t5 14.5t-5 16t-14 22l-311 448h129l276 -396q13 -19 25 -25t35 -6h95v427h113v-427h95q23 0 35 6t25 25l276 396h129l-311 -448q-9 -12 -14 -22t-5 -16t5 -14.5t13 -19.5l362 -480h-139
l-320 426q-13 18 -25.5 24t-35.5 6h-90v-456h-113v456z" />
    <glyph glyph-name="uni0417" unicode="&#x417;" horiz-adv-x="829" 
d="M193 26q-59 26 -83.5 86.5t-24.5 172.5h113q0 -77 16 -114t58.5 -51t131.5 -14q93 0 138 13.5t62 50t17 111.5t-15.5 111t-56 49.5t-125.5 13.5h-106v113h106q77 0 113.5 12t50.5 44.5t14 100.5q0 73 -15.5 108t-56.5 48.5t-126 13.5q-89 0 -131.5 -14t-58.5 -51
t-16 -114h-113q0 112 24.5 172.5t83.5 86.5t168 26h92q103 0 159 -24.5t79.5 -81t23.5 -159.5q0 -67 -12 -107t-42 -66t-87 -47q61 -20 95 -48t49.5 -74.5t15.5 -124.5q0 -105 -25 -162t-85 -82t-171 -25h-92q-109 0 -168 26z" />
    <glyph glyph-name="uni0418" unicode="&#x418;" horiz-adv-x="1010" 
d="M783 1004q64 0 90 -29.5t26 -102.5v-873h-114v873q0 9 -2 13.5t-8 4.5q-5 0 -8.5 -4t-7.5 -13l-397 -774q-28 -58 -59 -81t-78 -23q-63 0 -88 28.5t-25 101.5v874h113v-874q0 -10 2 -14t8 -4q5 0 9 4t8 13l399 780q31 56 60 78t72 22z" />
    <glyph glyph-name="uni0419" unicode="&#x419;" horiz-adv-x="1010" 
d="M783 1004q64 0 90 -29.5t26 -102.5v-873h-114v873q0 9 -2 13.5t-8 4.5q-5 0 -8.5 -4t-7.5 -13l-397 -774q-28 -58 -59 -81t-78 -23q-63 0 -88 28.5t-25 101.5v874h113v-874q0 -10 2 -14t8 -4q5 0 9 4t8 13l399 780q31 56 60 78t72 22zM502 1097q104 0 151 47
q47 48 47 156h-91q0 -59 -26 -86t-81 -27t-81 27t-26 86h-90q0 -108 47 -156q46 -47 150 -47z" />
    <glyph glyph-name="uni041A" unicode="&#x41a;" horiz-adv-x="843" 
d="M225 1000v-427h95q23 0 35 6t25 25l276 396h129l-311 -448q-9 -12 -14 -22t-5 -16t5 -14.5t13 -19.5l362 -480h-139l-320 426q-13 18 -25.5 24t-35.5 6h-90v-456h-113v1000h113z" />
    <glyph glyph-name="uni041B" unicode="&#x41b;" horiz-adv-x="921" 
d="M809 0h-113v863q-2 15 -8 21q-5 5 -17 7h-421q-12 -2 -17 -7q-7 -7 -8 -29v-770q-3 -40 -24 -61q-25 -24 -75 -24h-157v108h103q24 0 32 8q7 6 8 21v768q1 47 24 71q22 22 67 24h8h499q51 0 75 -24q21 -21 24 -61v-915z" />
    <glyph glyph-name="uni041C" unicode="&#x41c;" horiz-adv-x="1252" 
d="M112 894q0 109 109 109q55 0 83 -24t51 -72l259 -522q6 -12 12 -12t13 12l258 522q23 49 51 72.5t83 23.5q110 0 110 -109v-894h-113v869q0 14 -11 14q-5 0 -8 -3t-6 -10l-260 -525q-23 -49 -49 -71t-70 -22q-43 0 -68 22t-49 71l-257 524q-3 7 -6 10.5t-8 3.5
q-11 0 -11 -14v-869h-113v894z" />
    <glyph glyph-name="uni041D" unicode="&#x41d;" horiz-adv-x="920" 
d="M696 465h-471v-465h-113v1000h113v-426h471v426h113v-1000h-113v465z" />
    <glyph glyph-name="uni041E" unicode="&#x41e;" horiz-adv-x="878" 
d="M227 29.5q-72 34.5 -106 109t-34 195.5v332q0 121 34 195.5t106 109t189 34.5h47q117 0 189 -34.5t106 -109t34 -195.5v-332q0 -121 -34 -195.5t-106 -109t-189 -34.5h-47q-117 0 -189 34.5zM581.5 124q51.5 22 74.5 72t23 138v332q0 88 -23 138t-74.5 72t-141.5 22
q-91 0 -142.5 -22t-74.5 -72t-23 -138v-332q0 -88 23 -138t74.5 -72t142.5 -22q90 0 141.5 22z" />
    <glyph glyph-name="uni041F" unicode="&#x41f;" horiz-adv-x="921" 
d="M809 0h-113v863q-2 15 -7 21q-6 5 -18 7h-421q-12 -2 -17 -7q-8 -8 -8 -32v-852h-113v901q0 50 24 75q22 22 68 24h7h500q51 0 75 -24q20 -21 23 -61v-915z" />
    <glyph glyph-name="uni0420" unicode="&#x420;" horiz-adv-x="812" 
d="M136 975.5q24 24.5 75 24.5h228q118 0 184 -25t94.5 -81t28.5 -155v-102q0 -99 -28.5 -155.5t-94.5 -82t-184 -25.5h-214v-374h-113v901q0 50 24 74.5zM560 497q41 14 57 47t16 98v91q0 64 -16 97.5t-57.5 47.5t-120.5 14h-174q-24 0 -32 -8t-8 -32v-369h214q80 0 121 14
z" />
    <glyph glyph-name="uni0421" unicode="&#x421;" horiz-adv-x="799" 
d="M207 29.5q-65 29.5 -92.5 96t-27.5 182.5v378q0 119 27.5 186.5t92.5 97.5t180 30h335v-108h-284q-99 0 -149 -17.5t-69.5 -60.5t-19.5 -128v-378q0 -82 19.5 -124t69.5 -59t149 -17h284v-108h-335q-115 0 -180 29.5z" />
    <glyph glyph-name="uni0422" unicode="&#x422;" horiz-adv-x="800" 
d="M344 892h-300v108h711v-108h-298v-892h-113v892z" />
    <glyph glyph-name="uni0423" unicode="&#x423;" horiz-adv-x="836" 
d="M813 1000l-547 -1000h-130l220 397q-6 14 -21 42l-312 561h121l274 -490l104 186l1 2v0l169 302h121z" />
    <glyph glyph-name="uni0424" unicode="&#x424;" horiz-adv-x="878" 
d="M384 896q-52 -5 -86 -20q-52 -22 -75 -72t-23 -138v-332q0 -88 23 -138t75 -72q34 -15 86 -20v792zM495 896v-792q52 5 87 20q51 22 74 72t23 138v332q0 88 -23 138t-74 72q-35 15 -87 20zM384 -4q-95 4 -157 34q-72 34 -106 108.5t-34 195.5v332q0 121 34 195.5
t106 109.5q62 29 157 33v97h111v-97q95 -4 157 -33q72 -35 106 -109.5t34 -195.5v-332q0 -121 -34 -195.5t-106 -108.5q-62 -30 -157 -34v-97h-111v97z" />
    <glyph glyph-name="uni0425" unicode="&#x425;" horiz-adv-x="828" 
d="M301 448q16 27 21 37.5t5 20.5t-5.5 21.5t-20.5 37.5l-268 435h127l253 -411l256 411h125l-268 -436q-16 -27 -21 -37.5t-5 -20.5t5.5 -21t20.5 -37l278 -448h-131l-260 424l-259 -424h-131z" />
    <glyph glyph-name="uni0426" unicode="&#x426;" horiz-adv-x="921" 
d="M112 1000h113v-891h471v891h113v-894h113v-304h-113v198h-697v1000z" />
    <glyph glyph-name="uni0427" unicode="&#x427;" horiz-adv-x="829" 
d="M597 429h-231q-119 0 -183.5 29.5t-90 94.5t-25.5 181v267h117v-267q0 -91 12 -130t48.5 -52.5t121.5 -13.5h231v463h117v-1001h-117v429z" />
    <glyph glyph-name="uni0428" unicode="&#x428;" horiz-adv-x="1515" 
d="M1403 1000v-927q-5 -32 -22 -49q-5 -5 -10 -9q-11 -7 -25 -11q-10 -3 -22 -4h-1122q-29 3 -47 15l-10 8q-19 19 -23 54v923h113v-865q1 -11 5 -17l2 -2q6 -5 18 -7h446v891h113v-891h447q12 2 17 7l2 1q3 5 5 14v869h113z" />
    <glyph glyph-name="uni0429" unicode="&#x429;" horiz-adv-x="1505" 
d="M1393 0h-1281v1000h113v-891h471v891h113v-891h471v891h113v-894h113v-304h-113v198z" />
    <glyph glyph-name="uni042A" unicode="&#x42a;" horiz-adv-x="812" 
d="M439 517h-214v-369q0 -24 8 -32t32 -8h174q79 0 120.5 14t57.5 47.5t16 97.5v91q0 65 -16 98t-57 47t-121 14zM225 1000v-374h214q118 0 184 -25.5t94.5 -82t28.5 -155.5v-102q0 -99 -28.5 -155t-94.5 -81t-184 -25h-228q-51 0 -75 24.5t-24 74.5v793h-111v108h224z" />
    <glyph glyph-name="uni042B" unicode="&#x42b;" horiz-adv-x="1047" 
d="M112 99v901h113v-374h214q118 0 184 -25.5t94.5 -82t28.5 -155.5v-102q0 -99 -28.5 -155t-94.5 -81t-184 -25h-228q-51 0 -75 24.5t-24 74.5zM439 517h-214v-369q0 -24 8 -32t32 -8h174q79 0 120.5 14t57.5 47.5t16 97.5v91q0 65 -16 98t-57 47t-121 14zM822 1001v-1001
h113v1001h-113z" />
    <glyph glyph-name="uni042C" unicode="&#x42c;" horiz-adv-x="812" 
d="M112 99v901h113v-374h214q118 0 184 -25.5t94.5 -82t28.5 -155.5v-102q0 -99 -28.5 -155t-94.5 -81t-184 -25h-228q-51 0 -75 24.5t-24 74.5zM439 517h-214v-369q0 -24 8 -32t32 -8h174q79 0 120.5 14t57.5 47.5t16 97.5v91q0 65 -16 98t-57 47t-121 14z" />
    <glyph glyph-name="uni042D" unicode="&#x42d;" horiz-adv-x="799" 
d="M208 446v108h401v132q0 85 -19.5 128t-69.5 60.5t-149 17.5h-284v108h335q115 0 180 -30t92.5 -97.5t27.5 -186.5v-378q0 -116 -27.5 -182.5t-92.5 -96t-180 -29.5h-335v108h284q99 0 149 17t69.5 59t19.5 124v138h-401z" />
    <glyph glyph-name="uni042E" unicode="&#x42e;" horiz-adv-x="1109" 
d="M671 107q-91 0 -143 22q-51 22 -74 72t-23 138v332q0 88 23 138t74 72q52 22 143 22q90 0 141 -22q52 -22 75 -72t23 -138v-332q0 -88 -23 -138t-75 -72q-51 -22 -141 -22zM318 452v-113q0 -121 34 -196q34 -74 106 -109q72 -34 189 -34h47q117 0 189 34q72 35 106 109
q34 75 34 196v332q0 121 -34 195q-34 75 -106 109q-72 35 -189 35h-47q-117 0 -189 -35q-72 -34 -106 -109q-34 -74 -34 -195v-113h44v-106h-44zM225 452v-447h-113v1000h113v-447h137v-106h-137z" />
    <glyph glyph-name="uni042F" unicode="&#x42f;" horiz-adv-x="843" 
d="M804 901v-901h-113v852q0 24 -8 32t-32 8h-177q-79 0 -122 -14.5t-61 -48.5t-18 -96v-96q0 -62 19 -96t64 -48.5t126 -14.5h62l-304 -478h-128l261 397q-114 17 -163.5 72.5t-49.5 167.5v96q0 99 29.5 157t94.5 84t176 26h245q51 0 75 -24.5t24 -74.5z" />
    <glyph glyph-name="uni0430" unicode="&#x430;" horiz-adv-x="821" 
d="M710 700v-700h-82l-13 128q-27 -71 -84 -102.5t-157 -31.5q-108 0 -171.5 34t-92 111.5t-28.5 210.5t28.5 210.5t92 111.5t171.5 34q100 0 157 -31.5t84 -104.5l13 130h82zM520 121.5q41 21.5 57.5 74.5t16.5 154t-16.5 154t-57.5 74.5t-120 21.5q-84 0 -127 -21.5
t-60.5 -74t-17.5 -154.5t17.5 -154.5t60.5 -74t127 -21.5q79 0 120 21.5z" />
    <glyph glyph-name="uni0431" unicode="&#x431;" horiz-adv-x="843" 
d="M356 1000h327v-108h-275q-87 0 -133 -14t-65 -47.5t-19 -97.5v-144h250q125 0 190 -28.5t89 -90t24 -174.5q0 -110 -29.5 -174.5t-95 -93t-178.5 -28.5h-76q-150 0 -220.5 70t-70.5 231v432q0 139 68 203t214 64zM412 108q89 0 134.5 15.5t64 56t18.5 121.5
q0 79 -12.5 114t-55 50t-139.5 15h-231v-179q0 -81 19 -121.5t65 -56t137 -15.5z" />
    <glyph glyph-name="uni0432" unicode="&#x432;" horiz-adv-x="726" 
d="M527 464q-3 -18 -7 -29q-7 -16 -26 -22q-13 -5 -37 -7h-232v181h200q22 -1 38 -4v0l7 -2q30 -6 44 -25q10 -13 13 -34v-58zM527 178q-3 -22 -13 -34q-14 -19 -44 -25l-7 -2q-16 -3 -38 -4h-200v180h207q37 -1 57 -8q22 -7 30 -25q5 -14 8 -37v-45zM559 350l8 4
q17 9 29 19q25 22 34 54q10 30 10 80q0 34 -4 61q-12 61 -52 90q-57 42 -180 42h-292v-700h292q123 0 180 41q26 19 40 51q10 24 14 55q1 15 1 33q0 57 -11 92q-13 37 -40 60q-12 10 -29 18z" />
    <glyph glyph-name="uni0433" unicode="&#x433;" horiz-adv-x="565" 
d="M479 700v-113h-230q-10 -2 -15 -6l-2 -1q-5 -5 -7 -17v-563h-113v622q4 36 23 55q19 18 52 23h292z" />
    <glyph glyph-name="uni0434" unicode="&#x434;" horiz-adv-x="622" 
d="M435 114h-251v459q2 6 5 9l3 2l3 2l6 2h215q6 -1 10 -4l2 -2q5 -5 7 -15v-453zM553 114h-5v509q-4 35 -23 54q-19 20 -55 24h-321q-34 -4 -53 -22l-2 -2q-18 -17 -23 -48v-515h-2q-28 -5 -45 -20l-2 -2q-15 -15 -21 -41l-1 -7v-145h113v87q2 6 5 9l1 1l5 3l6 2h360
q8 -2 12 -5v-1q5 -4 7 -15v-81h113v139q-4 35 -23 54q-16 17 -46 22z" />
    <glyph glyph-name="uni0435" unicode="&#x435;" horiz-adv-x="783" 
d="M195 287q0 -81 14.5 -117.5t55 -49t129.5 -11.5h259v-109h-282q-146 0 -217.5 69t-71.5 208v146q0 142 70 209.5t218 67.5h48q147 0 217.5 -67.5t70.5 -209.5v-117h-511v-19zM264.5 579q-40.5 -13 -55 -49.5t-14.5 -116.5v-9h398v19q0 76 -14.5 110t-54.5 46.5t-129 12.5
q-90 0 -130.5 -13z" />
    <glyph glyph-name="uni0436" unicode="&#x436;" horiz-adv-x="1161" 
d="M638 438h61q23 0 35.5 5.5t28.5 22.5l217 234h141l-267 -294q-15 -16 -15 -28t15 -28l311 -350h-147l-262 289q-15 17 -27.5 22.5t-35.5 5.5h-55v-317h-115v317h-55q-23 0 -35.5 -5.5t-27.5 -22.5l-262 -289h-147l311 350q15 16 15 28t-15 28l-267 294h141l217 -234
q16 -17 28.5 -22.5t35.5 -5.5h61v262h115v-262z" />
    <glyph glyph-name="uni0437" unicode="&#x437;" horiz-adv-x="692" 
d="M609 180q0 -17 -1 -33v0q-4 -31 -14 -55q-14 -32 -40 -51q-57 -41 -180 -41h-70q-109 2 -163 39v0l-3 2q-34 25 -48 72q-6 20 -8 44v53h113v-15v-5l1 -11q3 -21 13 -34q14 -19 44 -25l6 -2q29 -5 79 -5v0h13h44q22 1 38 4l7 2q30 6 44 25q10 12 13 34v45q-3 23 -8 37
q-8 18 -30 25q-19 7 -57 8h-132v113h157q24 2 37 7q19 6 26 22q4 11 6 29l1 58q-3 21 -13 34q-14 19 -44 25l-6 2h-1h-1q-14 2 -33 4h-60q-49 0 -78 -6l-7 -1q-30 -6 -44 -25q-9 -13 -12 -34l-1 -11l-1 -5v-15h-113v53q3 24 8 44q14 47 48 71l3 3q54 37 163 39h69
q44 0 79 -5q64 -10 101 -37q32 -23 46 -66l1 -5l5 -19v0q4 -27 4 -61q0 -50 -10 -80q-9 -32 -34 -54q-12 -10 -29 -19v0l-8 -4q17 -8 29 -18q27 -23 40 -60q6 -18 8 -40q3 -23 3 -52z" />
    <glyph glyph-name="uni0438" unicode="&#x438;" horiz-adv-x="753" 
d="M641 0h-113v494q0 9 -2 13v2q-2 3 -5 3t-5 -4q-1 -1 -79 -158q-28 -55 -69 -138q-13 -26 -34 -67l-8 -16l-7 -15q-9 -17 -15 -29q-9 -18 -15 -32q-12 -20 -24 -31q-20 -18 -48 -22h-32q-37 4 -53 28q-20 28 -20 101v31l1 540h113v-506q0 -10 1 -14v-1q2 -3 5 -3t5 4
q2 2 212 427l22 43q12 19 23 29q17 17 41 21h35q35 -5 51 -28q16 -22 20 -69v-603z" />
    <glyph glyph-name="uni0439" unicode="&#x439;" horiz-adv-x="753" 
d="M535 930v-26q0 -86 -39 -127v0q-40 -41 -121 -41t-120 41q-38 41 -38 127v26h113v-26q0 -31 10 -42t35 -11q26 0 35 11q11 11 11 42v26h114zM641 0h-113v494q0 9 -2 13v2q-2 3 -5 3t-5 -4q-1 -1 -79 -158q-28 -55 -69 -138q-13 -26 -34 -67l-8 -16l-7 -15q-9 -17 -15 -29
q-9 -18 -15 -32q-12 -20 -24 -31q-20 -18 -48 -22h-32q-37 4 -53 28q-20 28 -20 101v31l1 540h113v-506q0 -10 1 -14v-1q2 -3 5 -3t5 4q2 2 212 427l22 43q12 19 23 29q17 17 41 21h35q35 -5 51 -28q16 -22 20 -69v-603z" />
    <glyph glyph-name="uni043A" unicode="&#x43a;" horiz-adv-x="750" 
d="M112 700h115v-262h61q23 0 35.5 5.5t28.5 22.5l217 234h141l-267 -294q-15 -16 -15 -28t15 -28l311 -350h-147l-262 289q-15 17 -27.5 22.5t-35.5 5.5h-55v-317h-115v700z" />
    <glyph glyph-name="uni043B" unicode="&#x43b;" horiz-adv-x="842" 
d="M730 0h-113v522q-3 24 -13 38q-14 19 -44 26l-7 1h-267l-8 -1q-29 -7 -43 -26q-13 -16 -14 -46v-353q-7 -83 -56 -120q-54 -38 -165 -41v109h6q28 2 45 5q30 7 44 26q10 13 13 36v349q1 38 11 67q14 43 46 67q17 12 40 21v0q54 20 140 20h149q123 0 180 -41
q50 -37 56 -123v-536z" />
    <glyph glyph-name="uni043C" unicode="&#x43c;" horiz-adv-x="944" 
d="M832 0h-113v494q0 9 -2 13v2q-2 3 -5 3t-5 -4l-44 -88q-8 -16 -21 -41l-11 -22l-12 -24q-30 -59 -48 -96h-1l-12 -26l-13 -25q-12 -21 -25 -33q-19 -15 -49 -15t-48 15q-11 10 -22 28q-20 39 -43 85l-22 45l-22 43q-28 55 -39 78l-38 76q-2 4 -5 4t-5 -3v-2q-2 -4 -2 -13
v-494h-113v603q4 47 20 69q16 23 51 28h35q24 -4 41 -21q11 -10 23 -29l22 -43v0q27 -55 80 -163q50 -100 76 -154l2 -3l2 -4q4 -8 8 -8q3 0 5 3q3 4 69 137q11 22 26 54l14 27l12 26q30 62 41 84l1 1l22 43q12 19 23 29q17 17 41 21h35q35 -5 51 -28q16 -22 20 -69v-603z
" />
    <glyph glyph-name="uni043D" unicode="&#x43d;" horiz-adv-x="836" 
d="M225 294v-294h-113v700h113v-293h396v293h113v-700h-113v294h-396z" />
    <glyph glyph-name="uni043E" unicode="&#x43e;" horiz-adv-x="788" 
d="M155 72q-73 72 -73 205v146q0 133 73 205t215 72h48q142 0 215 -72t73 -205v-146q0 -133 -73 -205t-215 -72h-48q-142 0 -215 72zM515.5 128q43.5 20 60.5 59t17 100v126q0 61 -17 100t-60.5 59t-120.5 20q-78 0 -121.5 -20t-61 -59t-17.5 -100v-126q0 -61 17.5 -100
t61 -59t121.5 -20q77 0 120.5 20z" />
    <glyph glyph-name="uni043F" unicode="&#x43f;" horiz-adv-x="846" 
d="M734 0h-113v522q-2 24 -13 38q-14 19 -44 26l-7 1h-267l-8 -1q-29 -7 -43 -26q-13 -16 -14 -46v-514h-113v525q3 94 57 134q17 12 40 21q54 20 140 20h149q123 0 180 -41q50 -37 56 -123v-536z" />
    <glyph glyph-name="uni0440" unicode="&#x440;" horiz-adv-x="821" 
d="M618.5 672q63.5 -34 92 -111.5t28.5 -210.5t-28.5 -210.5t-92 -111.5t-171.5 -34q-83 0 -137 22t-84 70v-386h-115v1000h82l13 -130q27 73 84 104.5t157 31.5q108 0 171.5 -34zM548 121.5q43 21.5 60.5 74t17.5 154.5t-17.5 154.5t-60.5 74t-127 21.5q-79 0 -120 -21.5
t-57.5 -74.5t-16.5 -154t16.5 -154t57.5 -74.5t120 -21.5q84 0 127 21.5z" />
    <glyph glyph-name="uni0441" unicode="&#x441;" horiz-adv-x="699" 
d="M153 72q-71 72 -71 205v146q0 133 71 205t207 72h250v-108h-225q-74 0 -115.5 -19t-58 -57.5t-16.5 -102.5v-126q0 -64 16.5 -102.5t58 -57.5t115.5 -19h225v-108h-250q-136 0 -207 72z" />
    <glyph glyph-name="uni0442" unicode="&#x442;" horiz-adv-x="794" 
d="M86 700v-113h254v-587h113v587h255v113h-622z" />
    <glyph glyph-name="uni0443" unicode="&#x443;" horiz-adv-x="783" 
d="M747 700l-276 -721q-45 -123 -80 -175t-86 -68t-156 -16h-59v113h59q70 0 102 9t54.5 40t54.5 108l12 32q-72 12 -102 96l-234 582h120l224 -553q1 -5 5 -8.5t8 -3.5t7.5 3.5t4.5 8.5l222 553h120z" />
    <glyph glyph-name="uni0444" unicode="&#x444;" horiz-adv-x="1149" 
d="M954 287q0 -61 -17 -100t-61 -59q-43 -20 -120 -20q-52 0 -88 9q-19 4 -34 11l-3 2v441l3 1q15 7 34 12q36 8 88 8q77 0 120 -20q44 -20 61 -59t17 -100v-126zM273 128q-43 20 -61 59q-17 39 -17 100v126q0 61 17 100q18 39 61 59q44 20 122 20q50 0 86 -8q19 -5 34 -12
l3 -1v-441l-3 -2q-15 -7 -34 -11q-36 -9 -86 -9q-78 0 -122 20zM631 -300v311q45 -11 100 -11h48q142 0 215 72t73 205v146q0 133 -73 205t-215 72h-48q-55 0 -100 -10v310h-113v-311q-45 11 -100 11h-48q-142 0 -215 -72t-73 -205v-146q0 -133 73 -205t215 -72h48
q55 0 100 11v-311h113z" />
    <glyph glyph-name="uni0445" unicode="&#x445;" horiz-adv-x="709" 
d="M274 357l-246 343h126l202 -278l199 278h126l-245 -342l257 -358h-127l-211 292l-212 -292h-126z" />
    <glyph glyph-name="uni0446" unicode="&#x446;" horiz-adv-x="847" 
d="M847 113v-339h-113v226h-385q-123 0 -180 41q-54 40 -57 134v525h113v-514q1 -30 14 -46q14 -19 43 -26l8 -1h331v587h113v-587h113z" />
    <glyph glyph-name="uni0447" unicode="&#x447;" horiz-adv-x="726" 
d="M614 700v-700h-113v295h-257q-81 7 -117 53q-39 52 -41 162v190h113v-237l1 -7q7 -28 25 -41q11 -8 28 -11h248v296h113z" />
    <glyph glyph-name="uni0448" unicode="&#x448;" horiz-adv-x="1355" 
d="M1243 700v-532q-5 -89 -57 -127q-57 -41 -180 -41h-748q-50 4 -80 24q-38 25 -53 73q-10 31 -13 74v529h113v-533q5 -27 21 -41q10 -10 27 -13h348v587h113v-587h331l8 1q29 7 43 26q12 15 14 41v519h113z" />
    <glyph glyph-name="uni0449" unicode="&#x449;" horiz-adv-x="1355" 
d="M112 0v700h113v-587h396v587h113v-587h396v587h113v-587h113v-339h-113v226h-1131z" />
    <glyph glyph-name="uni044A" unicode="&#x44a;" horiz-adv-x="740" 
d="M541 174q-2 -26 -15 -40q-15 -16 -44 -21q-16 -3 -40 -4h-202v221h202q26 -2 43 -6q29 -6 43 -25q10 -12 13 -34v-91zM432 439h-192v261h-240v-109h127v-591h302q77 0 126 15q48 15 74 53q21 30 25 79v134q-7 81 -56 116q-53 40 -166 42z" />
    <glyph glyph-name="uni044B" unicode="&#x44b;" horiz-adv-x="970" 
d="M745 0h113v700h-113v-700zM527 174q-2 -26 -15 -40q-15 -16 -45 -21q-16 -3 -39 -4h-203v221h202q26 -2 43 -6q30 -6 44 -25q10 -12 13 -34v-91zM417 439h-192v261h-113v-700h303q77 0 125 15q49 15 75 53q20 30 25 79v134q-8 81 -56 116q-54 40 -167 42z" />
    <glyph glyph-name="uni044C" unicode="&#x44c;" horiz-adv-x="726" 
d="M527 174q-2 -26 -15 -40q-15 -16 -45 -21q-16 -3 -39 -4h-203v221h202q26 -2 43 -6q30 -6 44 -25q10 -12 13 -34v-91zM417 439h-192v261h-113v-700h303q77 0 125 15q49 15 75 53q20 30 25 79v134q-8 81 -56 116q-54 40 -167 42z" />
    <glyph glyph-name="uni044D" unicode="&#x44d;" horiz-adv-x="699" 
d="M188 296v108h309v9q0 64 -16.5 102.5t-58 57.5t-115.5 19h-225v108h250q136 0 207 -72t71 -205v-146q0 -133 -71 -205t-207 -72h-250v108h225q74 0 115.5 19t58 57.5t16.5 102.5v9h-309z" />
    <glyph glyph-name="uni044E" unicode="&#x44e;" horiz-adv-x="1013" 
d="M818 287v126q0 61 -17 100t-60.5 59t-120.5 20q-78 0 -121.5 -20t-61 -59t-17.5 -100v-126q0 -61 17.5 -100t61 -59t121.5 -20q77 0 120.5 20t60.5 59t17 100zM307 293v114h-82v293h-113v-700h113v293h82zM307 423q0 133 73 205t215 72h48q142 0 215 -72t73 -205v-146
q0 -133 -73 -205t-215 -72h-48q-142 0 -215 72t-73 205v146z" />
    <glyph glyph-name="uni044F" unicode="&#x44f;" horiz-adv-x="678" 
d="M566 700v-700h-113v587h-199q-22 -1 -38 -4v0l-7 -2q-30 -6 -44 -25q-9 -13 -12 -34v-58v-1q3 -16 11 -26q14 -19 43 -25l8 -2q16 -2 38 -4h145l-74 -113l-189 -293h-135l193 299q-62 9 -98 35l-1 1q-26 19 -40 50q-4 10 -8 21q-4 16 -7 34q-1 16 -1 33q0 12 2 46
q2 37 3 49q2 10 5 19q13 46 46 70l1 1q57 42 180 42h291z" />
    <glyph glyph-name="uni0451" unicode="&#x451;" horiz-adv-x="783" 
d="M195 287q0 -81 14.5 -117.5t55 -49t129.5 -11.5h259v-109h-282q-146 0 -217.5 69t-71.5 208v146q0 142 70 209.5t218 67.5h48q147 0 217.5 -67.5t70.5 -209.5v-117h-511v-19zM264.5 579q-40.5 -13 -55 -49.5t-14.5 -116.5v-9h398v19q0 76 -14.5 110t-54.5 46.5t-129 12.5
q-90 0 -130.5 -13z" />
    <glyph glyph-name="uni0454" unicode="&#x454;" horiz-adv-x="699" 
d="M195 296v-9q0 -64 16.5 -102.5t58 -57.5t115.5 -19h225v-108h-250q-136 0 -207 72t-71 205v146q0 133 71 205t207 72h250v-108h-225q-74 0 -115.5 -19t-58 -57.5t-16.5 -102.5v-9h309v-108h-309z" />
    <glyph glyph-name="uni0456" unicode="&#x456;" 
d="M217 700v-700h-113v700h113zM105.5 886.5q-16.5 16.5 -16.5 55.5q0 38 16.5 54.5t54.5 16.5q39 0 55.5 -16.5t16.5 -54.5q0 -39 -16.5 -55.5t-55.5 -16.5q-38 0 -54.5 16.5z" />
    <glyph glyph-name="uni0457" unicode="&#x457;" 
d="M217 700v-700h-113v700h113zM-32.5 873.5q-16.5 16.5 -16.5 54.5q0 39 16.5 55.5t55.5 16.5q38 0 54.5 -16.5t16.5 -55.5q0 -38 -16.5 -54.5t-54.5 -16.5q-39 0 -55.5 16.5zM241.5 874q-16.5 17 -16.5 54q0 39 16.5 55.5t54.5 16.5q39 0 55.5 -16.5t16.5 -55.5
q0 -38 -16.5 -54.5t-55.5 -16.5q-38 0 -54.5 17z" />
    <glyph glyph-name="uni0490" unicode="&#x490;" horiz-adv-x="763" 
d="M697 1178v-188q0 -51 -25 -75q-19 -19 -54 -23h-353q-9 0 -15 -1q-12 -2 -17 -7q-8 -8 -8 -32v-852h-113v901q0 51 24 75q20 19 55 23h353q9 0 15 1q12 2 17 7q8 8 8 32v139h113z" />
    <glyph glyph-name="uni0491" unicode="&#x491;" horiz-adv-x="565" 
d="M479 798v-134q-4 -36 -23 -55q-19 -18 -52 -22h-155q-10 -2 -15 -6l-2 -1q-5 -5 -7 -17v-563h-113v622q4 36 23 55q19 18 52 23h156q10 2 15 5l2 2q4 5 6 16v75h113z" />
    </font>
</defs>
</svg>
